<svg width="375" height="3853" viewBox="0 0 375 3853" fill="none" xmlns="http://www.w3.org/2000/svg">
<path fill-rule="evenodd" clip-rule="evenodd" d="M217.828 54.5396C215.42 56.7571 212.593 59.3607 206.516 61.6527C170.778 65.1404 157.91 34.141 163.099 0H375.1V659.84L353.853 652.482C303.241 635.699 235.523 622.585 185.29 639.436C179.038 641.533 171.434 646.168 166.712 649.376C160.726 653.441 156.067 657.195 151.258 662.128L150.814 662.584C148.621 664.832 146.516 666.988 144.566 669.538C142.463 672.288 140.672 674.645 138.737 677.809C117.212 713 121.262 757.629 128.9 797.301C135.02 829.091 141.513 854.755 156.287 882.998C159.577 889.286 162.854 895.179 166.466 901.027C170.36 907.329 178.681 919.909 184.363 925.435C184.872 925.93 185.368 926.411 185.856 926.883C187.801 928.766 189.603 930.509 191.45 932.448C192.328 933.37 192.999 933.932 193.63 934.459C194.154 934.898 194.649 935.312 195.211 935.89C196.121 936.826 197.005 937.543 197.938 938.3C198.255 938.557 198.578 938.819 198.909 939.095C211.106 949.28 227.43 959.319 243.646 965.163C262.15 971.83 272.107 973.698 292.283 973.034C316.03 972.252 339.48 967.042 358.708 954.746C361.729 952.814 364.351 951.05 367.109 949.043L375.1 942.817V1018.97L514.927 1018.83H583.049V3853H0.00103629V3540.62C37.6242 3547.3 96.1433 3549.45 127.564 3545.96C175.65 3540.62 279.978 3497.19 298.538 3409.02C317.097 3320.84 287.184 3270.74 260.469 3230.65C250.76 3216.09 232.254 3202.11 212.84 3187.44C181.509 3163.77 147.815 3138.32 144.928 3105.73C142.369 3076.84 155.842 3059.28 170.453 3040.24C189.907 3014.88 211.376 2986.9 199.693 2926.04C196.561 2909.72 188.123 2894.77 179.309 2879.16C166.836 2857.07 153.611 2833.65 153.611 2803.12C153.611 2759.03 189.007 2715.61 296.534 2708.26C404.061 2700.91 463.501 2650.14 475.523 2584.01C480.7 2555.52 475.323 2522.94 470.201 2491.91C466.795 2471.27 463.501 2451.31 463.501 2433.7C463.501 2372.49 502.133 2308.76 524.673 2271.57C527.222 2267.37 529.565 2263.5 531.623 2260.02L537.968 1680.02L471.348 1783.71L470.428 1784.82C432.391 1831.06 391.046 1881.31 330.094 1893.9C268.651 1906.6 169.138 1911.98 135.745 1859.87C106.633 1814.45 111.702 1738.29 151.106 1672.16C164.174 1650.22 175.766 1632.63 185.949 1617.17C206.471 1586.02 221.273 1563.56 230.916 1531.75C251.116 1465.13 259.467 1388 245.108 1325.45C228.575 1253.44 154.278 1193.65 90.664 1162.59C25.7835 1130.92 0.327303 1072.69 -0.47997 1021.84H-0.575439V541.241C0.876525 541.587 2.39054 542.044 3.91388 542.503C5.21662 542.896 6.52618 543.291 7.80956 543.621C30.6236 549.49 52.8936 551.016 76.664 549.842C102.133 548.583 126.621 543.723 147.002 534.277C157.591 529.369 169.355 522.306 176.904 515.561L177.372 515.143C184.345 508.915 189.039 504.721 195.383 496.533C207.395 481.027 219.847 458.201 223.205 438.568C227.362 414.269 220.982 386.251 214.374 357.231C209.23 334.637 203.947 311.436 203.39 288.91C202.752 263.07 209.104 238.322 217.637 217.281C220.291 210.736 223.258 204.46 226.267 198.095C227.869 194.706 229.483 191.292 231.068 187.798C232.376 184.915 234.477 180.592 236.668 176.084C239.963 169.301 243.464 162.097 244.778 158.743C250.933 150 267.881 117.593 266.622 91.928C265.078 60.4619 246.773 36.3243 221.569 51.5354C220.179 52.3739 219.058 53.4063 217.828 54.5396Z" fill="#DCFBFC"/>
</svg>
