<svg width="347" height="301" viewBox="0 0 347 301" fill="none" xmlns="http://www.w3.org/2000/svg">
<path fill-rule="evenodd" clip-rule="evenodd" d="M187.409 255.713L187.346 291.877L201.256 291.808L201.236 249.412L237.071 249.01L236.896 291.799L249.744 292.136L249.874 266.321C246.424 267.622 246.911 270.864 241.239 270.395C242.304 268.188 243.926 267.443 245.15 265.284C246.543 262.828 246.555 260.633 247.159 257.967C243.397 254.223 241.059 239.112 237.717 234.476L234.745 234.68C235.899 231.613 235.622 233.459 237.009 231.406C236.122 227.703 234.365 224 234.625 220.254C232.515 217.362 235.064 217.724 230.698 214.097L219.941 204.804C217.949 203.148 216.49 201.824 214.257 200.109C212.061 206.94 190.115 253.498 187.409 255.713Z" fill="#DCFBFC"/>
<path fill-rule="evenodd" clip-rule="evenodd" d="M92.3031 36.5789C92.7041 35.2709 92.9173 35.092 94.2374 34.7504L96.2534 35.3048C96.5265 37.0056 96.5372 36.657 96.261 38.2883C94.4024 38.9623 92.6909 39.1326 92.3031 36.5789ZM100.453 34.4524C101.124 33.5919 101.017 33.414 102.165 33.2123L103.151 33.222L104.624 34.3283C104.623 36.883 104.33 36.8475 102.081 37.522L100.435 36.29L100.453 34.4524ZM111.371 35.9586L109.828 36.0366C108.607 35.5258 109.123 35.9049 108.578 34.9395C108.715 32.2849 109.063 31.8962 111.883 32.1851L112.438 32.8464C112.872 33.5509 113.241 33.782 112.652 34.9653C112.348 35.5745 112.075 35.6424 111.371 35.9586ZM96.6168 27.9078L94.4882 28.6112C91.5519 29.1661 82.2357 30.7879 80.7496 31.5632C76.042 34.0196 80.8348 40.4153 80.9567 46.4861C80.7744 47.8473 86.0784 70.5675 87.1331 75.4423C87.7762 78.4156 87.4199 78.3624 88.3152 78.7607C88.9015 74.7698 91.4139 73.181 91.7042 72.4122C92.0686 71.4468 90.8266 67.4361 94.7409 66.2132C97.4812 63.0063 107.761 63.6443 112.175 64.4101C110.873 61.0617 104.161 54.5141 98.2461 54.4426C95.2378 54.4061 95.7403 54.771 95.2043 53.7351C95.3738 53.4498 94.5937 52.7104 98.6207 52.9522C102.508 53.1863 104.473 54.5769 107.385 56.6162C109.867 58.3545 113.225 62.6389 115.375 65.2574C117.252 66.7661 120.851 67.7138 123.11 66.6896C123.12 70.2721 122.791 70.8244 121.961 73.8312C122.184 75.6435 128.58 83.6223 136.232 83.1759C136.166 81.7189 135.542 79.7226 136.152 78.6467L137.244 78.5854L137.947 82.6665C151.826 81.0696 150.755 44.3363 170.048 44.4153C188.912 44.4929 189.348 79.1099 204.751 80.2674C204.73 79.5386 204.748 78.8215 204.787 78.0948C204.797 77.9007 204.827 77.211 204.858 77.0579C204.998 76.3626 204.943 76.6996 205.17 76.3363C204.56 73.6032 205.447 61.4525 205.584 57.7686C205.753 53.2278 206.654 43.1823 206.098 39.2335L206.229 36.9585L208.2 37.1131C208.484 38.263 208.318 39.801 207.943 40.6104L206.397 80.1802C214.817 81.547 221.943 65.8772 225.868 59.9691C227.547 57.4413 229.376 54.6301 231.463 52.4768C235.408 48.4093 243.117 44.5907 250.207 49.3955C254.333 52.1915 256.397 56.2833 258.3 60.9203C258.652 61.7763 258.874 62.4235 259.18 63.357C259.672 64.856 259.397 64.856 260.48 65.2584L261.106 67.018L267.326 64.6158C268.822 65.4181 266.876 66.0642 271.383 65.4839C273.094 65.2635 274.724 65.1282 276.473 65.111C284.118 65.0344 282.163 67.1396 283.731 68.9514C286.609 70.3668 287.493 73.7978 288.78 77.3361C290.021 76.8177 289.806 75.0277 290.465 72.1249L293.164 60.2524C293.614 58.3671 294.216 56.1768 294.313 54.0559L293.931 53.5836C293.153 52.5863 293.317 52.3141 292.859 51.787L292.875 51.669L292.869 51.2757C291.958 50.6437 291.28 49.9535 290.546 49.0565L290.591 48.9202C288.472 48.5462 289.945 49.5085 284.968 51.6887C279.33 54.1583 272.216 53.9171 266.89 51.3102C265.808 50.7806 265.303 50.2028 264.048 49.9003C262.667 49.204 263.268 49.5324 262.288 48.6105C261.638 47.9993 261.36 47.9329 260.715 47.2731C259.882 46.4197 258.817 45.2662 258.084 43.945C257.817 42.4885 256.828 41.5946 256.175 39.7468C255.561 38.0106 255.136 36.7882 254.837 34.8619C254.027 29.6405 255.298 28.3447 255.73 23.9012C254.065 23.3685 248.391 22.9667 246.042 22.6798C235.359 21.3754 226.347 21.2304 216.371 20.2336C203.669 18.9631 166.682 19.3335 153.625 20.6253C146.804 21.3003 140.415 21.4093 133.783 22.2997C128.362 23.0275 98.4786 26.6652 96.6168 27.9078Z" fill="#FDFDFD"/>
<path fill-rule="evenodd" clip-rule="evenodd" d="M89.2036 143.663C86.1684 145.347 84.3879 144.043 82.0937 142.878C82.447 144.758 83.2372 146.687 83.6367 148.761C84.9442 155.548 84.7442 161.849 83.0479 168.469C80.3371 179.051 73.0912 188.38 64.4977 193.627C52.5148 200.943 42.6935 201.512 29.1189 198.567C29.969 201.971 26.7633 216.747 30.7984 231.328C35.8313 249.515 47.1499 262.096 64.3987 269.102C72.0715 272.217 84.4787 275.52 94.3248 275.196C94.4162 258.055 96.3353 241.04 96.3327 224.053C96.3312 216.777 96.2368 198.86 95.5871 191.696C94.905 184.182 93.7488 187.043 94.2386 173.84C94.1523 172.718 94.2533 173.137 93.8848 172.375C94.3005 171.681 93.7965 172.2 94.471 171.915L94.8852 168.988L94.939 168.715C95.5658 163.466 95.811 157.66 95.3948 152.336C95.0217 147.56 93.1098 140.785 93.2067 136.617L92.3474 136.621C92.1637 139.961 91.4541 142.212 89.2036 143.663Z" fill="#DDF9FA"/>
<path fill-rule="evenodd" clip-rule="evenodd" d="M238.847 98.2822C236.988 98.0703 237.099 98.3937 237.387 96.3047L241.984 56.1343C242.681 50.3023 242.085 51.1324 243.758 51.3624C244.238 52.1429 244.135 52.4789 244.142 53.0024L241.559 74.8596C240.576 82.6316 239.662 90.5679 238.847 98.2822ZM120.69 76.3282C122.975 81.6242 123.075 86.951 121.174 92.6366C119.448 97.7977 116.677 100.6 110.177 100.334L110.247 102.17L110.655 104.048L111.4 103.913C114.313 103.92 119.083 103.642 121.773 104.145C122.917 104.359 124.698 104.888 125.829 105.095C127.431 105.389 129.036 105.398 130.322 105.687C131.864 104.813 131.848 105.033 133.767 104.799C134.867 104.666 136.445 104.473 137.32 104.352C139.373 104.067 142.651 103.527 144.516 103.608C144.938 103.151 145.191 102.822 145.549 102.42L146.326 101.217L147.109 100.239L148.187 98.3683L148.409 97.8246L149.62 95.7736L150.965 93.7348C151.218 92.8951 150.715 92.3984 152.15 92.5114L152.47 91.6154C155.129 86.2034 155.403 84.4368 159.471 80.6658C161.685 78.6133 162.409 78.9504 165.109 77.5486C167.152 76.4869 168.468 75.119 170.354 74.2028L169.607 58.8294C169.396 53.2928 169.064 54.9105 170.413 54.3611C171.636 54.9251 171.31 56.8357 171.39 59.3945L172.509 90.8527C172.724 95.6971 173.143 95.0864 171.871 95.6677C170.912 95.279 171.533 95.8699 171.134 94.8249L170.003 76.2548L167.194 78.8459C167.389 84.3086 169.108 85.6592 162.544 86.9778C156.995 88.0933 159.47 91.5384 156.882 94.8421L156.665 95.6059C157.288 96.8008 157.739 96.1907 158.229 97.9624L157.374 98.8599L155.789 102.351C159.932 102.556 164.218 101.783 168.215 101.707C172.76 101.621 176.431 101.346 180.983 101.311C189.856 101.244 198.795 101.611 207.224 101.684C214.732 101.749 235.321 103.715 243.761 104.91C247.602 105.453 251.889 106.309 255.833 106.516C256.252 106.321 256.188 106.911 256.173 106.171L257.554 104.786C259.461 104.337 259.371 103.935 262.256 103.913C264.313 103.897 266.372 103.937 268.43 103.905L270.28 103.781C271.072 102.761 271.015 101.371 270.997 100.009L268.23 99.237C265.384 98.1879 263.367 96.2925 261.832 94.1934C260.867 92.8738 260.329 92.0543 259.68 90.5253C258.375 87.4491 258.6 90.017 256.777 87.9686C255.919 87.0042 255.323 85.1083 255.719 83.2788C256.149 81.2952 256.975 81.0074 258.114 80.1418C259.37 79.1875 260.262 74.7932 262.11 73.2546C260.346 72.1219 260.024 71.6643 259.308 69.3817L258.722 67.9845C258.693 67.8659 258.696 67.7783 258.675 67.6627C258.643 67.4879 258.692 67.0404 258.494 66.2325C257.468 62.0546 253.715 53.8062 250.419 51.3685C243.181 46.0149 236.552 49.3434 232.113 54.205C223.077 64.1015 219.342 80.9156 206.333 81.9064C206.339 82.324 206.383 82.7538 206.313 83.1683C206.182 83.9361 206.255 83.4678 205.992 83.8636C206.403 85.7169 205.997 90.9267 205.902 93.487C205.786 96.6402 204.514 96.2089 204.215 94.5269L204.662 82.0174L204.677 81.7691C188.425 80.9405 187.301 45.8319 170.048 45.9028C157.123 45.9561 154.456 64.1274 147.55 76.424C143.655 83.3594 140.173 83.0852 138.157 84.6684L139.555 97.0451C139.37 98.2422 139.79 97.783 138.703 98.2771C137.85 97.7678 138.107 98.8635 137.717 95.1102L136.471 84.6593C128.418 85.0196 125.485 80.4539 122.184 77.1112C122.008 76.9333 121.755 76.6566 121.421 76.4701C120.48 75.9451 121.34 76.0845 120.69 76.3282Z" fill="#FDFDFD"/>
<path fill-rule="evenodd" clip-rule="evenodd" d="M158.392 176.752L166.874 176.785L166.79 182.921L158.384 183.035L158.392 176.752ZM128.973 168.776L129.233 171.303C129.167 189.563 130.174 207.274 130.792 225.472C131.25 238.951 128.86 248.705 125.003 261.328C123.951 264.772 122.321 269.051 121.597 272.398C128.547 269.445 129.146 270.116 137.538 265.85C143.446 262.848 150.055 257.211 151.028 256.711C151.203 261.269 151.418 292.975 150.822 295.336L151.362 295.305L151.155 225.317C153.768 224.976 170.093 224.969 172.248 225.449C172.369 222.915 173.852 218.536 174.382 215.229C175.878 205.891 175.29 194.063 172.119 185.18C172.11 185.155 171.761 184.141 171.759 184.126C171.601 182.711 171.387 183.546 172.091 182.797L172.052 182.428L170.95 182.15C170.111 178.885 168.52 176.192 167.144 173.519C165.884 171.072 163.14 167.332 162.598 165.404L158.377 165.551L158.398 159.987C157.14 159.542 157.275 159.138 156.514 158.247L156.516 185.782L154.264 185.844L154.297 155.479C152.616 154.552 150.06 151.67 148.412 150.315C146.325 148.597 144.198 146.903 142.004 145.383C137.759 142.44 131.95 139.148 127.34 137.664L128.973 168.776Z" fill="#DCFBFC"/>
<path fill-rule="evenodd" clip-rule="evenodd" d="M250.959 191.247L250.949 201.534L250.89 222.363L250.944 230.609L250.933 249.499L250.911 255.841L250.86 267.679L250.834 295.315L287.021 295.284L287.047 190.448L285.081 190.561L254.954 190.57C254.312 190.568 252.92 190.477 252.382 190.529C251.088 190.654 250.985 190.121 250.959 191.247Z" fill="#F47B44"/>
<path fill-rule="evenodd" clip-rule="evenodd" d="M94.4709 171.915L103.001 171.938C104.364 171.938 104.507 171.893 105.212 172.375C104.339 172.821 103.944 172.693 102.627 172.681L94.8572 172.643L94.2385 173.84C93.7487 187.043 94.9049 184.182 95.5871 191.696C96.2367 198.86 96.3311 216.777 96.3327 224.053C96.3352 241.04 94.4161 258.055 94.3248 275.196L94.2126 281.433L94.1375 285.546L101.586 285.458L103.667 275.058C105.378 262.537 108.501 250.48 109.593 237.537C110.751 223.787 110.407 209.569 111.531 195.78C117.054 217.284 118.982 233.822 115.259 255.597C114.38 260.733 113.009 269.952 111.469 274.569L109.12 285.546L110.276 285.963L115.622 286.269C116.934 286.395 116.379 287.003 117.634 283.448C118.079 282.189 118.489 280.988 118.966 279.682C119.544 278.096 120.955 273.371 121.597 272.398C122.322 269.051 123.95 264.772 125.003 261.328C128.86 248.705 131.25 238.951 130.792 225.472C130.175 207.275 129.167 189.563 129.233 171.303L128.705 169.811C128.285 168.992 127.75 167.91 127.179 169.798L126.82 181.473C126.112 194.885 128.926 214.984 129.181 230.237C129.354 240.633 122.885 261.352 119.215 272.226C118.721 273.688 115.964 284.56 114.647 285.115C114.038 283.853 120.851 263.168 121.865 260.059C124.706 251.343 127.329 242.288 128.127 232.795C128.531 227.997 127.617 221.988 127.414 217.062C127.13 210.168 125.268 190.037 125.602 185.461C125.944 180.783 126.394 173.673 126.137 169.09L94.8851 168.988L94.4709 171.915Z" fill="#492F29"/>
<path fill-rule="evenodd" clip-rule="evenodd" d="M151.363 295.305L187.44 295.281L187.484 225.755L172.249 225.449C170.093 224.969 153.768 224.976 151.155 225.317L151.363 295.305Z" fill="#4ED5FD"/>
<path fill-rule="evenodd" clip-rule="evenodd" d="M190.357 295.27L200.995 295.327L201.002 252.123L237.14 252.025L237.053 295.267C239.448 295.292 250.004 295.696 250.835 295.315L250.861 267.679C249.007 269.849 245.598 274.562 241.118 273.672C241.61 270.597 246.09 271.915 247.032 261.447C245.863 260.1 243.16 251.83 242.257 249.461C240.821 245.691 239.466 240.555 237.904 237.165C236.535 237.383 235.916 237.849 234.649 237.503C235.07 235.197 235.72 236.328 237.058 234.561C236.474 231.006 233.549 223.727 233.962 220.378L233.396 219.418C233.028 218.882 233.473 219.374 232.905 218.79L228.86 215.56C227.038 214.091 225.482 212.733 223.662 211.285L213.625 202.173C213.238 203.694 212.151 205.331 211.365 207.116C202.183 227.954 195.63 244.363 192.043 267.827C190.544 277.643 190.597 285.153 190.357 295.27Z" fill="#DCFBFC"/>
<path fill-rule="evenodd" clip-rule="evenodd" d="M50.8565 137.854C51.8092 138.665 52.9654 139.126 53.9358 139.831C55.1504 140.715 55.8016 141.19 56.7376 142.128C61.6046 147.009 63.785 154.098 62.6547 160.881C60.5727 173.373 47.766 181.557 35.4409 177.945C30.9567 176.548 28.2153 174.43 25.643 172.045L23.9615 173.467L25.5537 176.014C22.923 178.873 20.066 181.052 18.9433 182.349C16.7598 184.873 14.0504 186.217 12.3044 188.966C12.8607 189.407 13.349 189.995 14.0631 190.548C21.2654 196.12 21.5526 195.163 29.1188 198.567C53.1923 203.789 76.6841 193.305 83.0479 168.469C84.7441 161.849 84.9441 155.548 83.6366 148.761C83.2372 146.687 82.4469 144.758 82.0937 142.878C81.511 142.043 80.8207 141.723 80.068 141.036C79.2732 140.31 79.0356 139.931 78.3423 139.115C77.0663 137.612 76.1085 136.676 74.8985 135.037L73.8068 133.4L75.7116 131.823L75.7319 130.755C74.296 130.201 72.3577 126.827 70.5863 125.832C68.5271 126.04 64.2824 129.649 59.6464 126.48C59.785 122.886 62.7217 122.085 63.9687 120.625L60.3417 118.88C60.1306 120.241 56.7538 126.816 55.8422 128.566C54.7708 130.622 52.0538 136.879 50.8565 137.854Z" fill="#47F2C6"/>
<path fill-rule="evenodd" clip-rule="evenodd" d="M88.5558 108.744L83.8508 130.721L82.6342 129.482C81.2922 129.728 79.8599 131.236 78.727 132.132L74.899 135.037C76.109 136.676 77.0668 137.612 78.3428 139.115C79.0361 139.931 79.2736 140.31 80.0685 141.036C80.8212 141.723 81.5114 142.044 82.0941 142.878C84.3883 144.043 86.1688 145.347 89.204 143.663C89.1487 141.165 90.3511 122.18 90.9566 120.953L91.5251 122.757C91.6063 123.159 91.725 123.94 91.7834 124.362C92.1834 127.245 93.3046 133.602 92.6529 135.22C93.0396 135.651 93.1396 134.993 93.2071 136.617C93.1102 140.785 95.0221 147.56 95.3952 152.336C95.8114 157.66 95.5662 163.466 94.9394 168.715L117.317 168.858C118.302 150.464 118.909 153.475 117.287 134.126C116.85 128.914 115.878 123.146 114.841 118.331L111.401 103.913L110.656 104.048L100.728 104.018L92.0484 103.906C89.0162 104.637 89.2152 105.8 88.5558 108.744Z" fill="#4646E3" stroke="#4646E3" stroke-width="0.0762" stroke-miterlimit="22.9256"/>
<path fill-rule="evenodd" clip-rule="evenodd" d="M145.107 15.0557L141.002 15.6436L118.023 18.1714L114.378 18.8429L101.823 20.5741L100.375 20.9958C94.0943 21.7048 85.372 23.6245 79.0112 25.1241C68.4703 27.6088 69.4834 30.7053 71.8014 40.4771C74.6559 52.5112 79.6081 71.198 81.8064 82.3214C83.0626 85.8532 84.0076 91.2626 84.9984 95.3529C85.5643 97.6886 86.082 99.8222 86.6094 102.101C86.8495 103.137 87.1647 104.331 87.3986 105.318L88.0976 107.962C88.3615 108.546 88.2818 108.393 88.5559 108.744C89.2152 105.8 89.0162 104.637 92.0484 103.906L93.7431 103.804C93.2224 100.345 90.443 91.3391 91.3439 90.1213C89.2878 86.3585 88.4802 83.9614 88.3158 78.7607C87.4205 78.3624 87.7768 78.4156 87.1337 75.4423C86.079 70.5675 80.775 47.8473 80.9572 46.4861C80.8354 40.4153 76.0425 34.0196 80.7501 31.5633C82.2363 30.7879 91.5525 29.1662 94.4887 28.6112L96.6174 27.9078C98.4791 26.6652 128.362 23.0275 133.784 22.2997C140.415 21.4093 146.805 21.3004 153.625 20.6253C166.683 19.3335 203.67 18.9631 216.372 20.2336C226.347 21.2304 235.36 21.3754 246.042 22.6798C248.391 22.9667 254.065 23.3685 255.731 23.9012C256.234 22.7209 256.878 21.536 257.442 20.5457C258.227 19.1653 258.639 18.8921 259.254 18.2525L257.916 18.0458C256.804 18.0964 255.597 17.7681 253.755 17.5162L233.09 15.2848L232.192 15.2113L232.179 15.2103C230.598 15.1191 229.277 15.0121 228.17 14.892C220.185 14.2773 212.106 13.7715 204.018 13.5861C188.59 13.2313 174.851 13.3104 159.518 14.1567C155.159 14.3974 149.143 15.2321 145.107 15.0557Z" fill="#2FB7D6"/>
<path fill-rule="evenodd" clip-rule="evenodd" d="M200.994 295.327L237.052 295.267L237.14 252.025L201.001 252.123L200.994 295.327Z" fill="#00E3E6"/>
<path fill-rule="evenodd" clip-rule="evenodd" d="M250.835 295.315C250.004 295.696 239.448 295.292 237.052 295.267L200.994 295.327L190.357 295.27L187.44 295.281L151.362 295.305L150.822 295.336C144.799 295.066 136.988 295.421 130.654 295.335L128.56 294.989C126.165 295.59 122.266 295.349 119.72 295.172C116.332 294.937 114.226 295.242 111.017 295.285C105.113 295.364 98.7251 295.452 92.8572 295.274C89.3962 295.482 84.7089 295.314 80.7509 295.312C79.0115 295.311 76.1108 294.882 74.8901 295.734C72.9502 297.09 74.1927 299.096 75.788 299.842C81.4864 300.25 101.898 299.906 109.18 299.906L328.233 299.897C332.251 299.897 342.049 300.373 345.388 299.668C345.974 299.297 348.536 295.216 342.462 295.305C340.678 295.331 338.889 295.379 337.108 295.302L300.881 295.315L287.773 295.319C287.052 288.882 287.547 213.112 287.546 197.122L287.61 192.003C287.505 190.957 287.801 192.409 287.499 191.327C287.178 190.18 287.749 191.094 287.047 190.448L287.021 295.284L250.835 295.315Z" fill="#DDDEDD"/>
<path fill-rule="evenodd" clip-rule="evenodd" d="M255.834 106.516L254.412 112.417C253.924 114.872 252.265 121.47 252.436 122.784C252.722 124.997 251.854 122.524 252.677 123.466L260.626 125.066L262.657 125.372L265.632 110.682C266.739 113.146 264.661 123.502 264.231 126.634C263.601 131.224 261.226 134.047 258.471 139.234L258.305 138.529C257.102 140.223 256.525 148.18 255.749 150.95C255.025 153.532 254.366 154.206 253.342 156.181C252.605 157.602 253.138 161.278 252.403 162.765L252.327 169.024C252.371 169.045 268.93 168.949 273.281 168.991L273.781 168.959C276.5 164.498 278.524 160.98 279.529 154.322C280.497 147.913 279.845 141.595 278.341 135.948C275.461 125.131 269.591 115.062 268.43 103.905C266.373 103.937 264.313 103.897 262.257 103.912C257.223 103.952 256.882 105.012 255.834 106.516Z" fill="#47F2C6"/>
<path fill-rule="evenodd" clip-rule="evenodd" d="M226.137 147.503L248.1 147.479L252.598 124.812L252.677 123.466C251.854 122.524 252.722 124.997 252.435 122.783C252.265 121.47 253.923 114.872 254.411 112.417C251.075 112.338 246.663 111.391 243.266 110.936C239.588 110.443 236.168 110.04 232.437 109.669C224.858 108.914 217.567 108.366 209.764 107.868L215.187 116.384C217.135 119.456 218.478 122.205 219.978 125.758C222.842 132.539 225.551 139.612 226.137 147.503Z" fill="#DCFBFC"/>
<path fill-rule="evenodd" clip-rule="evenodd" d="M36.35 134.212L32.2286 115.248L34.8705 114.864L34.0969 112.572C28.1032 113.433 21.512 117.214 17.7008 119.979C5.09559 129.125 -1.51383 145.182 0.925491 161.085C1.4635 164.594 2.70753 167.348 3.32421 170.445L23.3793 162.66C21.9653 155.444 20.6487 151.055 24.5076 144.241C26.8389 140.125 31.1176 135.638 36.35 134.212Z" fill="#4ED5FD"/>
<path fill-rule="evenodd" clip-rule="evenodd" d="M138.66 106.013C135.775 106.157 133.14 105.908 130.322 105.687C129.037 105.398 127.432 105.389 125.83 105.095C124.698 104.888 122.918 104.359 121.773 104.145C119.083 103.642 114.314 103.92 111.401 103.913L114.841 118.331C115.878 123.146 116.849 128.914 117.286 134.126C118.909 153.474 118.302 150.464 117.317 168.858L125.222 168.773C127.575 168.37 125.864 168.173 127.265 168.517C128.095 168.721 127.42 168.844 128.974 168.776L127.341 137.664L125.457 115.95C131.795 116.445 142.441 116.934 148.093 113.344C150.144 112.04 150.613 110.652 152.182 108.781C153.2 106.668 154.69 104.602 155.789 102.35L157.374 98.8597C156.401 97.3323 155.578 97.1037 154.192 96.1292C153.212 95.44 152.032 94.6088 150.965 93.7346C147.159 99.5034 146.31 105.63 138.66 106.013Z" fill="#5C5CED" stroke="#5C5CED" stroke-width="0.0762" stroke-miterlimit="22.9256"/>
<path fill-rule="evenodd" clip-rule="evenodd" d="M121.597 272.398C120.955 273.37 119.544 278.096 118.966 279.682C118.489 280.988 118.079 282.189 117.634 283.448C116.379 287.003 116.934 286.395 115.622 286.269L115.592 288.046C116.916 289.251 119.655 290.642 121.733 291.591C123.728 292.501 127.498 293.064 129.164 294.121L128.56 294.989L130.654 295.335C136.988 295.421 144.799 295.066 150.822 295.336C151.418 292.976 151.203 261.269 151.029 256.712C150.055 257.211 143.447 262.848 137.538 265.85C129.146 270.116 128.547 269.445 121.597 272.398Z" fill="#FEFEFE"/>
<path fill-rule="evenodd" clip-rule="evenodd" d="M300.882 295.315L337.108 295.302L337.096 270.561L300.935 270.461L300.882 295.315Z" fill="#B7F8FA"/>
<path fill-rule="evenodd" clip-rule="evenodd" d="M273.781 168.959L285.977 168.876C285.828 166.577 286.144 153.584 286.743 152.371C286.627 147.619 287.684 140.605 288.267 135.703C288.862 130.705 289.369 124.881 290.374 120.053L292.402 107.201L297.781 122.513C299.41 121.862 300.654 121.063 302.057 120.027L302.737 119.239C301.28 117.571 296.761 109.871 294.755 106.823C293.63 105.113 292.962 104.361 290.6 103.951L280.876 103.859C280.325 104.292 280.74 104.122 279.743 104.303L271.082 104.225C269.938 103.9 271.064 104.527 270.281 103.781L268.43 103.905C269.591 115.062 275.461 125.131 278.341 135.948C279.845 141.594 280.497 147.913 279.529 154.322C278.524 160.98 276.501 164.498 273.781 168.959Z" fill="#3ED5AD" stroke="#3ED5AD" stroke-width="0.0762" stroke-miterlimit="22.9256"/>
<path fill-rule="evenodd" clip-rule="evenodd" d="M245.181 224.649C247.456 224.132 247.526 222.32 250.79 222.349C249.862 220.736 247.965 220.145 246.926 218.598C246.233 217.566 246.664 217.754 246.12 216.796L245.816 217.605C245.288 216.631 245.376 216.984 244.405 216.039L238.186 209.514C237.553 208.79 237.305 208.4 236.727 207.697L234.462 205.225C233.915 204.473 234.053 205.167 233.982 204.023C232.246 203.44 222.966 192.238 222.634 191.47C225.187 191.01 238.803 190.952 241.397 191.343L250.959 191.247C250.985 190.121 251.088 190.654 252.382 190.529C252.92 190.477 254.312 190.568 254.954 190.57C255.481 187.754 261.281 181.682 263.695 179.261C266.358 176.589 271.896 171.924 273.28 168.991L257.85 168.84C256.911 176.175 259.815 180.813 253.944 182.36C247.075 184.17 218.993 179.706 212.606 185.78C208.93 189.277 213.656 194.743 216.436 197.766C217.317 198.725 217.593 199.077 218.543 200.018C219.328 200.796 219.565 201.429 220.271 202.316C221.07 203.316 220.479 202.627 221.386 203.411L231.152 212.889C232.353 213.825 232.497 213.831 233.466 214.915L245.181 224.649Z" fill="#40DCFF"/>
<path fill-rule="evenodd" clip-rule="evenodd" d="M293.96 30.722C288.143 29.8392 263.851 23.963 260.18 25.2837C257.381 29.5407 259.297 37.4907 261.498 41.0255C267.213 50.2004 280.045 52.0364 288.346 44.4711C292.33 40.8395 293.071 37.5616 293.96 30.722Z" fill="#EBFCFD"/>
<path fill-rule="evenodd" clip-rule="evenodd" d="M155.789 102.35C154.69 104.602 153.2 106.668 152.181 108.781C156.633 108.826 161.858 108.145 166.413 107.911C171.125 107.67 175.871 107.485 180.611 107.41C190.399 107.258 200.068 107.332 209.763 107.868C217.567 108.366 224.857 108.913 232.437 109.669C236.168 110.04 239.588 110.443 243.266 110.936C246.662 111.391 251.075 112.338 254.411 112.417L255.833 106.516C251.889 106.309 247.602 105.453 243.761 104.91C235.32 103.715 214.731 101.748 207.224 101.684C198.795 101.611 189.856 101.244 180.983 101.311C176.431 101.346 172.759 101.621 168.215 101.706C164.218 101.783 159.931 102.556 155.789 102.35Z" fill="#2FB7D6"/>
<path fill-rule="evenodd" clip-rule="evenodd" d="M260.179 25.2837C261.014 22.6799 262.857 19.7815 264.874 18.7264C267.469 15.333 274.572 13.3043 280.272 14.6615C285.567 15.9219 289.366 19.1993 291.45 22.9429C291.514 23.0219 291.588 23.1319 291.626 23.1922L292.411 24.7349C293.413 27.3321 293.291 28.2555 293.959 30.722C293.071 37.5616 292.329 40.8395 288.345 44.4711C280.045 52.0364 267.213 50.2003 261.498 41.0255C259.296 37.4907 257.381 29.5407 260.179 25.2837ZM259.964 17.4301C258.872 18.8339 258.49 18.7021 257.441 20.5458C256.878 21.536 256.234 22.7209 255.73 23.9012C255.298 28.3447 254.027 29.6406 254.837 34.862C255.136 36.7883 255.561 38.0106 256.175 39.7469C256.828 41.5946 257.817 42.4886 258.084 43.9451C259.363 44.6612 258.77 44.3302 259.618 45.4497C260.089 46.0721 260.459 46.3782 261.033 46.9584C261.585 47.5189 261.891 47.8869 262.536 48.3708C263.652 49.207 263.307 48.5497 264.048 49.9003C265.303 50.2029 265.808 50.7806 266.89 51.3102C272.216 53.9171 279.33 54.1583 284.968 51.6888C289.945 49.5086 288.472 48.5462 290.591 48.9202C291.295 47.8043 292.483 46.4126 293.585 45.879C293.905 44.3916 295.51 42.6578 296.329 40.8045C297.145 38.9619 298.137 36.7964 297.814 34.7044C298.216 31.2228 298.685 31.4097 297.828 27.3925L297.173 24.9122C295.895 18.6398 288.722 12.1473 281.64 10.3944C273.129 8.28815 262.328 12.4266 259.964 17.4301Z" fill="#8EECF6"/>
<path fill-rule="evenodd" clip-rule="evenodd" d="M245.117 153.383C236.093 164.776 222.309 160.159 223.368 176.312L223.923 177.492C225.036 177.819 226.385 178.352 227.906 178.266C230.059 178.145 231.766 177.166 231.978 176.318L231.521 172.509L231.373 168.866C235.537 165.817 242.565 166.27 251.142 158.744C253.827 156.387 254.364 154.784 255.748 150.95C257.404 145.042 258.952 134.795 260.074 128.334C259.669 126.512 254.286 125.034 252.597 124.812C249.868 138.568 248.373 145.11 247.521 148.31C247.04 150.116 245.717 152.625 245.117 153.383Z" fill="#FEAF84"/>
<path fill-rule="evenodd" clip-rule="evenodd" d="M103.667 275.058C106.441 275.415 108.793 274.713 111.469 274.569C113.009 269.952 114.381 260.733 115.259 255.597C118.982 233.823 117.054 217.284 111.531 195.78C110.407 209.569 110.751 223.787 109.593 237.537C108.502 250.48 105.378 262.537 103.667 275.058Z" fill="#DEF8F9"/>
<path fill-rule="evenodd" clip-rule="evenodd" d="M273.781 168.959L273.28 168.991C271.897 171.924 266.359 176.589 263.695 179.261C261.282 181.682 255.482 187.754 254.955 190.57L285.082 190.561C287.433 182.718 286.609 181.112 287.041 173.104C285.08 173.948 281.036 173.569 278.297 173.605C274.891 173.649 276.127 173.509 275.556 173.102C276.183 172.662 275.162 172.846 276.825 172.588L286.767 172.691L286.317 168.876H285.976L273.781 168.959Z" fill="#2FB7D6" stroke="#2FB7D6" stroke-width="0.0762" stroke-miterlimit="22.9256"/>
<path fill-rule="evenodd" clip-rule="evenodd" d="M34.8707 114.864L32.2289 115.248L36.3502 134.212L37.0136 136.236C39.4463 135.919 41.9993 135.664 44.6112 136.042C47.215 136.42 48.8189 137.402 50.8568 137.854C52.0541 136.879 54.771 130.622 55.8425 128.566C56.7541 126.816 60.1309 120.241 60.342 118.88C59.2391 117.516 51.7257 115.485 49.2255 115.033C44.4798 114.175 39.6382 114.089 34.8707 114.864Z" fill="#00E3E6"/>
<path fill-rule="evenodd" clip-rule="evenodd" d="M35.4407 177.945C47.7657 181.557 60.5725 173.374 62.6545 160.881C63.2397 157.368 62.9209 150.037 60.5537 148.059L60.7034 149.014C59.0955 149.73 54.5011 153.303 52.8332 154.69C46.9557 159.58 37.3918 170.911 35.4407 177.945Z" fill="#DEF8F9"/>
<path fill-rule="evenodd" clip-rule="evenodd" d="M251.995 172.655L252.024 176.377L252.014 177.171C251.661 177.451 251.977 177.54 250.26 177.674L237.477 177.572C228.266 177.576 230.137 179.32 223.924 177.492C222.619 178.14 220.385 177.826 218.789 177.589C218.83 178.278 215.439 178.401 214.57 178.578C210.22 179.46 206.058 182.068 205.623 187.282C205.246 191.798 208.449 196.168 211.055 199.121C215.255 203.462 219.076 207.122 223.662 211.285C225.482 212.733 227.038 214.091 228.86 215.56L232.905 218.79C234.936 220.882 235.066 220.575 238.46 223.071C241.802 225.321 241.971 226.548 243.618 226.238L244.04 225.516C243.592 224.534 240.664 222.825 239.643 221.926C239.152 221.494 239.084 221.321 238.512 220.861C237.044 219.68 231.465 215.468 230.385 214.057C228.78 211.963 230.164 213.447 228.145 211.902C226.081 210.323 221.227 205.22 219.656 203.261C219.1 202.567 215.836 199.633 213.645 196.512C212.702 195.169 210.782 192.736 210.326 191.05C207.273 179.755 226.565 181.537 234.561 181.537C239.832 181.537 246.629 181.914 251.712 181.522C254.379 181.316 256.282 180.449 256.549 177.816C256.776 175.578 256.729 170.978 256.474 168.838C255.339 169.124 253.355 169.144 252.357 168.681L251.995 172.655Z" fill="#4ED5FD"/>
<path fill-rule="evenodd" clip-rule="evenodd" d="M295.774 125.454C297.184 128.799 302.167 135.024 301.318 137.112C300.4 139.367 288.669 150.793 286.742 152.371C286.143 153.584 285.827 166.577 285.976 168.876H286.317L286.24 164.348C288.313 165.132 289.199 166.56 292.152 166.145C292.861 165.346 294.679 162.705 294.279 160.827C293.873 158.925 291.596 158.224 290.116 157.164C296.12 152.34 302.462 147.882 307.123 142.549C312.033 136.93 309.584 133.316 305.495 125.94C305.031 125.105 304.595 124.367 304.024 123.404C303.335 122.24 303.302 121.875 302.299 120.944C301.536 122.14 300.325 122.807 299.135 123.689C298.182 124.393 297.016 125.497 295.774 125.454Z" fill="#FEAF84" stroke="#FEAF84" stroke-width="0.0762" stroke-miterlimit="22.9256"/>
<path fill-rule="evenodd" clip-rule="evenodd" d="M268.445 93.1879L268.321 93.4423C271.552 94.6266 277.806 97.9851 283.758 93.3982C285.413 92.1226 286.037 90.9215 287.169 89.9956L287.303 89.466L287.663 88.7327C288.419 86.103 288.965 84.7565 289.249 81.6879L288.78 77.3362C287.493 73.7978 286.609 70.3669 283.731 68.9514C282.407 70.6638 278.119 72.0312 273.989 78.8935C269.959 85.5897 270.59 87.2514 268.445 93.1879Z" fill="#4847E0" stroke="#4847E0" stroke-width="0.0762" stroke-miterlimit="22.9256"/>
<path fill-rule="evenodd" clip-rule="evenodd" d="M260.481 65.2584C259.661 66.3475 259.247 67.3287 259.309 69.3816C260.025 71.6642 260.347 72.1218 262.11 73.2545L262.878 73.6533C261.274 77.7771 260.776 80.7063 262.414 85.2466C263.633 88.6243 265.98 91.8596 268.446 93.1879C270.591 87.2514 269.96 85.5897 273.99 78.8935C278.12 72.0311 282.408 70.6638 283.732 68.9514C282.164 67.1396 284.119 65.0344 276.474 65.111C274.724 65.1282 273.094 65.2635 271.383 65.4839C266.876 66.0642 268.823 65.4181 267.327 64.6158L261.106 67.018L260.481 65.2584Z" fill="#5252FE" stroke="#5252FE" stroke-width="0.0762" stroke-miterlimit="22.9256"/>
<path fill-rule="evenodd" clip-rule="evenodd" d="M88.3155 78.7607C88.4799 83.9613 89.2874 86.3584 91.3436 90.1213C92.9708 93.0627 94.8873 94.7072 97.7028 96.2722C102.818 96.563 104.957 95.105 107.793 93.05L107.659 92.6861C105.649 87.973 103.932 83.2178 101.749 78.6416C100.665 76.3692 99.5538 74.1525 98.4326 72.0924C97.7763 70.8858 95.7304 66.5801 94.7412 66.2132C90.8269 67.4361 92.0689 71.4468 91.7044 72.4122C91.4141 73.181 88.9017 74.7698 88.3155 78.7607Z" fill="#D9772E" stroke="#D9772E" stroke-width="0.0762" stroke-miterlimit="22.9256"/>
<path fill-rule="evenodd" clip-rule="evenodd" d="M222.096 172.351L223.326 172.567C223.73 169.577 225.656 166.874 227.152 165.324C229.086 163.319 242.103 159.013 246.239 151.733L218.26 151.672C214.544 152.643 216.555 156.312 218.126 161.863C219.05 165.126 220.243 171.646 222.096 172.351Z" fill="#DCFBFC"/>
<path fill-rule="evenodd" clip-rule="evenodd" d="M288.78 77.3361L289.249 81.6878C290.152 82.742 290.511 84.0342 290.035 85.8424C289.607 87.4713 288.989 88.2036 287.663 88.7327L287.303 89.466C287.52 93.2162 285.759 92.6673 284.977 96.1444C284.417 98.6378 283.923 101.063 283.339 103.625L280.568 103.954L280.875 103.859L290.6 103.951C289.605 102.882 290.198 102.482 290.996 99.1618C293.702 87.9122 297.258 74.2969 299.592 63.3316C300.173 60.6025 300.146 61.198 300.837 61.1782C299.649 59.6883 298.552 58.732 297.514 57.4807C296.426 56.1687 295.463 55.2686 294.312 54.0559C294.216 56.1768 293.614 58.3671 293.163 60.2523L290.465 72.1248C289.806 75.0277 290.021 76.8176 288.78 77.3361Z" fill="#2FB7D6"/>
<path fill-rule="evenodd" clip-rule="evenodd" d="M107.658 92.6861L107.792 93.05C108.135 94.618 108.703 95.8627 109.238 97.3607C109.798 98.9252 109.703 101.078 110.246 102.17L110.176 100.334C116.677 100.6 119.448 97.7976 121.173 92.6365C123.074 86.9508 122.975 81.624 120.689 76.3281L120.433 75.31C120.346 75.3713 120.241 75.4584 120.179 75.503C119.083 76.2982 118.508 76.6696 117.078 76.849C115.558 77.0391 114.242 76.7421 112.767 76.5957L112.763 81.1198C108.099 77.6549 105.006 85.3114 110.199 89.0358C109.974 90.4968 108.661 91.9791 107.658 92.6861Z" fill="#FEAF84"/>
<path fill-rule="evenodd" clip-rule="evenodd" d="M233.982 204.023C234.053 205.167 233.915 204.473 234.462 205.225L236.727 207.697C237.305 208.4 237.553 208.79 238.186 209.514L244.405 216.039C245.376 216.984 245.289 216.631 245.816 217.605L246.12 216.796C246.779 213.898 246.128 210.505 246.908 207.624C247.612 205.028 249.542 202.669 250.949 201.534L250.959 191.247L241.397 191.343C239.965 193.095 238.281 194.736 236.918 196.933C235.857 198.644 233.921 201.803 233.982 204.023Z" fill="#39D2F3"/>
<path fill-rule="evenodd" clip-rule="evenodd" d="M16.3092 66.9329C19.9134 67.9201 51.8469 67.4533 57.7554 67.2506L57.7047 61.1383L17.5903 61.0744L16.3747 61.1261L16.3092 66.9329Z" fill="#00E3E6"/>
<path fill-rule="evenodd" clip-rule="evenodd" d="M12.304 188.966C14.05 186.218 16.7594 184.873 18.9429 182.349C20.0656 181.052 22.9226 178.873 25.5533 176.014L23.9611 173.467L21.3401 169.422C18.1374 170.06 6.68484 175.441 1.5722 177.024C2.31781 180.656 7.669 188.766 10.0799 190.498L12.304 188.966Z" fill="#F9DACD"/>
<path fill-rule="evenodd" clip-rule="evenodd" d="M286.743 152.371C288.67 150.793 300.401 139.367 301.318 137.112C302.167 135.024 297.185 128.799 295.775 125.454C295.68 125.377 295.402 125.123 295.328 125.076C294.328 124.452 296.41 125.224 294.339 124.61C293.88 125.138 294.429 124.79 293.512 125.08C293.08 124.079 291.082 120.834 290.374 120.053C289.369 124.881 288.862 130.705 288.267 135.703C287.684 140.605 286.627 147.619 286.743 152.371Z" fill="#DEF8F9"/>
<path fill-rule="evenodd" clip-rule="evenodd" d="M223.369 176.312L223.159 173.106L222.096 172.351C220.243 171.646 219.05 165.126 218.126 161.863C216.555 156.312 214.544 152.643 218.26 151.672C220.695 150.361 241.469 152.236 246.589 151.224L248.082 148.083C242.763 146.916 213.558 148.706 211.787 147.544L210.915 148.036C211.858 149.362 210.956 147.293 211.078 148.661C211.078 148.662 211.07 149.499 211.086 149.76C211.146 150.698 211.242 150.824 211.535 151.779L217.211 171.928C218.569 176.515 218.621 175.992 223.369 176.312Z" fill="#33EDF2"/>
<path fill-rule="evenodd" clip-rule="evenodd" d="M16.2983 58.4476L52.414 58.5556L52.4648 52.3353L16.3429 52.3591L16.2983 58.4476Z" fill="#00E3E6"/>
<path fill-rule="evenodd" clip-rule="evenodd" d="M121.961 73.8312C120.85 74.6907 121.52 74.669 120.434 75.3101L120.69 76.3282C121.34 76.0844 120.48 75.945 121.421 76.4701C121.755 76.6566 122.009 76.9333 122.185 77.1111C125.485 80.4539 128.419 85.0195 136.471 84.6592L137.718 95.1101C138.107 98.8634 137.851 97.7677 138.703 98.2771C139.79 97.7829 139.37 98.2421 139.555 97.0451L138.158 84.6683C140.174 83.0851 143.655 83.3593 147.55 76.424C154.456 64.1273 157.123 45.956 170.048 45.9028C187.301 45.8318 188.426 80.9404 204.677 81.769L204.751 80.2674C189.348 79.1099 188.912 44.4929 170.048 44.4154C150.755 44.3363 151.826 81.0696 137.947 82.6665L137.244 78.5854L136.152 78.6467C135.542 79.7226 136.166 81.7189 136.232 83.1759C128.58 83.6224 122.184 75.6435 121.961 73.8312Z" fill="#E6EAFD"/>
<path fill-rule="evenodd" clip-rule="evenodd" d="M237.904 237.165C239.466 240.554 240.821 245.691 242.257 249.461C243.16 251.83 245.863 260.1 247.032 261.447C247.477 259.95 249.918 256.516 250.911 255.841L250.934 249.499C249.742 246.924 248.165 235.523 247.71 231.948C246.471 232.281 238.72 236.492 237.904 237.165Z" fill="#39D2F3"/>
<path fill-rule="evenodd" clip-rule="evenodd" d="M260.179 25.2837C263.85 23.963 288.142 29.8392 293.959 30.722C293.291 28.2555 293.413 27.3321 292.411 24.7348L292.387 24.6887C285.574 23.1491 275.532 20.981 264.303 19.0765C262.515 20.3318 260.935 22.9286 260.179 25.2837Z" fill="#2FB7D6"/>
<path fill-rule="evenodd" clip-rule="evenodd" d="M295.94 48.1625C295.285 49.7827 293.87 50.548 292.875 51.669C292.864 51.7486 292.752 52.2204 293 52.6354C293.355 53.2299 294.133 53.8345 294.313 54.056C295.463 55.2687 296.427 56.1687 297.514 57.4808C298.552 58.7321 299.649 59.6884 300.837 61.1783C302.298 62.2765 306.224 67.1741 307.617 68.4983C308.872 69.6898 309.579 71.1372 311.834 71.1635C315.157 71.2021 318.13 67.1315 313.517 63.3291L302.436 53.0779C301.987 52.753 302.157 52.8838 301.755 52.5392C299.579 50.6722 297.661 47.8554 295.94 48.1625Z" fill="#00E3E6"/>
<path fill-rule="evenodd" clip-rule="evenodd" d="M298.088 32.7689C298.864 33.2691 298.716 33.7141 297.836 37.9665C297.531 39.4357 296.241 46.5124 295.423 47.4804C295.802 48.0997 295.178 47.6279 295.94 48.1625C297.661 47.8554 299.579 50.6721 301.755 52.5391C302.157 52.8837 301.987 52.753 302.436 53.0778C302.213 50.9711 305.472 38.9096 306.151 36.0803C306.806 33.3573 306.776 31.4011 306.213 29.9436C305.564 28.7785 303.93 27.3048 299.891 26.4042C299.245 26.2603 298.411 26.0682 297.418 25.8396L297.827 27.3924C298.255 30.5826 298.277 31.4462 298.088 32.7689Z" fill="#2FB7D6"/>
<path fill-rule="evenodd" clip-rule="evenodd" d="M231.522 172.51L251.995 172.655L252.358 168.681L252.403 162.765L252.585 157.73C251.603 158.244 251.992 157.999 251.143 158.744C242.566 166.27 235.537 165.817 231.373 168.866L231.522 172.51Z" fill="#DCFBFC"/>
<path fill-rule="evenodd" clip-rule="evenodd" d="M16.3092 75.6672C17.9192 76.1081 40.9293 76.2084 43.5504 75.9454L43.5768 69.7672L26.9151 69.8782L16.3726 69.8412L16.3092 75.6672Z" fill="#00E3E6"/>
<path fill-rule="evenodd" clip-rule="evenodd" d="M244.04 225.516C245.278 225.026 244.782 225.27 245.182 224.649L233.466 214.915C232.497 213.831 232.354 213.825 231.153 212.889L221.386 203.411C220.479 202.627 221.07 203.316 220.272 202.316C219.566 201.429 219.329 200.796 218.543 200.018C217.593 199.077 217.318 198.725 216.436 197.766C213.656 194.743 208.93 189.277 212.607 185.78C218.994 179.706 247.075 184.17 253.945 182.36C259.815 180.813 256.911 176.175 257.85 168.84L256.474 168.838C256.729 170.979 256.776 175.578 256.549 177.816C256.283 180.449 254.379 181.316 251.712 181.522C246.629 181.914 239.833 181.537 234.561 181.537C226.565 181.537 207.273 179.756 210.326 191.05C210.782 192.736 212.702 195.169 213.646 196.512C215.836 199.633 219.1 202.567 219.656 203.261C221.228 205.22 226.081 210.323 228.145 211.902C230.165 213.447 228.78 211.963 230.385 214.057C231.465 215.468 237.045 219.68 238.512 220.861C239.084 221.321 239.152 221.494 239.643 221.926C240.664 222.825 243.593 224.534 244.04 225.516Z" fill="#30C8EF"/>
<path fill-rule="evenodd" clip-rule="evenodd" d="M264.874 18.7263C268.077 20.682 285.697 21.7006 291.203 23.7212L291.45 22.9428C289.365 19.1991 285.567 15.9217 280.271 14.6613C274.571 13.3042 267.469 15.3328 264.874 18.7263Z" fill="#DDF9FA"/>
<path fill-rule="evenodd" clip-rule="evenodd" d="M117.317 168.858L94.9391 168.715L94.8853 168.988L126.138 169.09C126.395 173.673 125.944 180.783 125.603 185.461C125.268 190.037 127.13 210.168 127.414 217.062C127.618 221.988 128.531 227.997 128.127 232.795C127.329 242.288 124.706 251.343 121.865 260.059C120.851 263.168 114.038 283.853 114.648 285.115C115.965 284.56 118.721 273.688 119.215 272.226C122.885 261.352 129.355 240.633 129.181 230.238C128.927 214.984 126.112 194.885 126.82 181.473L127.179 169.798C127.751 167.91 128.286 168.992 128.705 169.811L129.233 171.303L128.974 168.776C127.42 168.844 128.095 168.721 127.264 168.517C125.864 168.174 127.575 168.37 125.222 168.773L117.317 168.858Z" fill="#89635A"/>
<path fill-rule="evenodd" clip-rule="evenodd" d="M172.053 182.428L172.091 182.797L192.119 182.942L192.198 176.806L171.937 176.758L172.053 182.428Z" fill="#A6F3F9"/>
<path fill-rule="evenodd" clip-rule="evenodd" d="M105.678 291.788C106.048 292.992 105.924 293.861 106.278 295.075C103.661 295.299 101.641 294.866 99.339 294.888C97.3275 294.907 94.9821 295.595 92.857 294.815V295.274C98.7248 295.452 105.113 295.364 111.017 295.286C114.226 295.242 116.331 294.937 119.719 295.172C122.265 295.349 126.165 295.591 128.56 294.989L129.164 294.121C127.498 293.064 123.728 292.501 121.733 291.591C119.655 290.642 116.915 289.251 115.591 288.046L108.964 287.287C108.076 287.985 107.827 288.277 107.242 289.436C106.706 290.497 106.552 291.213 105.678 291.788Z" fill="#4847E0"/>
<path fill-rule="evenodd" clip-rule="evenodd" d="M158.396 148.023L170.412 147.99L173.693 147.993L178.124 147.996L178.134 141.871L175.88 141.801L162.417 141.814L158.36 141.802L158.396 148.023Z" fill="#A6F3F9"/>
<path fill-rule="evenodd" clip-rule="evenodd" d="M152.47 91.6153C154.09 91.9478 155.528 92.9228 157.102 93.7519L156.882 94.842C159.47 91.5383 156.996 88.0932 162.544 86.9777C169.109 85.6591 167.389 84.3085 167.194 78.8458L170.004 76.2546C170.612 75.3961 171.191 75.0013 170.354 74.2026C168.468 75.1189 167.152 76.4867 165.109 77.5485C162.409 78.9502 161.685 78.6132 159.471 80.6657C155.403 84.4367 155.129 86.2033 152.47 91.6153Z" fill="#FEAF84"/>
<path fill-rule="evenodd" clip-rule="evenodd" d="M206.397 80.1802L206.334 81.9063C219.343 80.9156 223.078 64.1014 232.114 54.2049C236.553 49.3433 243.182 46.0148 250.42 51.3685C253.716 53.8061 257.469 62.0545 258.494 66.2325C258.692 67.0403 258.644 67.4878 258.676 67.6626C258.697 67.7782 258.694 67.8659 258.723 67.9844L259.309 69.3816C259.247 67.3287 259.661 66.3475 260.481 65.2584C259.398 64.8561 259.672 64.8561 259.18 63.357C258.874 62.4235 258.652 61.7763 258.301 60.9204C256.398 56.2833 254.333 52.1915 250.208 49.3955C243.118 44.5907 235.408 48.4093 231.463 52.4768C229.376 54.6301 227.547 57.4413 225.868 59.9691C221.943 65.8772 214.818 81.547 206.397 80.1802Z" fill="#E6EAFD"/>
<path fill-rule="evenodd" clip-rule="evenodd" d="M154.296 155.479L154.263 185.844L156.516 185.782L156.514 158.247C156.383 154.091 157.106 135.02 156.198 132.944L154.741 132.866C153.883 134.348 154.292 153.86 154.296 155.479Z" fill="#EEDEE3"/>
<path fill-rule="evenodd" clip-rule="evenodd" d="M12.069 54.4436L12.1522 105.297L14.2936 105.372L14.4169 57.9678L14.4128 52.2888L12.1832 52.3146L12.069 54.4436Z" fill="#EEDEE3"/>
<path fill-rule="evenodd" clip-rule="evenodd" d="M268.229 99.2368C267.969 97.1833 268.588 95.2697 268.321 93.4422L268.445 93.1878C265.979 91.8595 263.631 88.6242 262.413 85.2465C260.775 80.7062 261.273 77.777 262.877 73.6533L262.109 73.2545C260.262 74.7931 259.37 79.1874 258.114 80.1417C256.975 81.0073 256.149 81.2951 255.719 83.2786C255.323 85.1081 255.919 87.004 256.776 87.9684C258.6 90.0169 258.375 87.449 259.68 90.5252C260.329 92.0541 260.866 92.8736 261.832 94.1933C263.367 96.2924 265.384 98.1878 268.229 99.2368Z" fill="#FEAF84" stroke="#FEAF84" stroke-width="0.0762" stroke-miterlimit="22.9256"/>
<path fill-rule="evenodd" clip-rule="evenodd" d="M63.9686 120.625C62.7216 122.085 59.7849 122.886 59.6463 126.48C64.2823 129.649 68.527 126.04 70.5862 125.832L70.3634 125.178L71.7957 124.594C72.384 125.747 74.7558 129.38 75.576 130.218L75.6963 129.177C76.5317 129.024 77.1154 128.696 77.7971 128.274C78.0569 128.113 78.6325 127.695 78.6559 127.68C79.4289 127.19 78.832 127.477 79.7989 127.081C78.7467 125.598 75.1649 120.712 74.0178 119.779C70.5847 116.985 66.9658 122.049 63.9686 120.625Z" fill="#E19A74"/>
<path fill-rule="evenodd" clip-rule="evenodd" d="M233.982 204.024C233.921 201.803 235.857 198.644 236.918 196.933C238.281 194.736 239.965 193.095 241.397 191.343C238.803 190.952 225.187 191.01 222.634 191.47C222.966 192.238 232.246 203.44 233.982 204.024Z" fill="#DDF6F9"/>
<path fill-rule="evenodd" clip-rule="evenodd" d="M103.668 275.058L101.587 285.458C101.015 286.016 102.464 285.813 100.467 285.929C100.255 287.531 100.14 286.676 100.65 288.053C102.123 289.348 103.886 290.484 105.679 291.788C106.554 291.212 106.707 290.497 107.243 289.436C107.829 288.277 108.077 287.985 108.965 287.287L110.448 286.729L110.276 285.963L109.121 285.546L111.469 274.568C108.794 274.712 106.442 275.415 103.668 275.058Z" fill="#F9F9F9"/>
<path fill-rule="evenodd" clip-rule="evenodd" d="M268.321 93.4423C268.588 95.2697 267.969 97.1834 268.229 99.2369L270.997 100.009C271.014 101.37 271.072 102.761 270.28 103.781C271.063 104.527 269.937 103.9 271.081 104.225L279.742 104.303C280.739 104.122 280.325 104.292 280.875 103.859L280.568 103.955L280.693 98.498C283.208 96.3761 286.747 93.8355 287.169 89.9956C286.037 90.9215 285.413 92.1226 283.758 93.3982C277.806 97.9851 271.552 94.6266 268.321 93.4423Z" fill="#E19A74" stroke="#E19A74" stroke-width="0.0762" stroke-miterlimit="22.9256"/>
<path fill-rule="evenodd" clip-rule="evenodd" d="M173.246 156.791L189.787 156.728L189.797 150.605L173.225 150.534L173.246 156.791Z" fill="#A6F3F9"/>
<path fill-rule="evenodd" clip-rule="evenodd" d="M245.181 224.649C244.781 225.27 245.278 225.026 244.039 225.516L243.618 226.238C242.723 228.874 238.732 233.404 237.057 234.561C235.719 236.328 235.07 235.197 234.648 237.503C235.915 237.849 236.535 237.383 237.903 237.165C238.72 236.492 246.471 232.281 247.71 231.948L250.944 230.609L250.89 222.363L250.79 222.349C247.526 222.32 247.456 224.132 245.181 224.649Z" fill="#493029"/>
<path fill-rule="evenodd" clip-rule="evenodd" d="M100.375 20.9958L101.823 20.5741C98.528 17.8076 95.8455 4.42991 89.4391 1.0314C76.8354 -5.65565 75.194 22.284 65.8636 24.3167C56.3524 26.3885 53.8294 7.83097 47.9747 2.39467C47.1748 1.65173 43.9462 -0.665308 42.2423 0.602165C43.7411 2.35413 46.3297 -0.216306 50.5729 7.78737C52.4991 11.4205 53.9436 15.228 55.7428 18.6438C60.9245 28.4845 68.6851 27.324 73.3937 17.986C76.1726 12.4752 79.9808 -1.09355 88.2184 1.53566C92.7931 2.99521 95.712 11.2001 97.7732 15.6446C98.4594 17.1254 100.042 19.5692 100.375 20.9958Z" fill="#C4F6ED"/>
<path fill-rule="evenodd" clip-rule="evenodd" d="M97.7031 96.2723C99.9709 100.232 100.273 94.7139 100.728 104.018L110.656 104.048L110.247 102.17C109.704 101.078 109.799 98.9253 109.239 97.3608C108.704 95.8628 108.136 94.6181 107.793 93.0501C104.957 95.1052 102.819 96.5632 97.7031 96.2723Z" fill="#DD9B74" stroke="#DD9B74" stroke-width="0.0762" stroke-miterlimit="22.9256"/>
<path fill-rule="evenodd" clip-rule="evenodd" d="M92.8572 294.815C94.9824 295.595 97.3278 294.907 99.3392 294.888C101.642 294.866 103.662 295.299 106.279 295.075C105.924 293.861 106.049 292.992 105.678 291.788C103.885 290.484 102.122 289.348 100.649 288.053L94.2586 287.3C93.9236 288.063 90.4935 294.105 92.8572 294.815Z" fill="#3333D4"/>
<path fill-rule="evenodd" clip-rule="evenodd" d="M238.847 98.2821C239.662 90.5678 240.576 82.6316 241.559 74.8595L244.142 53.0023C244.135 52.4788 244.238 52.1428 243.758 51.3624C242.085 51.1323 242.681 50.3022 241.984 56.1343L237.387 96.3047C237.099 98.3936 236.988 98.0703 238.847 98.2821Z" fill="#E4EBF5"/>
<path fill-rule="evenodd" clip-rule="evenodd" d="M247.671 176.351L252.024 176.377L251.995 172.655L231.522 172.509L231.979 176.318L247.671 176.351Z" fill="#33EDF2"/>
<path fill-rule="evenodd" clip-rule="evenodd" d="M24.7108 93.3075L37.2779 93.4884L37.1444 87.2985L24.7478 87.3132L24.7108 93.3075Z" fill="#00E3E6"/>
<path fill-rule="evenodd" clip-rule="evenodd" d="M158.391 156.774L160.936 156.721L162.03 156.728L164.216 156.731L170.511 156.75L170.477 150.573L158.36 150.543L158.391 156.774Z" fill="#A6F3F9"/>
<path fill-rule="evenodd" clip-rule="evenodd" d="M246.12 216.796C246.665 217.754 246.234 217.566 246.927 218.598C247.965 220.145 249.863 220.736 250.791 222.349L250.891 222.363L250.949 201.534C249.543 202.669 247.612 205.028 246.909 207.624C246.129 210.505 246.78 213.898 246.12 216.796Z" fill="#DDF6F9"/>
<path fill-rule="evenodd" clip-rule="evenodd" d="M170.354 74.2027C171.191 75.0014 170.612 75.3962 170.004 76.2547L171.134 94.8248C171.533 95.8698 170.912 95.2789 171.871 95.6676C173.143 95.0863 172.724 95.697 172.51 90.8526L171.39 59.3945C171.31 56.8357 171.636 54.9251 170.413 54.361C169.064 54.9104 169.396 53.2927 169.607 58.8294L170.354 74.2027Z" fill="#E4EBF5"/>
<path fill-rule="evenodd" clip-rule="evenodd" d="M92.0482 103.906L100.728 104.018C100.273 94.7138 99.9706 100.232 97.7029 96.2722C94.8874 94.7073 92.9709 93.0627 91.3437 90.1213C90.4428 91.3391 93.2221 100.345 93.7429 103.804L92.0482 103.906Z" fill="#F6F8FA"/>
<path fill-rule="evenodd" clip-rule="evenodd" d="M247.032 261.447C246.09 271.916 241.609 270.597 241.118 273.672C245.598 274.563 249.007 269.849 250.861 267.679L250.911 255.841C249.918 256.516 247.477 259.95 247.032 261.447Z" fill="#493029"/>
<path fill-rule="evenodd" clip-rule="evenodd" d="M233.962 220.378C233.549 223.727 236.474 231.006 237.058 234.561C238.733 233.404 242.723 228.874 243.618 226.238C241.971 226.548 241.802 225.321 238.461 223.071L235.409 220.827C235.089 220.645 234.801 220.512 234.089 219.934L233.962 220.378Z" fill="#39D2F3"/>
<path fill-rule="evenodd" clip-rule="evenodd" d="M290.373 120.052C291.081 120.834 293.079 124.079 293.511 125.08C294.428 124.79 293.879 125.138 294.338 124.61C294.43 124.548 294.575 124.361 294.628 124.444L296.216 123.643C296.786 123.334 297.298 123.011 297.781 122.513L292.401 107.201L290.373 120.052Z" fill="#29C69D" stroke="#29C69D" stroke-width="0.0762" stroke-miterlimit="22.9256"/>
<path fill-rule="evenodd" clip-rule="evenodd" d="M260.626 125.066L260.075 128.334L258.305 138.529L258.471 139.234C261.226 134.047 263.601 131.224 264.231 126.634C264.661 123.502 266.739 113.146 265.632 110.682L262.657 125.372L260.626 125.066Z" fill="#32E4B4" stroke="#32E4B4" stroke-width="0.0762" stroke-miterlimit="22.9256"/>
<path fill-rule="evenodd" clip-rule="evenodd" d="M158.385 183.035L166.79 182.921L166.875 176.785L158.392 176.752L158.385 183.035Z" fill="#A5F2FA"/>
<path fill-rule="evenodd" clip-rule="evenodd" d="M89.2033 143.663C91.4538 142.212 92.1633 139.961 92.3471 136.621L92.6521 135.22C93.3038 133.602 92.1826 127.245 91.7827 124.362C91.7243 123.94 91.6055 123.159 91.5243 122.757L90.9559 120.953C90.3504 122.18 89.148 141.165 89.2033 143.663Z" fill="#2020B6"/>
<path fill-rule="evenodd" clip-rule="evenodd" d="M158.398 159.987L158.377 165.551L162.598 165.404L166.28 165.419L166.322 159.412L159.797 159.223C157.877 159.409 158.644 158.887 158.398 159.987Z" fill="#A6F3F9"/>
<path fill-rule="evenodd" clip-rule="evenodd" d="M114.377 18.8429L118.023 18.1714C116.558 18.0143 117.409 18.2404 116.88 17.7539C119.814 13.8465 121.832 2.99473 127.88 1.43738C132.344 0.287986 135.102 3.65913 136.719 6.21384C137.782 7.89231 140.593 13.6317 141.002 15.6436L145.107 15.0557L142.147 15.3745C139.81 9.72585 135.549 -2.25962 127.126 0.659975C123.73 1.83673 121.475 5.9716 120.029 8.89627L116.351 16.8731C115.503 18.5521 115.648 17.8253 114.377 18.8429Z" fill="#C4F6ED"/>
<path fill-rule="evenodd" clip-rule="evenodd" d="M112.174 64.41L115.374 65.2574C113.224 62.6388 109.866 58.3545 107.384 56.6162C104.472 54.5769 102.508 53.1863 98.6202 52.9522C94.5932 52.7104 95.3733 53.4498 95.2038 53.7351C95.7398 54.771 95.2373 54.4061 98.2456 54.4426C104.16 54.5141 110.873 61.0617 112.174 64.41Z" fill="#E6EAFD"/>
<path fill-rule="evenodd" clip-rule="evenodd" d="M247.71 231.948C248.166 235.523 249.742 246.924 250.934 249.499L250.945 230.609L247.71 231.948Z" fill="#DDF6F9"/>
<path fill-rule="evenodd" clip-rule="evenodd" d="M16.3229 93.343L21.6482 93.4646L21.6086 87.3487L16.3706 87.3092L16.3229 93.343Z" fill="#00E3E6"/>
<path fill-rule="evenodd" clip-rule="evenodd" d="M218.789 177.589C220.385 177.826 222.619 178.14 223.924 177.492L223.368 176.312C218.621 175.992 218.569 176.515 217.211 171.928L211.534 151.779C211.241 150.824 211.146 150.698 211.085 149.76C211.069 149.499 211.078 148.662 211.078 148.661C210.956 147.293 211.857 149.363 210.914 148.036C208.864 148.575 210.669 152.465 211.549 155.659L218.216 176.374C218.25 176.45 218.301 176.687 218.335 176.767C218.667 177.557 217.642 176.647 218.789 177.589Z" fill="#14C9E0"/>
<path fill-rule="evenodd" clip-rule="evenodd" d="M287.169 89.9957C286.747 93.8356 283.208 96.3761 280.693 98.498L280.568 103.955L283.339 103.625C283.923 101.063 284.417 98.6379 284.977 96.1445C285.759 92.6674 287.52 93.2163 287.303 89.4661L287.169 89.9957Z" fill="#F9F9F7"/>
<path fill-rule="evenodd" clip-rule="evenodd" d="M204.215 94.5269C204.514 96.2089 205.786 96.6402 205.902 93.487C206.55 75.9831 207.253 58.2547 207.942 40.6104C207.904 39.8234 208.124 37.8621 207.59 37.2864C207.1 36.7578 206.229 36.9585 206.193 38.9684C206.181 38.9213 206.185 39.5072 206.143 39.5908C206.699 43.5397 205.753 53.2279 205.584 57.7687C205.129 70.0217 204.653 82.2733 204.215 94.5269Z" fill="#F25E46"/>
<path fill-rule="evenodd" clip-rule="evenodd" d="M80.4263 127.968L79.7304 128.669L78.2448 129.569C77.9088 130.02 77.8931 130.068 77.5941 130.44C76.2293 131.057 76.7988 130.979 75.7324 130.755L75.7121 131.823L73.8073 133.4L74.899 135.037L78.727 132.132C79.8599 131.236 81.2922 129.728 82.6342 129.482L80.4263 127.968Z" fill="#D7A59A"/>
<path fill-rule="evenodd" clip-rule="evenodd" d="M130.322 105.687C133.139 105.908 135.775 106.158 138.659 106.013C141.674 105.862 143.397 105.516 144.516 103.608C142.651 103.527 139.373 104.067 137.32 104.352C136.445 104.473 134.867 104.666 133.767 104.799C131.848 105.032 131.863 104.813 130.322 105.687Z" fill="#2FB7D6"/>
<path fill-rule="evenodd" clip-rule="evenodd" d="M252.598 124.812C254.22 125.026 255.127 125.629 256.717 126.244C257.334 126.483 257.917 126.682 258.572 126.941C260.074 127.532 259.789 127.049 260.074 128.334L260.625 125.066L252.677 123.466L252.598 124.812Z" fill="#6FEDD1" stroke="#6FEDD1" stroke-width="0.0762" stroke-miterlimit="22.9256"/>
<path fill-rule="evenodd" clip-rule="evenodd" d="M150.966 93.7347C152.032 94.6089 153.213 95.44 154.192 96.1292C155.578 97.1038 156.401 97.3323 157.375 98.8598L158.229 97.9623C157.74 96.1905 157.289 96.8007 156.666 95.6057C155.882 94.9748 155.275 94.6378 154.489 94.0261C153.64 93.3662 154.218 93.7458 153.437 93.2562C152.999 92.9821 152.704 92.8605 152.15 92.5113C150.716 92.3983 151.219 92.8949 150.966 93.7347Z" fill="#F4CEB5"/>
<path fill-rule="evenodd" clip-rule="evenodd" d="M293.585 45.879L295.423 47.4804C296.242 46.5125 297.532 39.4357 297.836 37.9665C298.717 33.7141 298.548 35.1762 297.814 34.7044C298.137 36.7964 297.146 38.9618 296.329 40.8045C295.51 42.6578 293.905 44.3916 293.585 45.879Z" fill="#EDF4F7"/>
<path fill-rule="evenodd" clip-rule="evenodd" d="M100.453 34.4524L100.434 36.29C101.311 36.8049 101.477 36.8394 102.081 37.522C104.33 36.8475 104.623 36.883 104.624 34.3283C103.908 33.9294 103.733 33.8468 103.151 33.222L102.165 33.2123C101.017 33.414 101.124 33.5919 100.453 34.4524Z" fill="#52D4FB"/>
<path fill-rule="evenodd" clip-rule="evenodd" d="M109.828 36.0366L111.371 35.9586C112.075 35.6423 112.348 35.5744 112.652 34.9653C113.241 33.7819 112.872 33.5508 112.438 32.8464L111.883 32.185C109.063 31.8961 108.715 32.2848 108.578 34.9394C109.123 35.9048 108.607 35.5257 109.828 36.0366Z" fill="#4DD3FB"/>
<path fill-rule="evenodd" clip-rule="evenodd" d="M92.3029 36.5789C92.6907 39.1326 94.4022 38.9623 96.2608 38.2883C96.537 36.6569 96.5263 37.0056 96.2532 35.3048L94.2372 34.7504C92.9171 35.092 92.7039 35.2709 92.3029 36.5789Z" fill="#52D4FB"/>
<path fill-rule="evenodd" clip-rule="evenodd" d="M297.781 122.513C297.299 123.011 296.787 123.335 296.217 123.643L294.629 124.444C294.576 124.361 294.431 124.548 294.339 124.61C296.409 125.224 294.327 124.452 295.328 125.076C295.402 125.123 295.68 125.377 295.775 125.454C297.016 125.497 298.183 124.393 299.135 123.689C300.326 122.808 301.537 122.14 302.3 120.944L302.057 120.027C300.654 121.063 299.41 121.862 297.781 122.513Z" fill="#51D4C9" stroke="#51D4C9" stroke-width="0.0762" stroke-miterlimit="22.9256"/>
<path fill-rule="evenodd" clip-rule="evenodd" d="M286.952 173.168C287.323 172.329 286.98 172.927 286.679 172.754L276.736 172.651C275.073 172.909 276.094 172.725 275.468 173.166C276.039 173.572 274.802 173.712 278.208 173.668C280.948 173.632 284.992 174.011 286.952 173.168Z" fill="#40DCFF" stroke="#40DCFF" stroke-width="0.0762" stroke-miterlimit="22.9256"/>
<path fill-rule="evenodd" clip-rule="evenodd" d="M94.2583 287.3L100.648 288.053C100.138 286.676 100.254 287.53 100.466 285.929L95.374 285.892L95.3034 286.961C93.2752 286.736 94.9517 286.825 94.2583 287.3Z" fill="#E3DAD8"/>
<path fill-rule="evenodd" clip-rule="evenodd" d="M108.965 287.287L115.592 288.045L115.622 286.269L110.276 285.963L110.447 286.729L108.965 287.287Z" fill="#E3DAD8"/>
<path fill-rule="evenodd" clip-rule="evenodd" d="M94.2381 173.84L94.8568 172.643L102.627 172.681C103.944 172.692 104.338 172.821 105.211 172.375C104.507 171.893 104.363 171.938 103.001 171.938L94.4705 171.915C93.796 172.2 94.3 171.681 93.8843 172.375C94.2528 173.137 94.1518 172.718 94.2381 173.84Z" fill="#89635A"/>
<path fill-rule="evenodd" clip-rule="evenodd" d="M287.663 88.7328C288.989 88.2037 289.607 87.4714 290.035 85.8426C290.511 84.0343 290.151 82.7421 289.248 81.688C288.965 84.7565 288.419 86.1031 287.663 88.7328Z" fill="#2FB7D6" stroke="#2FB7D6" stroke-width="0.0762" stroke-miterlimit="22.9256"/>
<path fill-rule="evenodd" clip-rule="evenodd" d="M152.15 92.5114C152.704 92.8606 152.999 92.9822 153.437 93.2563C154.218 93.7459 153.64 93.3663 154.489 94.0262C155.275 94.6379 155.882 94.9749 156.666 95.6058L156.882 94.8421L157.103 93.752C155.528 92.9229 154.09 91.9478 152.471 91.6154L152.15 92.5114Z" fill="#EE926D"/>
<path fill-rule="evenodd" clip-rule="evenodd" d="M70.5864 125.832C72.3578 126.827 74.2962 130.201 75.7321 130.755L75.5763 130.218C74.7561 129.38 72.3842 125.747 71.7959 124.594L70.3636 125.178L70.5864 125.832Z" fill="#F3F3F3"/>
<path fill-rule="evenodd" clip-rule="evenodd" d="M75.5757 130.218L75.7316 130.755C76.7979 130.979 76.2285 131.057 77.5933 130.44C77.8922 130.068 77.908 130.019 78.244 129.568L79.7296 128.669L80.4255 127.967L80.0849 127.531L79.7986 127.081C78.8317 127.477 79.4286 127.19 78.6556 127.68C78.6322 127.695 78.0567 128.113 77.7968 128.274C77.1152 128.696 76.5315 129.024 75.696 129.177L75.5757 130.218Z" fill="#D88F5A"/>
<path fill-rule="evenodd" clip-rule="evenodd" d="M95.3745 285.893L100.467 285.929C102.463 285.813 101.014 286.016 101.586 285.458L94.1376 285.545L94.2127 281.433L93.8721 283.734C93.8452 284.858 93.7538 284.722 93.967 285.84L95.3745 285.893Z" fill="#909292"/>
<path fill-rule="evenodd" clip-rule="evenodd" d="M206.098 39.2335C206.141 39.1493 206.181 38.9213 206.194 38.9684L206.42 38.0729C206.99 36.8906 205.646 37.5241 207.59 37.2864L207.972 38.7916C207.983 39.3921 207.908 39.9019 207.943 40.6104C208.318 39.8011 208.484 38.263 208.2 37.1131L206.229 36.9585L206.098 39.2335Z" fill="#F4CEB5"/>
<path fill-rule="evenodd" clip-rule="evenodd" d="M92.3475 136.621L93.2069 136.617C93.1394 134.993 93.0394 135.651 92.6526 135.22L92.3475 136.621Z" fill="#D7A59A"/>
<path fill-rule="evenodd" clip-rule="evenodd" d="M102.081 37.5221C101.477 36.8394 101.311 36.805 100.434 36.2901L102.081 37.5221Z" fill="#D8D5AF"/>
<path fill-rule="evenodd" clip-rule="evenodd" d="M104.625 34.3283L103.152 33.2219C103.734 33.8468 103.909 33.9294 104.625 34.3283Z" fill="#D8D5AF"/>
<path fill-rule="evenodd" clip-rule="evenodd" d="M94.7406 66.2133C95.7298 66.5802 97.7758 70.8858 98.432 72.0925C99.5532 74.1526 100.664 76.3692 101.748 78.6417C103.931 83.2179 105.648 87.9731 107.658 92.6862C108.661 91.9792 109.974 90.4969 110.199 89.0359C105.006 85.3115 108.099 77.655 112.763 81.1199L112.767 76.5958C114.242 76.7422 115.558 77.0392 117.078 76.8491C122.193 76.2076 123.122 71.0678 123.109 66.6896C120.85 67.7138 117.251 66.7662 115.374 65.2575L112.174 64.4101C107.761 63.6444 97.4809 63.0063 94.7406 66.2133Z" fill="#F78933" stroke="#F78933" stroke-width="0.0762" stroke-miterlimit="22.9256"/>
<path fill-rule="evenodd" clip-rule="evenodd" d="M290.592 48.9202L290.547 49.0565C290.704 50.068 291.631 51.108 292.875 51.669C293.87 50.548 295.285 49.7827 295.941 48.1625C295.667 47.9709 295.454 47.3329 295.032 46.8971C294.603 46.4531 293.962 46.2079 293.585 45.879C292.483 46.4126 291.296 47.8042 290.592 48.9202Z" fill="#6FEDD1"/>
</svg>
