<svg width="1440" height="3916" viewBox="0 0 1440 3916" fill="none" xmlns="http://www.w3.org/2000/svg">
<path fill-rule="evenodd" clip-rule="evenodd" d="M793.803 236.273C945 193 1017.31 212.055 1024.19 352.297C1029.02 450.652 964.055 574.848 940.463 608.352C932.076 629.749 900.471 692.033 887.913 719.702C870.421 758.244 852.018 794.254 836.428 832.69C803.722 913.324 779.376 1008.17 781.821 1107.2C786.691 1304.4 886.111 1515.11 857.773 1680.73C844.899 1755.97 797.171 1843.45 751.128 1902.87C726.271 1934.95 708.021 1951.03 680.295 1975.79C651.359 2001.64 606.268 2028.71 565.677 2047.52C487.556 2083.72 393.692 2102.34 296.066 2107.17C204.952 2111.67 119.589 2105.82 32.1405 2083.33C21.4689 2080.58 10.3251 2076.67 0 2074.2V3916H1440V3613.17L1409.37 3637.03C1398.8 3644.72 1388.75 3651.48 1377.17 3658.89C1303.46 3706.01 1213.58 3725.98 1122.56 3728.97C1045.22 3731.52 1007.05 3724.36 936.126 3698.81C873.966 3676.41 811.396 3637.94 764.643 3598.91C759.64 3594.73 755.143 3591.43 750.469 3586.62C745.727 3581.75 742.214 3579.9 736.051 3573.43C727.198 3564.14 718.614 3556.02 708.886 3546.56C687.108 3525.38 655.211 3477.17 640.288 3453.02C626.439 3430.61 613.879 3408.02 601.27 3383.93C544.639 3275.69 519.751 3177.34 496.291 3055.51C467.014 2903.47 451.492 2732.44 533.997 2597.58C541.414 2585.45 548.279 2576.42 556.341 2565.88C564.321 2555.45 572.972 2546.74 581.994 2537.48C600.425 2518.58 618.285 2504.19 641.229 2488.61C659.33 2476.32 688.477 2458.56 712.442 2450.52C904.987 2385.94 1164.56 2436.2 1358.56 2500.51L1440 2528.72V0H627.382C586 104.5 641 264.5 793.803 236.273Z" fill="#DCFBFC"/>
</svg>
