<svg xmlns="http://www.w3.org/2000/svg" id="Слой_1" viewBox="-39 57 71.147387 76.877968" width="71.147" height="76.878"><style id="style3">.st0{fill:#0c2a35}.st1{fill:#0098ab}</style><g id="g4148" transform="translate(-5.322 6.835) scale(.88163)"><g id="_x23_38335aff"><path d="M15.1 56.9h2c1.5.6 3.1 1.4 3.6 3.1 7.3 16.7 14.7 33.6 21.8 50.5v1.6c-2.4 4.7-8 2.3-11.7 1.2-.1 1.3-.1 2.6-.2 3.8-.2.2-.5.7-.6.9.1-4-.8-7.7-2.7-11.2 2.8.8 5.5 1.6 8.3 2.3C29.2 94 22.5 79 16.1 63.9l-4.2 7.4c-1-2.3-2-4.5-3-6.7 1.7-2.8 2.7-6.7 6.2-7.7z" class="st0" id="path6" fill="#0c2a35"/><path d="M-14.4 64c1.2-2.7 4.6-4.4 7.3-2.9 2 .7 2.5 3 3.4 4.7l3 6.8c5.5 13 11.3 26 16.7 38.9.9 2.2 2 4.3 3 6.3.2.9.5 2.6.7 3.5-1.6 1.8-3.9 3.7-6.4 2.7-15.7-4.1-31.4-8.5-47-12.5-2-.4-3.5-1.5-4.5-3.3v-1.3c7.4-14.6 15.7-28.7 23.8-42.9m4.3 4.1c-7.2 12.8-14.4 25.7-21.8 38.4 14.8 4.1 29.6 7.9 44.4 11.9-1.7-3.9-3.3-7.7-5.1-11.4-4.8-1.2-9.5-2.5-14.2-3.7-2.2-.4-4.4-2.6-3.5-5 2.6-4.8 5.2-9.4 8.1-14-2.4-5.5-4.8-11-7.1-16.5-.3.1-.6.1-.8.3m6.3 30.4l8.6 2.4C3.7 97.7 1.9 94.1.9 90.8c-2.5 3.5-2.7 4-4.7 7.7z" class="st0" id="path8" fill="#0c2a35"/><path d="M-29.3 131.5h2.4v12.2h-2c-2.7-2.2-4.2-5.4-6.1-8.1-.1 2.7-.1 5.5-.1 8.1h-2.7c-.1-4.1-.1-8.2 0-12.2h3.6c1.7 2.4 3.3 4.7 5.1 6.9-.2-2.1-.2-4.6-.2-6.9z" class="st0" id="path10" fill="#0c2a35"/><path d="M-20.8 131.5c1.3 0 2.7.1 4 .1 1.5 4.1 2.9 8.1 4.5 12.1h-3.6c-.2-.6-.6-2.1-.9-2.7-3.1-.1-3.1 0-4.7 0-.4.9-.9 1.8-1.3 2.8h-2.8c1.7-4.2 3.2-8.3 4.8-12.3m.1 7.4c.7 0 2.7 0 3.4.1-.8-2.2-.8-2.2-1.6-4.3-.8 1.6-.8 1.6-1.8 4.2z" class="st0" id="path12" fill="#0c2a35"/><path d="M-10.7 131.5c2.6 0 5.2-.1 7.8.2 2.6.4 4.5 3.7 2.5 5.8-1.7 2.2-4.7 1.6-7 1.8v4.6h-3.2c-.2-4.3-.1-8.4-.1-12.4m3.1 5.3c2.1.2 2.9 0 4.3-.3.1 0 .1 0 .2-.1.6-.5.4-1.6.3-2.1 0-.1-.1-.2-.2-.3-1.3-.7-3.2-.5-4.7-.6.1 1.5.1 1.5.1 3.4z" class="st0" id="path14" fill="#0c2a35"/><path d="M2.3 143.8c-.1-4.1-.1-8.2-.1-12.2 5.8 0 8.2-.5 10.7 1.4 1.8 2 .3 4.6-1.5 5.8.9 1.6 1.8 3.5 2.7 5.1h-3.6c-1.1-2.1-1.6-3.2-2.4-4.7-.9 0-1.8-.1-2.6-.1v4.8l-3.2-.1m3.3-10c0 .8-.1 2.3-.1 3.1 1.3-.2 3.5.3 4.8-.4 1-.5.8-2-.2-2.3-1.5-.7-3.2-.4-4.5-.4z" class="st0" id="path16" fill="#0c2a35"/><path d="M16.2 134.3c2-3.8 8.3-4.2 10.5-.4 2.4 3.5.8 8.8-3.5 9.9h-3c-4.1-.7-6.1-6-4-9.5m3.7 0c-.5.2-.8.7-.8 1.2-.3 2.5-.8 6.1 2.5 5.9 3 0 2.5-3.7 2.3-5.9 0-.5-.3-.9-.7-1.1h-.1c-.9-.6-2.1-.6-3.2-.1.1 0 0 0 0 0z" class="st0" id="path18" fill="#0c2a35"/><path d="M30 143.8c-.1-4.1-.1-8.2-.1-12.2h3.2c0 1.9-.2 3.4-.1 5.3l5.2-5.2c.3-.3 2.9-.2 3.5-.2l-4.6 5.5 4.8 7h-3.8l-3.1-5.5-1.9 1.8c0 .5 0-.5-.1 3.8l-3-.3z" class="st0" id="path20" fill="#0c2a35"/></g><g id="_x23_6869bbff"><path d="M-3.9 65.8c1.7-2.7 2.9-7 6.8-6.8 3.5-.5 5 2.9 5.9 5.5 1 2.3 2 4.5 3 6.7C16.9 83 22 95 27.1 106.8c1.9 3.5 2.8 7.3 2.7 11.2-3.3 3-7.4.8-11-.1-1-2.2-2-4.3-3-6.3 2.6.7 5.1 1.5 7.7 2.2-6.4-15.7-13.4-31.1-20-46.7-.3-.1-1-.2-1.3-.2C1 68.7 0 70.7-1 72.6c-1-2.4-2-4.5-2.9-6.8z" class="st1" id="path23" fill="#0098ab"/></g></g></svg>