<svg width="758" height="658" viewBox="0 0 758 658" fill="none" xmlns="http://www.w3.org/2000/svg">
<path fill-rule="evenodd" clip-rule="evenodd" d="M409.636 560.763L409.498 640.069L439.971 639.917L439.928 546.944L518.432 546.063L518.05 639.896L546.196 640.635L546.482 584.024C538.924 586.877 539.99 593.989 527.564 592.959C529.897 588.119 533.45 586.486 536.133 581.751C539.183 576.366 539.211 571.553 540.534 565.706C532.293 557.495 527.17 524.357 519.848 514.192L513.339 514.64C515.865 507.913 515.259 511.961 518.298 507.458C516.354 499.337 512.506 491.218 513.075 483.003C508.452 476.66 514.037 477.456 504.472 469.501L480.906 449.123C476.541 445.491 473.345 442.588 468.454 438.826C463.642 453.805 415.565 555.906 409.636 560.763Z" fill="#DCFBFC"/>
<path fill-rule="evenodd" clip-rule="evenodd" d="M201.283 80.2153C202.161 77.3469 202.628 76.9546 205.52 76.2055L209.937 77.4213C210.535 81.151 210.559 80.3864 209.954 83.9639C205.882 85.442 202.132 85.8154 201.283 80.2153ZM219.137 75.5521C220.608 73.665 220.374 73.2749 222.888 72.8326L225.048 72.8537L228.275 75.2798C228.273 80.8821 227.631 80.8043 222.704 82.2835L219.097 79.5818L219.137 75.5521ZM243.055 78.855L239.676 79.0261C237 77.9059 238.131 78.7372 236.937 76.6201C237.237 70.7988 237.999 69.9464 244.177 70.5799L245.393 72.0302C246.345 73.575 247.153 74.0818 245.861 76.6768C245.196 78.0126 244.597 78.1615 243.055 78.855ZM210.733 61.2001L206.07 62.7426C199.637 63.9596 179.228 67.5159 175.972 69.2162C165.659 74.6029 176.159 88.6282 176.426 101.941C176.026 104.926 187.646 154.75 189.957 165.44C191.366 171.96 190.585 171.844 192.546 172.717C193.831 163.965 199.335 160.481 199.971 158.795C200.769 156.678 198.048 147.883 206.623 145.201C212.627 138.169 235.148 139.568 244.816 141.247C241.965 133.905 227.26 119.546 214.303 119.389C207.712 119.309 208.813 120.109 207.639 117.838C208.01 117.212 206.301 115.591 215.123 116.121C223.639 116.634 227.944 119.684 234.323 124.156C239.76 127.968 247.117 137.363 251.827 143.105C255.939 146.414 263.824 148.492 268.773 146.246C268.795 154.102 268.075 155.314 266.255 161.907C266.744 165.881 280.756 183.379 297.521 182.399C297.376 179.204 296.009 174.827 297.345 172.467L299.737 172.333L301.277 181.282C331.683 177.781 329.335 97.2267 371.603 97.4001C412.928 97.5701 413.885 173.483 447.628 176.021C447.583 174.423 447.621 172.851 447.706 171.257C447.729 170.831 447.794 169.319 447.862 168.983C448.169 167.458 448.049 168.198 448.546 167.401C447.209 161.407 449.154 134.761 449.453 126.683C449.823 116.725 451.798 94.6962 450.58 86.0365L450.866 81.0477L455.184 81.3867C455.806 83.9083 455.442 87.2812 454.62 89.056L451.233 175.83C469.681 178.828 485.291 144.465 493.889 131.508C497.568 125.965 501.575 119.8 506.147 115.078C514.789 106.159 531.68 97.7846 547.212 108.321C556.25 114.453 560.772 123.426 564.942 133.595C565.711 135.472 566.197 136.891 566.868 138.938C567.946 142.225 567.345 142.225 569.718 143.108L571.088 146.966L584.715 141.698C587.992 143.458 583.728 144.875 593.602 143.602C597.35 143.119 600.921 142.822 604.754 142.784C621.503 142.616 617.219 147.233 620.654 151.206C626.959 154.31 628.896 161.834 631.716 169.593C634.433 168.456 633.963 164.531 635.406 158.165L641.319 132.13C642.305 127.996 643.624 123.192 643.836 118.541L643 117.506C641.295 115.318 641.655 114.722 640.651 113.566L640.686 113.307L640.674 112.444C638.676 111.059 637.192 109.545 635.584 107.578L635.683 107.279C631.04 106.459 634.267 108.569 623.363 113.35C611.013 118.766 595.427 118.237 583.759 112.52C581.389 111.359 580.283 110.092 577.532 109.428C574.507 107.901 575.826 108.621 573.678 106.6C572.254 105.26 571.644 105.114 570.231 103.667C568.406 101.795 566.073 99.266 564.468 96.3688C563.883 93.1747 561.716 91.2143 560.285 87.1624C558.94 83.3549 558.009 80.6743 557.355 76.45C555.581 64.9998 558.364 62.1581 559.311 52.4138C555.663 51.2457 543.233 50.3645 538.087 49.7355C514.684 46.8748 494.939 46.557 473.085 44.371C445.258 41.5848 364.229 42.3972 335.623 45.23C320.681 46.7104 306.683 46.9493 292.156 48.9019C280.278 50.4978 214.812 58.4751 210.733 61.2001Z" fill="#FDFDFD"/>
<path fill-rule="evenodd" clip-rule="evenodd" d="M194.493 315.043C187.843 318.736 183.943 315.878 178.917 313.323C179.69 317.446 181.422 321.676 182.297 326.225C185.161 341.108 184.723 354.924 181.007 369.443C175.068 392.647 159.194 413.106 140.368 424.612C114.116 440.655 92.6005 441.903 62.8619 435.446C64.7243 442.911 57.7014 475.312 66.5413 507.289C77.5672 547.171 102.363 574.76 140.151 590.123C156.96 596.956 184.142 604.197 205.712 603.488C205.912 565.898 210.116 528.586 210.111 491.333C210.107 475.379 209.901 436.087 208.477 420.377C206.983 403.899 204.45 410.173 205.523 381.221C205.334 378.759 205.555 379.679 204.748 378.007C205.659 376.485 204.554 377.623 206.032 376.999L206.94 370.58L207.057 369.981C208.431 358.47 208.968 345.739 208.056 334.063C207.239 323.59 203.05 308.732 203.262 299.593L201.38 299.602C200.977 306.925 199.423 311.863 194.493 315.043Z" fill="#DDF9FA"/>
<path fill-rule="evenodd" clip-rule="evenodd" d="M522.324 215.527C518.251 215.062 518.494 215.771 519.126 211.19L529.196 123.099C530.723 110.31 529.419 112.13 533.082 112.635C534.134 114.346 533.91 115.083 533.924 116.231L528.264 164.162C526.112 181.206 524.11 198.61 522.324 215.527ZM263.471 167.383C268.478 178.997 268.696 190.678 264.532 203.146C260.751 214.464 254.681 220.609 240.439 220.025L240.593 224.052L241.488 228.17L243.12 227.875C249.502 227.89 259.95 227.281 265.844 228.384C268.351 228.853 272.252 230.013 274.73 230.467C278.239 231.111 281.757 231.131 284.572 231.765C287.95 229.848 287.917 230.33 292.121 229.818C294.529 229.525 297.987 229.103 299.903 228.837C304.402 228.213 311.582 227.028 315.668 227.206C316.593 226.205 317.147 225.483 317.932 224.601L319.635 221.962L321.349 219.818L323.71 215.716L324.197 214.523L326.85 210.025L329.796 205.555C330.35 203.713 329.249 202.624 332.392 202.872L333.093 200.907C338.918 189.039 339.518 185.165 348.43 176.895C353.281 172.394 354.867 173.133 360.782 170.059C365.258 167.731 368.14 164.731 372.272 162.722L370.637 129.009C370.174 116.868 369.447 120.415 372.401 119.211C375.081 120.447 374.367 124.637 374.542 130.248L376.995 199.234C377.465 209.858 378.384 208.518 375.596 209.793C373.494 208.941 374.855 210.237 373.981 207.945L371.505 167.222L365.351 172.904C365.778 184.883 369.544 187.845 355.163 190.737C343.007 193.183 348.429 200.738 342.758 207.983L342.284 209.658C343.649 212.278 344.637 210.94 345.709 214.825L343.837 216.794L340.364 224.449C349.44 224.899 358.83 223.204 367.587 223.036C377.543 222.848 385.586 222.245 395.558 222.169C414.997 222.023 434.581 222.827 453.047 222.986C469.493 223.128 514.599 227.441 533.089 230.061C541.504 231.252 550.896 233.129 559.536 233.583C560.455 233.155 560.315 234.45 560.281 232.826L563.306 229.789C567.484 228.805 567.287 227.923 573.608 227.874C578.113 227.839 582.626 227.928 587.132 227.857L591.186 227.585C592.922 225.349 592.795 222.299 592.758 219.313L586.694 217.62C580.461 215.32 576.042 211.164 572.678 206.56C570.563 203.666 569.386 201.869 567.964 198.516C565.105 191.77 565.599 197.402 561.603 192.91C559.724 190.795 558.42 186.637 559.287 182.625C560.228 178.275 562.038 177.644 564.533 175.746C567.285 173.653 569.239 164.017 573.287 160.643C569.423 158.159 568.719 157.155 567.149 152.15L565.866 149.086C565.802 148.826 565.809 148.633 565.762 148.38C565.692 147.997 565.799 147.015 565.365 145.244C563.119 136.082 554.896 117.994 547.675 112.648C531.819 100.908 517.296 108.207 507.571 118.868C487.777 140.571 479.594 177.443 451.094 179.616C451.106 180.531 451.204 181.474 451.049 182.383C450.764 184.067 450.924 183.04 450.348 183.908C451.246 187.972 450.358 199.397 450.15 205.011C449.895 211.926 447.11 210.98 446.454 207.292L447.433 179.859L447.466 179.314C411.863 177.497 409.4 100.507 371.603 100.662C343.286 100.779 337.444 140.627 322.315 167.593C313.782 182.802 306.155 182.201 301.738 185.672L304.8 212.814C304.394 215.439 305.314 214.432 302.933 215.516C301.065 214.399 301.627 216.801 300.774 208.571L298.043 185.653C280.402 186.443 273.976 176.43 266.745 169.1C266.36 168.71 265.805 168.103 265.073 167.694C263.01 166.543 264.895 166.849 263.471 167.383Z" fill="#FDFDFD"/>
<path fill-rule="evenodd" clip-rule="evenodd" d="M346.066 387.607L364.65 387.678L364.465 401.135L346.051 401.384L346.066 387.607ZM281.619 370.115L282.187 375.657C282.042 415.7 284.249 454.54 285.603 494.446C286.607 524.005 281.371 545.394 272.92 573.075C270.615 580.628 267.046 590.012 265.458 597.351C280.683 590.877 281.996 592.347 300.381 582.993C313.325 576.408 327.803 564.047 329.935 562.952C330.318 572.947 330.789 642.477 329.483 647.652L330.667 647.586L330.213 494.105C335.937 493.358 371.701 493.342 376.422 494.396C376.688 488.838 379.937 479.236 381.098 471.985C384.375 451.506 383.086 425.568 376.14 406.088C376.121 406.033 375.356 403.809 375.351 403.777C375.004 400.673 374.535 402.505 376.077 400.862L375.993 400.053L373.578 399.443C371.74 392.283 368.256 386.377 365.242 380.517C362.481 375.151 356.468 366.949 355.282 362.721L346.035 363.042L346.081 350.841C343.324 349.866 343.621 348.979 341.953 347.026L341.958 407.407L337.023 407.544L337.095 340.955C333.412 338.923 327.814 332.604 324.205 329.631C319.632 325.864 314.972 322.149 310.166 318.816C300.866 312.363 288.139 305.143 278.04 301.889L281.619 370.115Z" fill="#DCFBFC"/>
<path fill-rule="evenodd" clip-rule="evenodd" d="M548.858 419.393L548.836 441.951L548.708 487.628L548.825 505.711L548.802 547.135L548.752 561.043L548.642 587.004L548.586 647.607L627.862 647.54L627.919 417.64L623.611 417.888L557.61 417.908C556.205 417.904 553.155 417.704 551.976 417.819C549.142 418.092 548.915 416.923 548.858 419.393Z" fill="#F47B44"/>
<path fill-rule="evenodd" clip-rule="evenodd" d="M206.032 376.999L224.719 377.05C227.705 377.049 228.019 376.95 229.563 378.007C227.65 378.986 226.785 378.704 223.901 378.678L206.878 378.596L205.523 381.221C204.45 410.173 206.983 403.899 208.477 420.377C209.9 436.087 210.107 475.379 210.111 491.333C210.116 528.586 205.912 565.898 205.712 603.489L205.466 617.165L205.301 626.183L221.62 625.991L226.178 603.185C229.926 575.727 236.769 549.287 239.16 520.903C241.697 490.751 240.944 459.572 243.406 429.332C255.506 476.489 259.729 512.758 251.573 560.507C249.649 571.772 246.644 591.987 243.27 602.112L238.125 626.185L240.656 627.099L252.37 627.77C255.244 628.047 254.026 629.38 256.777 621.585C257.752 618.822 258.65 616.188 259.694 613.325C260.961 609.848 264.053 599.484 265.458 597.352C267.046 590.012 270.614 580.628 272.92 573.075C281.37 545.394 286.606 524.005 285.603 494.446C284.25 454.54 282.043 415.701 282.187 375.658L281.03 372.385C280.111 370.589 278.939 368.217 277.687 372.357L276.901 397.959C275.35 427.371 281.516 471.446 282.073 504.896C282.453 527.692 268.28 573.129 260.24 596.975C259.158 600.18 253.119 624.022 250.234 625.239C248.898 622.472 263.825 577.111 266.045 570.294C272.269 551.179 278.015 531.323 279.764 510.504C280.648 499.983 278.648 486.806 278.202 476.003C277.579 460.886 273.501 416.74 274.234 406.705C274.982 396.445 275.968 380.854 275.406 370.803L206.939 370.58L206.032 376.999Z" fill="#492F29"/>
<path fill-rule="evenodd" clip-rule="evenodd" d="M330.667 647.586L409.705 647.534L409.8 495.068L376.424 494.395C371.701 493.343 335.937 493.358 330.214 494.105L330.667 647.586Z" fill="#4ED5FD"/>
<path fill-rule="evenodd" clip-rule="evenodd" d="M416.095 647.508L439.399 647.633L439.415 552.89L518.585 552.674L518.393 647.502C523.642 647.558 546.767 648.444 548.587 647.607L548.643 587.004C544.582 591.761 537.115 602.098 527.3 600.145C528.376 593.402 538.192 596.293 540.256 573.336C537.694 570.382 531.772 552.247 529.794 547.053C526.648 538.785 523.681 527.521 520.258 520.088C517.259 520.566 515.903 521.588 513.127 520.828C514.05 515.773 515.473 518.253 518.404 514.377C517.125 506.581 510.718 490.62 511.623 483.276L510.382 481.17C509.577 479.994 510.551 481.074 509.308 479.792L500.444 472.71C496.454 469.487 493.046 466.51 489.057 463.335L467.07 443.353C466.22 446.688 463.84 450.278 462.117 454.192C442.002 499.888 427.646 535.873 419.789 587.327C416.504 608.854 416.621 625.322 416.095 647.508Z" fill="#DCFBFC"/>
<path fill-rule="evenodd" clip-rule="evenodd" d="M110.484 302.305C112.571 304.083 115.104 305.095 117.23 306.641C119.891 308.578 121.317 309.62 123.368 311.678C134.03 322.381 138.807 337.927 136.331 352.802C131.769 380.197 103.713 398.143 76.712 390.223C66.8881 387.16 60.8825 382.513 55.2473 377.284L51.5634 380.402L55.0516 385.988C49.2884 392.256 43.0293 397.036 40.5697 399.88C35.7862 405.415 29.8507 408.363 26.0256 414.39C27.2443 415.357 28.314 416.647 29.8785 417.86C45.6568 430.08 46.2862 427.98 62.8618 435.446C115.601 446.897 167.066 423.905 181.007 369.443C184.723 354.924 185.161 341.108 182.297 326.224C181.422 321.676 179.69 317.446 178.917 313.323C177.64 311.492 176.128 310.79 174.479 309.283C172.738 307.691 172.217 306.86 170.698 305.071C167.903 301.775 165.805 299.721 163.154 296.128L160.762 292.537L164.935 289.08L164.98 286.737C161.834 285.524 157.587 278.124 153.707 275.941C149.196 276.398 139.897 284.312 129.74 277.362C130.044 269.482 136.477 267.724 139.209 264.522L131.263 260.697C130.801 263.681 123.403 278.099 121.406 281.937C119.059 286.445 113.107 300.167 110.484 302.305Z" fill="#47F2C6"/>
<path fill-rule="evenodd" clip-rule="evenodd" d="M193.074 238.468L182.766 286.663L180.101 283.946C177.161 284.486 174.023 287.792 171.541 289.758L163.155 296.128C165.806 299.721 167.904 301.775 170.699 305.071C172.218 306.86 172.739 307.691 174.48 309.283C176.129 310.79 177.641 311.493 178.918 313.323C183.943 315.878 187.844 318.736 194.493 315.043C194.372 309.567 197.006 267.932 198.333 265.242L199.578 269.198C199.756 270.08 200.016 271.793 200.144 272.719C201.021 279.041 203.477 292.981 202.049 296.529C202.896 297.475 203.115 296.03 203.263 299.593C203.051 308.732 207.24 323.59 208.057 334.063C208.969 345.739 208.432 358.47 207.058 369.981L256.082 370.295C258.24 329.959 259.571 336.56 256.016 294.13C255.058 282.7 252.93 270.051 250.658 259.493L243.122 227.875L241.489 228.17L219.74 228.106L200.725 227.859C194.082 229.462 194.518 232.012 193.074 238.468Z" fill="#4646E3" stroke="#4646E3" stroke-width="0.0762" stroke-miterlimit="22.9256"/>
<path fill-rule="evenodd" clip-rule="evenodd" d="M316.964 33.0162L307.971 34.3054L257.629 39.8488L249.643 41.3214L222.138 45.1177L218.967 46.0424C205.207 47.5972 186.098 51.807 172.164 55.0955C149.071 60.5444 151.29 67.3347 156.369 88.7637C162.622 115.154 173.471 156.133 178.287 180.526C181.039 188.271 183.11 200.133 185.28 209.103C186.52 214.225 187.654 218.904 188.809 223.9C189.335 226.173 190.026 228.792 190.538 230.956L192.07 236.753C192.648 238.035 192.473 237.699 193.074 238.468C194.518 232.012 194.082 229.462 200.725 227.859L204.438 227.636C203.297 220.051 197.208 200.301 199.181 197.63C194.677 189.379 192.908 184.122 192.548 172.717C190.586 171.844 191.367 171.96 189.958 165.44C187.647 154.75 176.028 104.926 176.427 101.941C176.16 88.6282 165.66 74.6029 175.973 69.2162C179.229 67.5158 199.638 63.9595 206.071 62.7426L210.734 61.2001C214.813 58.475 280.279 50.4978 292.157 48.9019C306.684 46.9493 320.682 46.7103 335.625 45.23C364.23 42.3972 445.259 41.5848 473.086 44.3709C494.94 46.557 514.685 46.8748 538.088 49.7354C543.234 50.3645 555.664 51.2457 559.312 52.4137C560.415 49.8254 561.826 47.2271 563.061 45.0555C564.781 42.0282 565.682 41.4292 567.031 40.0266L564.1 39.5732C561.663 39.6843 559.019 38.9642 554.985 38.4119L509.712 33.5186L507.744 33.3575L507.715 33.3552C504.252 33.1552 501.358 32.9207 498.933 32.6573C481.44 31.3092 463.74 30.2001 446.023 29.7933C412.225 29.0154 382.125 29.1888 348.533 31.0447C338.985 31.5726 325.804 33.403 316.964 33.0162Z" fill="#2FB7D6"/>
<path fill-rule="evenodd" clip-rule="evenodd" d="M439.398 647.634L518.392 647.503L518.584 552.675L439.414 552.89L439.398 647.634Z" fill="#00E3E6"/>
<path fill-rule="evenodd" clip-rule="evenodd" d="M548.586 647.607C546.766 648.444 523.641 647.558 518.393 647.502L439.398 647.633L416.095 647.508L409.704 647.533L330.667 647.586L329.483 647.652C316.288 647.061 299.176 647.839 285.3 647.651L280.712 646.892C275.466 648.211 266.923 647.681 261.346 647.293C253.924 646.778 249.31 647.448 242.281 647.542C229.347 647.715 215.352 647.908 202.497 647.518C194.914 647.974 184.646 647.605 175.975 647.601C172.164 647.599 165.81 646.658 163.135 648.527C158.886 651.499 161.608 655.899 165.102 657.534C177.586 658.43 222.302 657.674 238.255 657.674L718.146 657.655C726.949 657.655 748.414 658.7 755.729 657.153C757.013 656.339 762.625 647.391 749.319 647.586C745.412 647.643 741.492 647.747 737.589 647.578L658.226 647.608L629.509 647.617C627.93 633.5 629.013 467.34 629.012 432.275L629.151 421.052C628.922 418.757 629.57 421.941 628.909 419.568C628.206 417.052 629.457 419.058 627.919 417.64L627.862 647.54L548.586 647.607Z" fill="#DDDEDD"/>
<path fill-rule="evenodd" clip-rule="evenodd" d="M559.538 233.583L556.422 246.523C555.354 251.908 551.72 266.375 552.093 269.257C552.722 274.111 550.82 268.687 552.623 270.754L570.036 274.262L574.487 274.934L581.003 242.718C583.429 248.121 578.877 270.833 577.934 277.701C576.554 287.765 571.35 293.958 565.314 305.332L564.952 303.785C562.315 307.501 561.052 324.949 559.352 331.023C557.767 336.687 556.323 338.164 554.078 342.496C552.464 345.611 553.632 353.672 552.021 356.933L551.854 370.659C551.952 370.704 588.229 370.494 597.759 370.587L598.856 370.517C604.813 360.733 609.246 353.018 611.448 338.42C613.569 324.363 612.14 310.508 608.847 298.126C602.536 274.403 589.676 252.324 587.134 227.857C582.627 227.928 578.115 227.839 573.609 227.874C562.581 227.959 561.835 230.285 559.538 233.583Z" fill="#47F2C6"/>
<path fill-rule="evenodd" clip-rule="evenodd" d="M494.48 323.465L542.594 323.413L552.448 273.704L552.622 270.753C550.819 268.687 552.721 274.111 552.092 269.256C551.719 266.375 555.353 251.907 556.421 246.523C549.113 246.351 539.446 244.274 532.005 243.277C523.947 242.195 516.455 241.311 508.281 240.496C491.677 238.841 475.705 237.64 458.61 236.548L470.49 255.223C474.757 261.959 477.701 267.989 480.988 275.78C487.26 290.65 493.195 306.161 494.48 323.465Z" fill="#DCFBFC"/>
<path fill-rule="evenodd" clip-rule="evenodd" d="M78.7034 294.319L69.6745 252.731L75.4622 251.89L73.7676 246.863C60.6367 248.752 46.1972 257.042 37.8477 263.107C10.2328 283.163 -4.24678 318.375 1.09717 353.249C2.27582 360.944 5.00117 366.983 6.35217 373.776L50.288 356.703C47.1901 340.879 44.3058 331.255 52.7598 316.312C57.8669 307.285 67.2405 297.445 78.7034 294.319Z" fill="#4ED5FD"/>
<path fill-rule="evenodd" clip-rule="evenodd" d="M302.839 232.48C296.52 232.797 290.745 232.25 284.573 231.764C281.757 231.131 278.24 231.111 274.731 230.466C272.253 230.013 268.352 228.852 265.845 228.383C259.951 227.281 249.502 227.89 243.121 227.874L250.658 259.492C252.929 270.051 255.058 282.699 256.015 294.13C259.57 336.56 258.239 329.958 256.082 370.295L273.399 370.108C278.554 369.225 274.807 368.793 277.875 369.547C279.694 369.994 278.216 370.264 281.62 370.115L278.041 301.889L273.914 254.27C287.799 255.356 311.121 256.428 323.504 248.556C327.998 245.697 329.026 242.652 332.463 238.549C334.693 233.916 337.958 229.386 340.365 224.448L343.838 216.793C341.705 213.444 339.903 212.942 336.866 210.805C334.72 209.294 332.134 207.471 329.797 205.554C321.459 218.205 319.599 231.64 302.839 232.48Z" fill="#5C5CED" stroke="#5C5CED" stroke-width="0.0762" stroke-miterlimit="22.9256"/>
<path fill-rule="evenodd" clip-rule="evenodd" d="M265.458 597.352C264.052 599.484 260.961 609.848 259.693 613.325C258.649 616.188 257.752 618.822 256.777 621.585C254.026 629.38 255.244 628.047 252.369 627.77L252.302 631.666C255.202 634.31 261.205 637.36 265.757 639.44C270.128 641.437 278.386 642.67 282.037 644.99L280.712 646.892L285.3 647.651C299.176 647.839 316.288 647.061 329.483 647.653C330.789 642.477 330.318 572.947 329.935 562.953C327.803 564.047 313.325 576.408 300.381 582.993C281.996 592.347 280.684 590.877 265.458 597.352Z" fill="#FEFEFE"/>
<path fill-rule="evenodd" clip-rule="evenodd" d="M658.226 647.608L737.589 647.578L737.564 593.324L658.344 593.104L658.226 647.608Z" fill="#B7F8FA"/>
<path fill-rule="evenodd" clip-rule="evenodd" d="M598.856 370.517L625.573 370.335C625.248 365.292 625.939 336.799 627.251 334.141C626.998 323.718 629.313 308.338 630.59 297.588C631.894 286.627 633.004 273.855 635.207 263.268L639.65 235.085L651.435 268.663C655.002 267.235 657.728 265.484 660.802 263.211L662.292 261.483C659.099 257.825 649.199 240.941 644.804 234.257C642.34 230.507 640.877 228.858 635.703 227.958L614.4 227.756C613.193 228.706 614.102 228.332 611.917 228.729L592.944 228.559C590.436 227.846 592.904 229.221 591.188 227.584L587.134 227.857C589.676 252.324 602.536 274.403 608.847 298.126C612.14 310.508 613.569 324.363 611.449 338.419C609.246 353.018 604.814 360.733 598.856 370.517Z" fill="#3ED5AD" stroke="#3ED5AD" stroke-width="0.0762" stroke-miterlimit="22.9256"/>
<path fill-rule="evenodd" clip-rule="evenodd" d="M536.201 492.641C541.184 491.507 541.337 487.534 548.489 487.597C546.455 484.061 542.299 482.765 540.024 479.372C538.505 477.108 539.449 477.52 538.257 475.421L537.591 477.195C536.436 475.058 536.627 475.832 534.5 473.761L520.875 459.452C519.49 457.864 518.946 457.008 517.68 455.466L512.718 450.046C511.518 448.397 511.822 449.918 511.666 447.411C507.863 446.131 487.532 421.565 486.805 419.881C492.399 418.872 522.228 418.747 527.91 419.602L548.858 419.393C548.915 416.923 549.142 418.092 551.976 417.819C553.155 417.704 556.205 417.904 557.61 417.907C558.766 411.733 571.472 398.417 576.759 393.108C582.594 387.249 594.727 377.019 597.758 370.587L563.955 370.256C561.898 386.341 568.259 396.511 555.399 399.904C540.35 403.873 478.83 394.083 464.837 407.404C456.782 415.072 467.137 427.059 473.227 433.689C475.158 435.791 475.761 436.563 477.842 438.626C479.564 440.332 480.083 441.721 481.63 443.665C483.379 445.86 482.084 444.349 484.071 446.067L505.467 466.851C508.098 468.905 508.413 468.918 510.535 471.296L536.201 492.641Z" fill="#40DCFF"/>
<path fill-rule="evenodd" clip-rule="evenodd" d="M643.062 67.3715C630.318 65.4355 577.102 52.5494 569.059 55.4456C562.929 64.7809 567.125 82.2147 571.947 89.9663C584.468 110.086 612.58 114.113 630.763 97.5224C639.492 89.5585 641.116 82.3703 643.062 67.3715Z" fill="#EBFCFD"/>
<path fill-rule="evenodd" clip-rule="evenodd" d="M340.364 224.448C337.956 229.386 334.692 233.916 332.461 238.549C342.214 238.648 353.659 237.154 363.64 236.643C373.962 236.114 384.359 235.707 394.744 235.544C416.185 235.209 437.369 235.372 458.609 236.549C475.704 237.64 491.676 238.84 508.28 240.496C516.454 241.311 523.946 242.195 532.004 243.277C539.446 244.274 549.113 246.351 556.42 246.523L559.536 233.582C550.895 233.129 541.504 231.252 533.089 230.061C514.598 227.441 469.493 223.128 453.046 222.986C434.58 222.827 414.997 222.022 395.558 222.169C385.585 222.244 377.542 222.848 367.586 223.036C358.83 223.203 349.439 224.898 340.364 224.448Z" fill="#2FB7D6"/>
<path fill-rule="evenodd" clip-rule="evenodd" d="M569.057 55.4456C570.887 49.7355 574.925 43.3797 579.343 41.0659C585.028 33.6243 600.588 29.1756 613.075 32.1518C624.676 34.9157 632.998 42.1028 637.564 50.3123C637.704 50.4857 637.867 50.7269 637.95 50.8591L639.669 54.242C641.864 59.9377 641.597 61.9626 643.061 67.3715C641.115 82.3703 639.49 89.5585 630.762 97.5224C612.578 114.113 584.466 110.086 571.946 89.9664C567.123 82.2147 562.927 64.781 569.057 55.4456ZM568.585 38.223C566.194 41.3015 565.356 41.0125 563.059 45.0556C561.825 47.2272 560.414 49.8255 559.311 52.4139C558.363 62.1582 555.58 64.9999 557.355 76.4501C558.009 80.6744 558.939 83.355 560.285 87.1624C561.716 91.2144 563.883 93.1748 564.468 96.3688C567.269 97.9392 565.97 97.2135 567.827 99.6684C568.859 101.033 569.671 101.704 570.927 102.977C572.138 104.206 572.807 105.013 574.221 106.074C576.666 107.908 575.91 106.467 577.532 109.428C580.283 110.092 581.388 111.359 583.759 112.52C595.426 118.237 611.012 118.766 623.363 113.35C634.266 108.569 631.039 106.459 635.683 107.279C637.225 104.832 639.827 101.78 642.241 100.61C642.942 97.348 646.458 93.546 648.253 89.4818C650.041 85.4409 652.214 80.6922 651.506 76.1045C652.386 68.4696 653.414 68.8796 651.536 60.07L650.103 54.631C647.303 40.8759 631.588 26.6383 616.073 22.7942C597.427 18.1754 573.765 27.2507 568.585 38.223Z" fill="#8EECF6"/>
<path fill-rule="evenodd" clip-rule="evenodd" d="M536.059 336.359C516.292 361.344 486.094 351.22 488.413 386.641L489.63 389.229C492.067 389.947 495.022 391.115 498.356 390.927C503.072 390.662 506.811 388.513 507.276 386.655L506.275 378.302L505.949 370.312C515.072 363.627 530.469 364.619 549.259 348.115C555.141 342.948 556.318 339.432 559.35 331.023C562.977 318.068 566.37 295.598 568.827 281.428C567.94 277.434 556.147 274.192 552.447 273.704C546.467 303.872 543.193 318.217 541.327 325.234C540.274 329.195 537.374 334.697 536.059 336.359Z" fill="#FEAF84"/>
<path fill-rule="evenodd" clip-rule="evenodd" d="M226.178 603.185C232.256 603.968 237.409 602.427 243.27 602.112C246.645 591.987 249.649 571.772 251.574 560.507C259.73 512.758 255.507 476.489 243.407 429.333C240.945 459.572 241.698 490.751 239.16 520.903C236.77 549.287 229.927 575.727 226.178 603.185Z" fill="#DEF8F9"/>
<path fill-rule="evenodd" clip-rule="evenodd" d="M598.856 370.518L597.759 370.588C594.728 377.019 582.596 387.249 576.76 393.108C571.473 398.417 558.767 411.733 557.612 417.908L623.613 417.888C628.764 400.688 626.959 397.167 627.905 379.607C623.609 381.457 614.751 380.625 608.748 380.704C601.287 380.801 603.996 380.495 602.745 379.603C604.118 378.637 601.881 379.039 605.524 378.475L627.305 378.702L626.319 370.335H625.573L598.856 370.518Z" fill="#2FB7D6" stroke="#2FB7D6" stroke-width="0.0762" stroke-miterlimit="22.9256"/>
<path fill-rule="evenodd" clip-rule="evenodd" d="M75.4627 251.89L69.675 252.731L78.7039 294.319L80.1573 298.758C85.4868 298.061 91.0798 297.502 96.8018 298.332C102.506 299.161 106.02 301.315 110.484 302.305C113.107 300.167 119.059 286.445 121.407 281.937C123.404 278.099 130.801 263.681 131.264 260.697C128.848 257.705 112.388 253.251 106.91 252.26C96.5138 250.378 85.9071 250.189 75.4627 251.89Z" fill="#00E3E6"/>
<path fill-rule="evenodd" clip-rule="evenodd" d="M76.7113 390.223C103.712 398.143 131.769 380.197 136.33 352.803C137.612 345.098 136.914 329.021 131.728 324.684L132.056 326.779C128.533 328.348 118.468 336.185 114.814 339.226C101.938 349.949 80.9856 374.796 76.7113 390.223Z" fill="#DEF8F9"/>
<path fill-rule="evenodd" clip-rule="evenodd" d="M551.127 378.621L551.192 386.783L551.169 388.524C550.396 389.139 551.089 389.335 547.327 389.627L519.324 389.405C499.143 389.414 503.242 393.238 489.631 389.229C486.772 390.65 481.879 389.961 478.381 389.442C478.471 390.952 471.043 391.222 469.14 391.61C459.611 393.546 450.493 399.263 449.539 410.698C448.714 420.601 455.729 430.183 461.44 436.66C470.641 446.179 479.012 454.205 489.057 463.335C493.045 466.51 496.453 469.487 500.444 472.71L509.307 479.792C513.755 484.38 514.041 483.706 521.477 489.181C528.798 494.115 529.168 496.806 532.777 496.125L533.7 494.542C532.72 492.389 526.304 488.642 524.067 486.67C522.993 485.722 522.843 485.343 521.59 484.334C518.375 481.743 506.153 472.507 503.785 469.414C500.271 464.821 503.303 468.075 498.879 464.688C494.356 461.225 483.724 450.034 480.281 445.738C479.064 444.218 471.912 437.782 467.114 430.939C465.047 427.993 460.84 422.657 459.842 418.96C453.152 394.192 495.417 398.1 512.934 398.1C524.483 398.1 539.372 398.926 550.509 398.065C556.35 397.615 560.521 395.714 561.106 389.939C561.603 385.03 561.499 374.945 560.941 370.252C558.455 370.878 554.107 370.923 551.922 369.907L551.127 378.621Z" fill="#4ED5FD"/>
<path fill-rule="evenodd" clip-rule="evenodd" d="M647.037 275.113C650.126 282.449 661.042 296.099 659.182 300.677C657.172 305.622 631.472 330.679 627.25 334.141C625.938 336.799 625.246 365.292 625.572 370.335H626.318L626.149 360.405C630.691 362.124 632.632 365.255 639.102 364.346C640.654 362.594 644.639 356.802 643.761 352.684C642.873 348.513 637.884 346.975 634.642 344.651C647.795 334.072 661.689 324.295 671.899 312.602C682.657 300.279 677.291 292.354 668.333 276.18C667.318 274.347 666.361 272.73 665.11 270.617C663.602 268.066 663.529 267.263 661.332 265.223C659.661 267.846 657.008 269.309 654.399 271.242C652.313 272.786 649.758 275.207 647.037 275.113Z" fill="#FEAF84" stroke="#FEAF84" stroke-width="0.0762" stroke-miterlimit="22.9256"/>
<path fill-rule="evenodd" clip-rule="evenodd" d="M587.165 204.355L586.895 204.913C593.972 207.51 607.674 214.875 620.713 204.816C624.339 202.019 625.705 199.385 628.186 197.355L628.479 196.193L629.269 194.585C630.924 188.818 632.121 185.866 632.741 179.136L631.715 169.593C628.895 161.834 626.958 154.31 620.653 151.206C617.753 154.961 608.359 157.96 599.311 173.009C590.482 187.693 591.865 191.337 587.165 204.355Z" fill="#4847E0" stroke="#4847E0" stroke-width="0.0762" stroke-miterlimit="22.9256"/>
<path fill-rule="evenodd" clip-rule="evenodd" d="M569.719 143.108C567.922 145.496 567.016 147.647 567.151 152.15C568.721 157.155 569.424 158.159 573.288 160.642L574.97 161.517C571.456 170.56 570.365 176.984 573.953 186.94C576.623 194.347 581.766 201.442 587.168 204.355C591.868 191.337 590.484 187.693 599.313 173.009C608.361 157.96 617.756 154.961 620.656 151.206C617.221 147.233 621.504 142.616 604.755 142.784C600.922 142.822 597.352 143.119 593.603 143.602C583.729 144.875 587.994 143.458 584.717 141.698L571.089 146.966L569.719 143.108Z" fill="#5252FE" stroke="#5252FE" stroke-width="0.0762" stroke-miterlimit="22.9256"/>
<path fill-rule="evenodd" clip-rule="evenodd" d="M192.547 172.717C192.907 184.122 194.676 189.379 199.181 197.63C202.746 204.081 206.944 207.687 213.112 211.119C224.319 211.757 229.004 208.559 235.216 204.053L234.924 203.255C230.519 192.919 226.758 182.491 221.975 172.456C219.601 167.473 217.167 162.612 214.711 158.094C213.273 155.448 208.791 146.006 206.624 145.201C198.049 147.883 200.77 156.678 199.971 158.795C199.335 160.481 193.831 163.965 192.547 172.717Z" fill="#D9772E" stroke="#D9772E" stroke-width="0.0762" stroke-miterlimit="22.9256"/>
<path fill-rule="evenodd" clip-rule="evenodd" d="M485.628 377.956L488.322 378.428C489.207 371.872 493.427 365.944 496.702 362.545C500.941 358.148 529.457 348.705 538.518 332.74L477.224 332.608C469.082 334.738 473.487 342.781 476.93 354.955C478.954 362.111 481.567 376.41 485.628 377.956Z" fill="#DCFBFC"/>
<path fill-rule="evenodd" clip-rule="evenodd" d="M631.715 169.593L632.741 179.136C634.719 181.448 635.507 184.282 634.465 188.247C633.526 191.819 632.172 193.425 629.269 194.585L628.479 196.193C628.955 204.417 625.097 203.214 623.384 210.839C622.156 216.306 621.074 221.625 619.794 227.242L613.724 227.966L614.398 227.756L635.701 227.958C633.522 225.613 634.821 224.736 636.57 217.456C642.498 192.786 650.289 162.928 655.401 138.882C656.674 132.898 656.616 134.203 658.129 134.16C655.526 130.893 653.123 128.796 650.849 126.052C648.466 123.174 646.355 121.201 643.835 118.541C643.623 123.192 642.304 127.995 641.318 132.13L635.406 158.165C633.962 164.531 634.433 168.456 631.715 169.593Z" fill="#2FB7D6"/>
<path fill-rule="evenodd" clip-rule="evenodd" d="M234.922 203.255L235.214 204.053C235.966 207.491 237.21 210.221 238.383 213.506C239.609 216.937 239.401 221.657 240.592 224.052L240.438 220.025C254.68 220.609 260.75 214.464 264.531 203.146C268.695 190.678 268.477 178.996 263.47 167.383L262.909 165.15C262.717 165.285 262.487 165.476 262.351 165.573C259.952 167.317 258.691 168.132 255.558 168.525C252.228 168.942 249.346 168.291 246.114 167.969L246.105 177.891C235.888 170.292 229.111 187.083 240.487 195.25C239.996 198.454 237.118 201.705 234.922 203.255Z" fill="#FEAF84"/>
<path fill-rule="evenodd" clip-rule="evenodd" d="M511.667 447.411C511.822 449.918 511.519 448.398 512.718 450.046L517.68 455.466C518.946 457.008 519.49 457.864 520.876 459.452L534.5 473.761C536.627 475.832 536.436 475.058 537.591 477.195L538.257 475.421C539.702 469.064 538.275 461.624 539.984 455.307C541.525 449.613 545.755 444.441 548.836 441.951L548.858 419.393L527.911 419.602C524.773 423.445 521.085 427.044 518.099 431.861C515.773 435.614 511.533 442.542 511.667 447.411Z" fill="#39D2F3"/>
<path fill-rule="evenodd" clip-rule="evenodd" d="M34.7992 146.78C42.695 148.944 112.654 147.921 125.598 147.476L125.486 134.072L37.6057 133.932L34.9426 134.046L34.7992 146.78Z" fill="#00E3E6"/>
<path fill-rule="evenodd" clip-rule="evenodd" d="M26.0248 414.39C29.8498 408.363 35.7853 405.415 40.5689 399.88C43.0285 397.036 49.2875 392.257 55.0507 385.989L51.5626 380.402L45.8205 371.532C38.8042 372.931 13.7145 384.73 2.51404 388.202C4.14747 396.167 15.8706 413.952 21.1523 417.75L26.0248 414.39Z" fill="#F9DACD"/>
<path fill-rule="evenodd" clip-rule="evenodd" d="M627.252 334.141C631.474 330.679 657.174 305.622 659.183 300.677C661.043 296.099 650.127 282.449 647.038 275.113C646.832 274.945 646.222 274.386 646.06 274.285C643.868 272.916 648.429 274.608 643.893 273.262C642.889 274.42 644.09 273.657 642.082 274.293C641.134 272.097 636.759 264.981 635.207 263.268C633.005 273.856 631.894 286.627 630.591 297.589C629.313 308.339 626.998 323.719 627.252 334.141Z" fill="#DEF8F9"/>
<path fill-rule="evenodd" clip-rule="evenodd" d="M488.415 386.641L487.955 379.61L485.627 377.956C481.567 376.41 478.954 362.111 476.93 354.955C473.487 342.781 469.082 334.738 477.223 332.608C482.557 329.733 528.069 333.844 539.286 331.626L542.555 324.738C530.903 322.177 466.923 326.103 463.042 323.554L461.132 324.633C463.198 327.543 461.223 323.005 461.49 326.003C461.49 326.006 461.471 327.843 461.506 328.414C461.639 330.472 461.848 330.748 462.489 332.842L474.925 377.028C477.901 387.087 478.014 385.94 488.415 386.641Z" fill="#33EDF2"/>
<path fill-rule="evenodd" clip-rule="evenodd" d="M34.775 128.172L113.896 128.409L114.007 114.768L34.8729 114.82L34.775 128.172Z" fill="#00E3E6"/>
<path fill-rule="evenodd" clip-rule="evenodd" d="M266.256 161.907C263.822 163.792 265.289 163.744 262.911 165.15L263.471 167.383C264.896 166.848 263.011 166.543 265.074 167.694C265.805 168.103 266.36 168.71 266.746 169.1C273.977 176.43 280.403 186.443 298.044 185.652L300.775 208.571C301.627 216.801 301.066 214.399 302.934 215.515C305.315 214.432 304.395 215.439 304.801 212.814L301.739 185.672C306.155 182.2 313.783 182.802 322.316 167.593C337.445 140.627 343.287 100.779 371.604 100.662C409.4 100.506 411.863 177.497 447.466 179.314L447.629 176.021C413.885 173.483 412.929 97.5701 371.604 97.4001C329.336 97.2267 331.683 177.781 301.277 181.282L299.737 172.333L297.345 172.467C296.009 174.827 297.376 179.204 297.521 182.399C280.756 183.379 266.744 165.881 266.256 161.907Z" fill="#E6EAFD"/>
<path fill-rule="evenodd" clip-rule="evenodd" d="M520.258 520.088C523.68 527.521 526.648 538.784 529.794 547.053C531.772 552.247 537.694 570.382 540.256 573.336C541.23 570.054 546.577 562.524 548.753 561.042L548.803 547.135C546.191 541.489 542.738 516.486 541.74 508.648C539.027 509.377 522.047 518.612 520.258 520.088Z" fill="#39D2F3"/>
<path fill-rule="evenodd" clip-rule="evenodd" d="M569.057 55.4455C577.1 52.5493 630.316 65.4354 643.06 67.3714C641.597 61.9624 641.864 59.9375 639.669 54.2419L639.617 54.1407C624.692 50.7644 602.693 46.0101 578.091 41.8336C574.175 44.5865 570.712 50.281 569.057 55.4455Z" fill="#2FB7D6"/>
<path fill-rule="evenodd" clip-rule="evenodd" d="M647.401 105.617C645.965 109.17 642.866 110.849 640.685 113.307C640.663 113.481 640.417 114.516 640.96 115.426C641.738 116.73 643.443 118.056 643.835 118.541C646.355 121.201 648.466 123.175 650.849 126.052C653.123 128.796 655.526 130.893 658.129 134.16C661.33 136.569 669.93 147.309 672.982 150.213C675.731 152.825 677.281 155.999 682.22 156.057C689.5 156.142 696.013 147.215 685.909 138.877L661.632 116.396C660.648 115.684 661.021 115.971 660.141 115.215C655.373 111.121 651.172 104.944 647.401 105.617Z" fill="#00E3E6"/>
<path fill-rule="evenodd" clip-rule="evenodd" d="M652.106 71.8602C653.806 72.9571 653.482 73.9328 651.554 83.2582C650.887 86.48 648.06 101.999 646.268 104.122C647.097 105.48 645.731 104.445 647.401 105.617C651.172 104.944 655.372 111.121 660.14 115.215C661.021 115.971 660.648 115.684 661.632 116.396C661.142 111.776 668.282 85.3264 669.771 79.1218C671.204 73.1505 671.14 68.8606 669.907 65.6644C668.483 63.1094 664.904 59.8776 656.055 57.9028C654.641 57.5871 652.815 57.1659 650.638 56.6647L651.535 60.0699C652.473 67.0658 652.52 68.9595 652.106 71.8602Z" fill="#2FB7D6"/>
<path fill-rule="evenodd" clip-rule="evenodd" d="M506.277 378.303L551.128 378.622L551.923 369.908L552.021 356.934L552.42 345.891C550.27 347.018 551.121 346.481 549.261 348.115C530.47 364.62 515.074 363.627 505.951 370.312L506.277 378.303Z" fill="#DCFBFC"/>
<path fill-rule="evenodd" clip-rule="evenodd" d="M34.7992 165.933C38.3263 166.9 88.7358 167.12 94.4778 166.543L94.5357 152.995L58.0342 153.238L34.9382 153.157L34.7992 165.933Z" fill="#00E3E6"/>
<path fill-rule="evenodd" clip-rule="evenodd" d="M533.7 494.542C536.413 493.467 535.326 494.003 536.202 492.641L510.536 471.296C508.413 468.918 508.099 468.905 505.468 466.851L484.072 446.067C482.085 444.349 483.379 445.86 481.63 443.665C480.084 441.722 479.564 440.332 477.843 438.626C475.762 436.563 475.159 435.791 473.227 433.689C467.137 427.059 456.783 415.073 464.838 407.404C478.83 394.084 540.35 403.873 555.399 399.904C568.26 396.511 561.899 386.341 563.956 370.256L560.941 370.252C561.499 374.945 561.603 385.031 561.106 389.939C560.521 395.714 556.35 397.615 550.509 398.066C539.372 398.926 524.483 398.1 512.935 398.1C495.417 398.1 453.153 394.193 459.842 418.96C460.84 422.658 465.047 427.993 467.114 430.939C471.912 437.782 479.064 444.218 480.282 445.738C483.724 450.034 494.356 461.225 498.879 464.688C503.303 468.075 500.271 464.821 503.786 469.414C506.153 472.507 518.375 481.743 521.59 484.334C522.843 485.343 522.993 485.722 524.067 486.67C526.304 488.642 532.72 492.389 533.7 494.542Z" fill="#30C8EF"/>
<path fill-rule="evenodd" clip-rule="evenodd" d="M579.343 41.0656C586.36 45.3544 624.96 47.5882 637.022 52.0192L637.564 50.3121C632.997 42.1025 624.675 34.9154 613.074 32.1514C600.587 29.1752 585.027 33.624 579.343 41.0656Z" fill="#DDF9FA"/>
<path fill-rule="evenodd" clip-rule="evenodd" d="M256.082 370.295L207.057 369.981L206.94 370.58L275.406 370.803C275.969 380.854 274.982 396.445 274.234 406.705C273.501 416.74 277.58 460.886 278.202 476.004C278.648 486.806 280.649 499.983 279.765 510.504C278.016 531.323 272.269 551.179 266.046 570.294C263.825 577.111 248.898 622.472 250.234 625.239C253.119 624.022 259.158 600.18 260.24 596.975C268.281 573.129 282.453 527.693 282.073 504.896C281.516 471.446 275.35 427.371 276.901 397.959L277.688 372.357C278.94 368.217 280.112 370.589 281.03 372.385L282.188 375.658L281.619 370.115C278.216 370.264 279.693 369.994 277.874 369.547C274.807 368.794 278.554 369.225 273.399 370.109L256.082 370.295Z" fill="#89635A"/>
<path fill-rule="evenodd" clip-rule="evenodd" d="M375.994 400.053L376.079 400.863L419.956 401.179L420.128 387.724L375.742 387.619L375.994 400.053Z" fill="#A6F3F9"/>
<path fill-rule="evenodd" clip-rule="evenodd" d="M230.584 639.873C231.395 642.514 231.122 644.42 231.899 647.081C226.166 647.572 221.74 646.623 216.697 646.67C212.29 646.713 207.152 648.222 202.496 646.51V647.518C215.351 647.908 229.346 647.715 242.28 647.543C249.31 647.448 253.923 646.778 261.345 647.294C266.923 647.682 275.466 648.212 280.712 646.893L282.036 644.99C278.386 642.671 270.127 641.437 265.756 639.44C261.204 637.36 255.202 634.31 252.302 631.666L237.783 630.002C235.836 631.533 235.293 632.174 234.009 634.715C232.835 637.043 232.499 638.611 230.584 639.873Z" fill="#4847E0"/>
<path fill-rule="evenodd" clip-rule="evenodd" d="M346.075 324.604L372.401 324.532L379.587 324.539L389.295 324.546L389.317 311.115L384.379 310.962L354.885 310.989L345.997 310.964L346.075 324.604Z" fill="#A6F3F9"/>
<path fill-rule="evenodd" clip-rule="evenodd" d="M333.094 200.907C336.642 201.636 339.792 203.774 343.241 205.592L342.759 207.983C348.43 200.738 343.008 193.183 355.164 190.737C369.544 187.845 365.778 184.883 365.351 172.904L371.506 167.222C372.839 165.339 374.106 164.473 372.273 162.722C368.141 164.731 365.259 167.731 360.782 170.059C354.868 173.133 353.281 172.394 348.431 176.895C339.519 185.164 338.918 189.038 333.094 200.907Z" fill="#FEAF84"/>
<path fill-rule="evenodd" clip-rule="evenodd" d="M451.235 175.83L451.096 179.615C479.596 177.443 487.778 140.57 507.573 118.868C517.298 108.207 531.821 100.908 547.677 112.648C554.898 117.993 563.121 136.082 565.367 145.244C565.8 147.015 565.694 147.996 565.764 148.38C565.81 148.633 565.804 148.826 565.867 149.086L567.15 152.15C567.016 147.648 567.922 145.496 569.719 143.108C567.346 142.225 567.948 142.225 566.869 138.938C566.198 136.891 565.712 135.472 564.943 133.595C560.773 123.426 556.251 114.453 547.213 108.321C531.681 97.7846 514.79 106.159 506.148 115.078C501.576 119.8 497.569 125.965 493.891 131.509C485.292 144.465 469.683 178.828 451.235 175.83Z" fill="#E6EAFD"/>
<path fill-rule="evenodd" clip-rule="evenodd" d="M337.095 340.955L337.022 407.544L341.957 407.408L341.953 347.026C341.666 337.913 343.25 296.09 341.26 291.538L338.068 291.366C336.188 294.617 337.086 337.405 337.095 340.955Z" fill="#EEDEE3"/>
<path fill-rule="evenodd" clip-rule="evenodd" d="M25.5096 119.391L25.692 230.911L30.3832 231.074L30.6534 127.12L30.6445 114.666L25.7598 114.723L25.5096 119.391Z" fill="#EEDEE3"/>
<path fill-rule="evenodd" clip-rule="evenodd" d="M586.694 217.62C586.122 213.117 587.48 208.92 586.895 204.913L587.165 204.355C581.763 201.442 576.621 194.347 573.951 186.94C570.363 176.984 571.454 170.56 574.967 161.517L573.286 160.642C569.239 164.016 567.285 173.653 564.533 175.746C562.038 177.644 560.227 178.275 559.287 182.625C558.419 186.637 559.724 190.794 561.603 192.909C565.598 197.401 565.104 191.77 567.963 198.516C569.385 201.869 570.563 203.666 572.678 206.56C576.041 211.163 580.46 215.32 586.694 217.62Z" fill="#FEAF84" stroke="#FEAF84" stroke-width="0.0762" stroke-miterlimit="22.9256"/>
<path fill-rule="evenodd" clip-rule="evenodd" d="M139.209 264.522C136.477 267.724 130.043 269.482 129.74 277.362C139.896 284.312 149.195 276.398 153.706 275.941L153.218 274.507L156.356 273.228C157.645 275.755 162.841 283.722 164.638 285.56L164.901 283.278C166.732 282.942 168.01 282.222 169.504 281.296C170.073 280.944 171.334 280.027 171.385 279.993C173.078 278.919 171.771 279.55 173.889 278.68C171.584 275.429 163.737 264.715 161.224 262.668C153.703 256.541 145.775 267.645 139.209 264.522Z" fill="#E19A74"/>
<path fill-rule="evenodd" clip-rule="evenodd" d="M511.666 447.411C511.533 442.542 515.773 435.614 518.099 431.861C521.084 427.044 524.773 423.445 527.911 419.602C522.229 418.747 492.399 418.872 486.805 419.881C487.532 421.565 507.864 446.132 511.666 447.411Z" fill="#DDF6F9"/>
<path fill-rule="evenodd" clip-rule="evenodd" d="M226.179 603.185L221.622 625.991C220.367 627.215 223.542 626.77 219.169 627.024C218.703 630.536 218.45 628.663 219.568 631.682C222.795 634.522 226.659 637.013 230.586 639.873C232.502 638.61 232.838 637.042 234.012 634.715C235.295 632.173 235.839 631.532 237.786 630.002L241.033 628.779L240.658 627.099L238.126 626.184L243.271 602.111C237.41 602.427 232.257 603.967 226.179 603.185Z" fill="#F9F9F9"/>
<path fill-rule="evenodd" clip-rule="evenodd" d="M586.895 204.913C587.48 208.921 586.122 213.117 586.694 217.62L592.757 219.313C592.795 222.299 592.922 225.348 591.186 227.585C592.902 229.222 590.434 227.846 592.942 228.559L611.914 228.729C614.099 228.333 613.191 228.706 614.397 227.756L613.724 227.966L613.997 216C619.508 211.347 627.26 205.775 628.185 197.355C625.705 199.385 624.339 202.019 620.713 204.816C607.674 214.875 593.972 207.51 586.895 204.913Z" fill="#E19A74" stroke="#E19A74" stroke-width="0.0762" stroke-miterlimit="22.9256"/>
<path fill-rule="evenodd" clip-rule="evenodd" d="M378.608 343.833L414.845 343.695L414.869 330.268L378.562 330.112L378.608 343.833Z" fill="#A6F3F9"/>
<path fill-rule="evenodd" clip-rule="evenodd" d="M536.201 492.641C535.325 494.003 536.412 493.467 533.699 494.542L532.776 496.126C530.815 501.906 522.073 511.84 518.403 514.377C515.472 518.254 514.049 515.773 513.126 520.829C515.902 521.588 517.258 520.566 520.257 520.089C522.046 518.613 539.027 509.377 541.74 508.648L548.825 505.711L548.708 487.628L548.489 487.597C541.337 487.534 541.184 491.507 536.201 492.641Z" fill="#493029"/>
<path fill-rule="evenodd" clip-rule="evenodd" d="M218.966 46.0424L222.138 45.1177C214.92 39.0508 209.044 9.71451 195.009 2.26179C167.397 -12.4025 163.801 48.8674 143.36 53.325C122.524 57.8682 116.997 17.1728 104.17 5.25137C102.418 3.62213 95.3449 -1.45898 91.6122 1.32051C94.8957 5.16245 100.567 -0.474345 109.862 17.0772C114.082 25.0445 117.247 33.3941 121.189 40.8846C132.54 62.4648 149.542 59.9198 159.857 39.4421C165.945 27.3572 174.288 -2.39808 192.334 3.36761C202.356 6.5683 208.751 24.5611 213.267 34.3076C214.77 37.555 218.237 42.9139 218.966 46.0424Z" fill="#C4F6ED"/>
<path fill-rule="evenodd" clip-rule="evenodd" d="M213.113 211.119C218.081 219.802 218.743 207.702 219.74 228.106L241.49 228.17L240.594 224.052C239.404 221.657 239.612 216.937 238.386 213.506C237.213 210.221 235.969 207.492 235.217 204.053C229.005 208.56 224.32 211.757 213.113 211.119Z" fill="#DD9B74" stroke="#DD9B74" stroke-width="0.0762" stroke-miterlimit="22.9256"/>
<path fill-rule="evenodd" clip-rule="evenodd" d="M202.497 646.51C207.152 648.221 212.291 646.712 216.697 646.67C221.741 646.622 226.167 647.571 231.9 647.081C231.122 644.419 231.396 642.513 230.584 639.873C226.657 637.013 222.793 634.522 219.566 631.682L205.567 630.031C204.833 631.704 197.319 644.954 202.497 646.51Z" fill="#3333D4"/>
<path fill-rule="evenodd" clip-rule="evenodd" d="M522.324 215.526C524.11 198.61 526.112 181.206 528.264 164.162L533.924 116.231C533.91 115.083 534.134 114.346 533.082 112.634C529.419 112.13 530.723 110.31 529.196 123.099L519.126 211.19C518.494 215.771 518.251 215.062 522.324 215.526Z" fill="#E4EBF5"/>
<path fill-rule="evenodd" clip-rule="evenodd" d="M541.654 386.727L551.192 386.783L551.128 378.621L506.277 378.302L507.278 386.655L541.654 386.727Z" fill="#33EDF2"/>
<path fill-rule="evenodd" clip-rule="evenodd" d="M53.2048 204.617L80.7363 205.014L80.4439 191.44L53.286 191.472L53.2048 204.617Z" fill="#00E3E6"/>
<path fill-rule="evenodd" clip-rule="evenodd" d="M346.066 343.795L351.641 343.68L354.036 343.695L358.826 343.701L372.618 343.744L372.542 330.198L345.997 330.131L346.066 343.795Z" fill="#A6F3F9"/>
<path fill-rule="evenodd" clip-rule="evenodd" d="M538.258 475.421C539.45 477.52 538.506 477.108 540.025 479.372C542.3 482.765 546.457 484.061 548.491 487.597L548.71 487.628L548.837 441.951C545.756 444.441 541.526 449.613 539.985 455.307C538.276 461.624 539.703 469.064 538.258 475.421Z" fill="#DDF6F9"/>
<path fill-rule="evenodd" clip-rule="evenodd" d="M372.273 162.722C374.106 164.473 372.839 165.339 371.505 167.222L373.982 207.945C374.856 210.236 373.495 208.941 375.596 209.793C378.384 208.518 377.465 209.857 376.995 199.234L374.542 130.248C374.368 124.637 375.081 120.447 372.402 119.21C369.447 120.415 370.174 116.868 370.637 129.009L372.273 162.722Z" fill="#E4EBF5"/>
<path fill-rule="evenodd" clip-rule="evenodd" d="M200.724 227.859L219.739 228.106C218.742 207.701 218.08 219.802 213.112 211.119C206.944 207.687 202.746 204.081 199.181 197.63C197.207 200.301 203.296 220.051 204.437 227.636L200.724 227.859Z" fill="#F6F8FA"/>
<path fill-rule="evenodd" clip-rule="evenodd" d="M540.256 573.337C538.192 596.294 528.376 593.402 527.3 600.146C537.115 602.098 544.581 591.762 548.643 587.004L548.753 561.043C546.577 562.524 541.23 570.055 540.256 573.337Z" fill="#493029"/>
<path fill-rule="evenodd" clip-rule="evenodd" d="M511.623 483.276C510.718 490.62 517.124 506.581 518.404 514.377C522.074 511.84 530.816 501.905 532.777 496.125C529.168 496.805 528.799 494.115 521.478 489.18L514.792 484.259C514.091 483.86 513.46 483.568 511.901 482.302L511.623 483.276Z" fill="#39D2F3"/>
<path fill-rule="evenodd" clip-rule="evenodd" d="M635.205 263.268C636.756 264.981 641.132 272.097 642.08 274.293C644.088 273.656 642.887 274.42 643.891 273.262C644.093 273.125 644.411 272.715 644.527 272.897L648.005 271.142C649.255 270.465 650.376 269.755 651.433 268.663L639.649 235.085L635.205 263.268Z" fill="#29C69D" stroke="#29C69D" stroke-width="0.0762" stroke-miterlimit="22.9256"/>
<path fill-rule="evenodd" clip-rule="evenodd" d="M570.035 274.262L568.829 281.428L564.952 303.785L565.314 305.332C571.35 293.958 576.554 287.765 577.933 277.701C578.876 270.833 583.429 248.121 581.002 242.718L574.486 274.934L570.035 274.262Z" fill="#32E4B4" stroke="#32E4B4" stroke-width="0.0762" stroke-miterlimit="22.9256"/>
<path fill-rule="evenodd" clip-rule="evenodd" d="M346.051 401.384L364.466 401.135L364.651 387.678L346.067 387.607L346.051 401.384Z" fill="#A5F2FA"/>
<path fill-rule="evenodd" clip-rule="evenodd" d="M194.492 315.043C199.422 311.863 200.977 306.925 201.379 299.602L202.048 296.529C203.475 292.981 201.019 279.041 200.143 272.719C200.015 271.793 199.755 270.081 199.577 269.198L198.331 265.242C197.005 267.932 194.371 309.567 194.492 315.043Z" fill="#2020B6"/>
<path fill-rule="evenodd" clip-rule="evenodd" d="M346.08 350.841L346.035 363.042L355.281 362.721L363.348 362.754L363.44 349.581L349.145 349.166C344.938 349.574 346.618 348.428 346.08 350.841Z" fill="#A6F3F9"/>
<path fill-rule="evenodd" clip-rule="evenodd" d="M249.642 41.3214L257.628 39.8488C254.42 39.5043 256.284 40 255.125 38.9331C261.553 30.3646 265.974 6.56725 279.223 3.15207C289.003 0.631528 295.045 8.02423 298.587 13.6265C300.915 17.3073 307.073 29.8934 307.969 34.3054L316.963 33.0163L310.479 33.7153C305.358 21.3282 296.024 -4.95521 277.571 1.44728C270.13 4.02783 265.191 13.0953 262.023 19.5089L253.965 37.0016C252.108 40.6835 252.425 39.0898 249.642 41.3214Z" fill="#C4F6ED"/>
<path fill-rule="evenodd" clip-rule="evenodd" d="M244.815 141.247L251.826 143.105C247.116 137.363 239.759 127.968 234.322 124.156C227.943 119.684 223.638 116.634 215.122 116.121C206.3 115.591 208.009 117.212 207.638 117.838C208.812 120.109 207.711 119.309 214.301 119.389C227.259 119.546 241.964 133.904 244.815 141.247Z" fill="#E6EAFD"/>
<path fill-rule="evenodd" clip-rule="evenodd" d="M541.742 508.648C542.739 516.486 546.193 541.489 548.805 547.135L548.827 505.711L541.742 508.648Z" fill="#DDF6F9"/>
<path fill-rule="evenodd" clip-rule="evenodd" d="M34.8291 204.695L46.4955 204.962L46.4088 191.55L34.9336 191.463L34.8291 204.695Z" fill="#00E3E6"/>
<path fill-rule="evenodd" clip-rule="evenodd" d="M478.381 389.443C481.879 389.962 486.771 390.651 489.63 389.229L488.414 386.641C478.013 385.94 477.899 387.087 474.924 377.028L462.488 332.842C461.846 330.748 461.637 330.472 461.505 328.414C461.469 327.843 461.488 326.006 461.488 326.004C461.222 323.005 463.196 327.543 461.13 324.633C456.638 325.816 460.593 334.345 462.521 341.35L477.125 386.778C477.201 386.944 477.313 387.463 477.388 387.64C478.115 389.37 475.869 387.375 478.381 389.443Z" fill="#14C9E0"/>
<path fill-rule="evenodd" clip-rule="evenodd" d="M628.186 197.355C627.261 205.776 619.508 211.347 613.998 216L613.724 227.966L619.794 227.242C621.074 221.626 622.156 216.307 623.385 210.839C625.097 203.214 628.955 204.417 628.479 196.193L628.186 197.355Z" fill="#F9F9F7"/>
<path fill-rule="evenodd" clip-rule="evenodd" d="M446.454 207.291C447.11 210.98 449.895 211.926 450.15 205.011C451.569 166.626 453.11 127.749 454.62 89.0561C454.535 87.3302 455.017 83.0292 453.847 81.7668C452.775 80.6076 450.866 81.0477 450.788 85.4553C450.76 85.352 450.77 86.6367 450.677 86.8201C451.896 95.4797 449.823 116.725 449.453 126.683C448.455 153.553 447.415 180.42 446.454 207.291Z" fill="#F25E46"/>
<path fill-rule="evenodd" clip-rule="evenodd" d="M175.264 280.625L173.739 282.164L170.485 284.136C169.748 285.125 169.714 285.23 169.059 286.047C166.069 287.401 167.317 287.229 164.981 286.737L164.936 289.08L160.763 292.537L163.155 296.128L171.541 289.758C174.023 287.792 177.161 284.486 180.1 283.946L175.264 280.625Z" fill="#D7A59A"/>
<path fill-rule="evenodd" clip-rule="evenodd" d="M284.572 231.764C290.744 232.25 296.518 232.797 302.838 232.48C309.441 232.149 313.216 231.391 315.668 227.206C311.582 227.028 304.402 228.212 299.903 228.837C297.987 229.103 294.529 229.525 292.121 229.817C287.916 230.33 287.95 229.847 284.572 231.764Z" fill="#2FB7D6"/>
<path fill-rule="evenodd" clip-rule="evenodd" d="M552.448 273.704C556.002 274.173 557.989 275.497 561.474 276.846C562.825 277.37 564.101 277.806 565.537 278.373C568.828 279.67 568.202 278.61 568.828 281.428L570.034 274.262L552.621 270.754L552.448 273.704Z" fill="#6FEDD1" stroke="#6FEDD1" stroke-width="0.0762" stroke-miterlimit="22.9256"/>
<path fill-rule="evenodd" clip-rule="evenodd" d="M329.798 205.554C332.134 207.471 334.721 209.294 336.867 210.805C339.903 212.942 341.706 213.444 343.838 216.793L345.711 214.825C344.639 210.94 343.65 212.278 342.285 209.657C340.569 208.274 339.239 207.535 337.517 206.193C335.657 204.746 336.922 205.579 335.212 204.505C334.252 203.904 333.605 203.637 332.393 202.871C329.251 202.624 330.352 203.713 329.798 205.554Z" fill="#F4CEB5"/>
<path fill-rule="evenodd" clip-rule="evenodd" d="M642.242 100.61L646.269 104.122C648.061 101.999 650.888 86.48 651.555 83.2582C653.483 73.9328 653.114 77.1391 651.506 76.1045C652.214 80.6921 650.042 85.4409 648.254 89.4817C646.458 93.5459 642.942 97.3479 642.242 100.61Z" fill="#EDF4F7"/>
<path fill-rule="evenodd" clip-rule="evenodd" d="M219.136 75.5521L219.096 79.5818C221.017 80.7109 221.381 80.7865 222.703 82.2835C227.63 80.8043 228.272 80.882 228.274 75.2798C226.706 74.4051 226.324 74.224 225.047 72.8537L222.887 72.8326C220.373 73.2749 220.607 73.665 219.136 75.5521Z" fill="#52D4FB"/>
<path fill-rule="evenodd" clip-rule="evenodd" d="M239.676 79.026L243.055 78.8549C244.597 78.1614 245.197 78.0124 245.861 76.6766C247.154 74.0816 246.345 73.5748 245.393 72.03L244.177 70.5797C237.999 69.9462 237.237 70.7986 236.937 76.6199C238.131 78.737 237.001 77.9057 239.676 79.026Z" fill="#4DD3FB"/>
<path fill-rule="evenodd" clip-rule="evenodd" d="M201.282 80.2153C202.132 85.8153 205.881 85.4419 209.953 83.9638C210.558 80.3864 210.535 81.151 209.937 77.4213L205.52 76.2055C202.628 76.9546 202.161 77.3469 201.282 80.2153Z" fill="#52D4FB"/>
<path fill-rule="evenodd" clip-rule="evenodd" d="M651.434 268.664C650.377 269.755 649.256 270.465 648.006 271.142L644.528 272.898C644.413 272.716 644.095 273.126 643.892 273.262C648.429 274.608 643.868 272.916 646.059 274.285C646.222 274.386 646.831 274.945 647.038 275.113C649.759 275.207 652.314 272.787 654.4 271.242C657.009 269.309 659.661 267.846 661.333 265.223L660.801 263.211C657.728 265.484 655.002 267.235 651.434 268.664Z" fill="#51D4C9" stroke="#51D4C9" stroke-width="0.0762" stroke-miterlimit="22.9256"/>
<path fill-rule="evenodd" clip-rule="evenodd" d="M627.71 379.746C628.523 377.906 627.771 379.218 627.112 378.839L605.33 378.614C601.687 379.178 603.924 378.776 602.551 379.742C603.803 380.633 601.093 380.94 608.554 380.843C614.556 380.764 623.416 381.594 627.71 379.746Z" fill="#40DCFF" stroke="#40DCFF" stroke-width="0.0762" stroke-miterlimit="22.9256"/>
<path fill-rule="evenodd" clip-rule="evenodd" d="M205.566 630.03L219.566 631.682C218.448 628.662 218.7 630.536 219.166 627.024L208.01 626.944L207.856 629.287C203.413 628.795 207.085 628.989 205.566 630.03Z" fill="#E3DAD8"/>
<path fill-rule="evenodd" clip-rule="evenodd" d="M237.784 630.002L252.303 631.665L252.369 627.77L240.656 627.099L241.031 628.779L237.784 630.002Z" fill="#E3DAD8"/>
<path fill-rule="evenodd" clip-rule="evenodd" d="M205.522 381.221L206.877 378.596L223.9 378.678C226.784 378.704 227.649 378.986 229.562 378.007C228.018 376.95 227.704 377.049 224.718 377.05L206.031 376.999C204.553 377.623 205.657 376.485 204.747 378.007C205.554 379.679 205.333 378.759 205.522 381.221Z" fill="#89635A"/>
<path fill-rule="evenodd" clip-rule="evenodd" d="M629.268 194.585C632.172 193.425 633.526 191.819 634.464 188.247C635.506 184.282 634.719 181.448 632.741 179.137C632.12 185.866 630.924 188.819 629.268 194.585Z" fill="#2FB7D6" stroke="#2FB7D6" stroke-width="0.0762" stroke-miterlimit="22.9256"/>
<path fill-rule="evenodd" clip-rule="evenodd" d="M332.393 202.872C333.605 203.637 334.252 203.904 335.212 204.505C336.922 205.579 335.657 204.746 337.517 206.193C339.239 207.535 340.569 208.274 342.285 209.658L342.76 207.983L343.242 205.592C339.793 203.774 336.643 201.636 333.095 200.907L332.393 202.872Z" fill="#EE926D"/>
<path fill-rule="evenodd" clip-rule="evenodd" d="M153.707 275.941C157.588 278.124 161.834 285.524 164.98 286.737L164.639 285.56C162.842 283.722 157.645 275.755 156.357 273.228L153.219 274.507L153.707 275.941Z" fill="#F3F3F3"/>
<path fill-rule="evenodd" clip-rule="evenodd" d="M164.637 285.56L164.979 286.737C167.315 287.228 166.067 287.401 169.057 286.047C169.712 285.23 169.747 285.125 170.483 284.135L173.737 282.164L175.262 280.625L174.516 279.668L173.888 278.68C171.77 279.55 173.078 278.919 171.384 279.993C171.333 280.027 170.072 280.944 169.503 281.296C168.01 282.222 166.731 282.942 164.901 283.278L164.637 285.56Z" fill="#D88F5A"/>
<path fill-rule="evenodd" clip-rule="evenodd" d="M208.012 626.944L219.168 627.024C223.541 626.77 220.366 627.214 221.621 625.991L205.302 626.183L205.466 617.164L204.72 622.211C204.661 624.676 204.461 624.377 204.928 626.83L208.012 626.944Z" fill="#909292"/>
<path fill-rule="evenodd" clip-rule="evenodd" d="M450.58 86.0365C450.673 85.852 450.761 85.3519 450.789 85.4553L451.285 83.4915C452.533 80.8987 449.588 82.2879 453.848 81.7667L454.685 85.0674C454.709 86.3844 454.545 87.5024 454.621 89.056C455.442 87.2812 455.806 83.9083 455.185 81.3866L450.867 81.0477L450.58 86.0365Z" fill="#F4CEB5"/>
<path fill-rule="evenodd" clip-rule="evenodd" d="M201.38 299.602L203.263 299.593C203.115 296.03 202.896 297.475 202.048 296.529L201.38 299.602Z" fill="#D7A59A"/>
<path fill-rule="evenodd" clip-rule="evenodd" d="M222.703 82.2835C221.381 80.7865 221.016 80.711 219.096 79.5818L222.703 82.2835Z" fill="#D8D5AF"/>
<path fill-rule="evenodd" clip-rule="evenodd" d="M228.276 75.2798L225.049 72.8537C226.326 74.224 226.708 74.4051 228.276 75.2798Z" fill="#D8D5AF"/>
<path fill-rule="evenodd" clip-rule="evenodd" d="M206.623 145.202C208.79 146.006 213.272 155.448 214.71 158.094C217.166 162.612 219.6 167.473 221.974 172.456C226.757 182.492 230.518 192.919 234.923 203.255C237.119 201.705 239.996 198.454 240.488 195.25C229.112 187.083 235.889 170.292 246.105 177.891L246.114 167.97C249.347 168.291 252.229 168.942 255.559 168.525C266.765 167.118 268.799 155.847 268.772 146.246C263.823 148.492 255.938 146.414 251.826 143.106L244.815 141.247C235.147 139.568 212.626 138.169 206.623 145.202Z" fill="#F78933" stroke="#F78933" stroke-width="0.0762" stroke-miterlimit="22.9256"/>
<path fill-rule="evenodd" clip-rule="evenodd" d="M635.684 107.279L635.585 107.578C635.931 109.796 637.961 112.077 640.686 113.307C642.867 110.848 645.966 109.17 647.402 105.617C646.803 105.197 646.336 103.798 645.412 102.842C644.472 101.869 643.068 101.331 642.242 100.61C639.828 101.78 637.226 104.832 635.684 107.279Z" fill="#6FEDD1"/>
</svg>
