<svg width="768" height="3300" viewBox="0 0 768 3300" fill="none" xmlns="http://www.w3.org/2000/svg">
<path fill-rule="evenodd" clip-rule="evenodd" d="M432.668 199.106C466 193 483.236 173.006 496.5 165C577.881 115.876 621.757 195.26 626.74 296.879C630.805 379.763 576.083 484.423 556.209 512.656C549.145 530.688 522.522 583.173 511.943 606.49C497.208 638.97 481.707 669.315 468.574 701.705C441.024 769.655 420.516 849.579 422.576 933.03C426.678 1099.21 510.425 1276.78 486.555 1416.35C475.71 1479.75 435.506 1553.47 396.721 1603.54C375.782 1630.57 360.409 1644.12 337.054 1664.99C312.68 1686.77 274.697 1709.58 240.504 1725.44C174.698 1755.94 95.6309 1771.64 13.3946 1775.7C-63.3564 1779.5 -135.263 1774.56 -208.926 1755.61C-217.915 1753.3 -227.303 1750 -236 1747.92V3300H977V3044.81L951.197 3064.91C942.294 3071.39 933.827 3077.09 924.072 3083.33C861.988 3123.04 786.273 3139.87 709.597 3142.39C644.452 3144.54 612.302 3138.5 552.556 3116.97C500.195 3098.1 447.489 3065.68 408.105 3032.79C403.891 3029.27 400.103 3026.49 396.166 3022.44C392.171 3018.33 389.212 3016.77 384.021 3011.32C376.563 3003.49 369.333 2996.64 361.138 2988.67C342.793 2970.83 315.925 2930.2 303.353 2909.85C291.688 2890.96 281.108 2871.93 270.487 2851.62C222.782 2760.41 201.818 2677.53 182.056 2574.87C157.395 2446.75 144.319 2302.62 213.819 2188.97C220.066 2178.75 225.849 2171.14 232.64 2162.26C239.362 2153.47 246.649 2146.13 254.249 2138.33C269.774 2122.4 284.819 2110.27 304.147 2097.14C319.394 2086.79 343.946 2071.82 364.133 2065.05C526.326 2010.63 744.98 2052.98 908.397 2107.18L977 2130.94V0H292.482C275.725 110.258 317.276 210.37 432.668 199.106Z" fill="#DCFBFC"/>
</svg>
