<svg width="494" height="370" viewBox="0 0 494 370" fill="none" xmlns="http://www.w3.org/2000/svg">
<path d="M675 0H0V370H675V0Z" fill="#02C1C5"/>
<path fill-rule="evenodd" clip-rule="evenodd" d="M256.429 41.5701C253.613 50.0656 255.542 57.0146 257.246 68.0868C265.763 123.437 284.335 131.424 285.33 133.568C286.453 156.276 288.46 178.779 296.209 197.647L298.723 204C315.58 204.055 335.795 196.669 342.942 188.166L343.465 184.228C343.161 182.577 342.385 154.523 342.404 154.384C342.457 161.802 342.616 169.231 342.523 176.65C342.393 187.021 342.337 187.647 335.371 192.126C326.456 197.858 311.925 200.414 299.651 202.393C297.618 195.863 298.33 196.958 300.754 195.193C307.146 190.536 307.468 192.425 317.013 182.769C333.431 166.16 331.187 159.189 337.732 145.859C336.358 146.132 333.503 146.956 332.322 146.939C330.406 146.91 331.528 147.199 329.741 146.456C326.922 145.284 328.883 146.573 327.525 144.827C321.712 141.141 319.073 140.549 316.564 129.799C315.081 123.446 315.281 127.156 313.167 122.799L315.024 118.192C319.437 119.394 319.04 120.945 318.975 124.769C318.907 128.766 326.621 143.768 337.297 142.411C340.497 140.945 341.079 140.519 341.953 137.257C340.643 135.071 340.541 134.199 340.377 130.917L344.233 131.736C345.654 128.066 346.24 123.279 345.911 119.072C342.75 118.026 335.356 115.667 332.853 115.144C330.291 114.609 327.498 114.985 325.381 114.506C322.621 113.881 322.632 112.614 320.158 111.066C319.663 114.707 319.045 116.495 314.513 116.216C310.59 115.974 309.642 113.809 308.028 111.832C302.277 116.203 306.535 114.814 297.961 117.137C292.06 118.737 291.579 118.633 287.674 113.797C283.045 108.067 279.445 100.155 276.739 92.4785C273.968 84.6211 272.275 76.3217 270.39 67.5622C269.388 62.906 268.957 58.3948 268.335 53.1141C266.896 40.9058 267.572 47.437 264.646 41L256.429 41.5701V41.5701Z" fill="#FEFEFE"/>
<path fill-rule="evenodd" clip-rule="evenodd" d="M376.848 240.977L379.824 242.534L388.843 244C385.371 241.112 392.596 242.857 385.159 241.545C391.87 241.437 393.287 244.031 399.007 242.569C407.871 238.813 433.551 180.07 420.251 175.641C416.87 175.641 413.391 175.849 410.093 175.335C406.122 174.717 404.716 173.28 400.207 172.895C401.617 171.041 400.117 171.992 402.186 170.879L395.201 168C392.001 169.481 394.611 167.676 392.186 170.856C385.476 179.65 380.294 187.476 378.081 198.42C376.603 205.724 376.017 211.811 376 219.561C375.988 225.011 378.02 236.871 376.848 240.977V240.977Z" fill="#373837" stroke="#373837" stroke-width="0.0762" stroke-miterlimit="22.9256"/>
<path fill-rule="evenodd" clip-rule="evenodd" d="M303.749 213.626C305.794 217.714 310.263 221.798 312.96 225.987C315.181 229.437 318.812 235.002 320.903 238.846C322.678 242.03 323.615 243.894 324.874 247.166C329.429 258.989 322.848 262.859 311.859 264.44C303.338 265.665 298.888 263.022 292.841 263.295L290.864 266.249C289.549 269.817 287.383 274.027 288.166 277.957C295.749 284.429 316.009 281.978 324.746 278.571C352.938 267.579 343.604 246.582 337.386 232.668C334.242 225.635 326.503 214.769 326.089 211.396L330.679 208.932C329.726 205.023 329.721 208.544 332.625 204.003C321.326 203.816 307.071 213.807 303.749 213.626Z" fill="#373837"/>
<path fill-rule="evenodd" clip-rule="evenodd" d="M299 204.19C299.81 208.404 300.518 210.022 303.611 213.217C307.368 213.423 329.564 202.875 330.915 208.438C333.595 207.2 333.763 204.989 336.768 204.267C341.206 212.21 348.992 224.014 350.565 235.84C346.495 237.946 343.047 240.445 340.517 240.452C343.24 248.856 344.065 251.29 344.42 256C368.563 253.582 371.559 238.284 361.794 217.062C359.9 212.942 347.796 190.765 343.282 188C336.126 196.694 315.881 204.246 299 204.19V204.19Z" fill="#282324"/>
<path fill-rule="evenodd" clip-rule="evenodd" d="M164 367H464C457.125 363.15 318.391 362 314.132 362C304.877 362 181.245 363.799 168.198 365.628L164.796 366.614C164.627 366.375 164.249 366.842 164 367V367Z" fill="#03A3A8"/>
<path fill-rule="evenodd" clip-rule="evenodd" d="M340.145 144.697L328.249 145.586C329.616 147.327 327.642 146.041 330.479 147.211C332.278 147.952 331.149 147.663 333.077 147.692C334.266 147.709 337.139 146.887 338.522 146.615C331.935 159.91 334.193 166.862 317.67 183.428C308.063 193.058 307.739 191.174 301.306 195.819C298.866 197.58 298.15 196.488 300.196 203C312.548 201.026 327.173 198.477 336.145 192.76C343.157 188.293 343.213 187.669 343.344 177.325C343.438 169.926 343.277 162.516 343.224 155.117C343.205 155.257 343.985 183.236 344.292 184.882C348.013 180.606 344.85 147.759 342.409 143L340.145 144.697V144.697Z" fill="#F2F2F2" stroke="#F2F2F2" stroke-width="0.0762" stroke-miterlimit="22.9256"/>
<path fill-rule="evenodd" clip-rule="evenodd" d="M408.24 115.59C411.88 114.776 423.625 116.24 426.514 118.082C425.108 127.823 408.603 127.214 408.24 115.59ZM425.014 112.694C426.156 108.367 430.839 107.533 433.386 114.089C429.72 112.482 432.462 114.164 429.206 111.179C426.121 112.288 428.87 112.347 425.014 112.694ZM403.627 109.867C404.521 107.588 409.341 102.589 411.887 110.433C408.6 108.895 410.975 109.619 407.924 108.13C404.504 109.602 407.301 109.407 403.627 109.867ZM400.105 116.265C407.368 131.924 409.704 125.94 412.983 131.683L409.69 134.366L412.262 134.284C409.685 140.119 410.409 136.289 411.075 144C413.9 143.292 415.157 142.514 417.365 141.351C421.327 139.262 421.226 139.827 420.95 135.711L424.031 136.189C423.862 136.054 423.559 135.674 423.494 135.826C423.492 135.83 421.853 135.051 421.487 132.59C423.206 130.366 428.305 128.862 430.96 127.118C435.015 124.454 435.748 121.786 438.961 119.918C441.025 121.238 439.401 119.424 440.009 122.42L446 111.411C443.745 109.757 441.998 109.397 439.74 107.311C433.788 101.812 428.868 97.0909 427.528 89C425.107 91.5961 425.22 93.56 421.402 96.5308C413.077 103.013 398.63 102.63 400.105 116.265V116.265Z" fill="#FBAE91"/>
<path fill-rule="evenodd" clip-rule="evenodd" d="M415.092 94.6592C417.218 93.2231 418.596 92.4386 420.368 91.3215C419.747 96.3376 414.436 97.7333 409.758 99.3096L415.092 94.6592ZM394.062 97.3377C393.794 98.7144 394.1 98.0321 393.527 99.6572C393.074 100.941 392.735 101.146 392.44 101.619L391 113.958C391.746 120.332 392.586 124.346 395.699 128.421C395.976 130.207 395.497 129.574 397.459 130C396.898 127.178 397.345 117.58 398.055 112.96C399.938 118.235 399.043 114.692 400.263 116.266C398.8 102.732 413.138 103.113 421.401 96.6788C425.189 93.7302 425.077 91.7809 427.48 89.2042C428.81 97.2347 433.693 101.92 439.6 107.378C441.841 109.449 443.575 109.806 445.813 111.448L446 110.87L444.085 97.0966C440.881 96.8181 441.355 99.1586 437.944 99.6233C432.393 100.379 432.181 96.6873 432.036 96.4704L435.29 94.5946C444.067 90.7328 439.134 95.0484 441.94 92.1624C441.585 87.1209 436.532 81.904 433.33 80.4986C429.976 79.0286 432.87 81.1014 425.544 77.613C418.439 74.2304 403.155 85.6964 398.505 91.2556C396.617 93.5122 395.749 95.6275 394.062 97.3377V97.3377Z" fill="#43130A"/>
<path fill-rule="evenodd" clip-rule="evenodd" d="M349.921 68.2181C351.327 79.305 344.957 62.025 353.783 91.9354C355.706 98.4506 360.071 112.434 358.341 119.404L355.213 120.194L352.073 132.858C380.073 135.35 372.023 104.563 366.645 82.7551C364.585 74.404 364.966 71.0771 357.859 66L349.921 68.2181V68.2181Z" fill="#FEFEFE"/>
<path fill-rule="evenodd" clip-rule="evenodd" d="M388.671 244.636L416.549 248C421.275 246.707 423.41 236.233 424.674 231.919C426.542 225.544 428.558 219.304 429.65 212.309C433.141 189.964 429.684 188.7 421.314 172.997C414.004 174.197 408.63 171.916 401.967 171C399.905 172.12 401.399 171.163 399.994 173.03C404.487 173.418 405.888 174.864 409.845 175.487C413.132 176.004 416.597 175.795 419.967 175.795C433.22 180.255 407.631 239.412 398.799 243.194C393.099 244.667 391.687 242.055 385 242.163C392.41 243.484 385.211 241.728 388.671 244.636Z" fill="#2D2D2D"/>
<path fill-rule="evenodd" clip-rule="evenodd" d="M446.266 111.369L446.076 111.949L440.042 122.909L429.161 139.918C424.879 139.424 426.528 138.875 423.949 136.617L420.845 136.141C421.124 140.239 421.225 139.677 417.235 141.756C415.011 142.914 413.745 143.689 410.899 144.394C410.228 136.717 409.499 140.53 412.095 134.72L409.505 134.802C407.266 135.802 404.472 138.146 401.478 136.564C398.939 135.221 396.849 132.128 397.004 130.558C395.013 130.13 395.499 130.766 395.218 128.973C393.98 131.505 395.294 134.037 396.19 137.259C401.015 154.625 393.272 144.452 393 155.545L395.115 167.762L401.87 170.662C408.338 171.578 413.554 173.859 420.649 172.659C420.717 169.772 420.595 171.062 419.723 169.549C418.501 170.836 419.865 170.128 417.411 170.548L408.358 169.467C404.637 168.784 400.66 167.667 397.587 166.39L394.928 156.453C402.387 157.377 410.046 161.664 418.5 158.467C426.707 155.362 427.53 151.896 431.805 144.754C435.469 138.633 438.837 133.566 441.85 127.779C444.788 122.135 449.393 116.97 451 111.263L449.575 109C447.605 109.561 447.277 110.292 446.266 111.369V111.369Z" fill="#FDFDFD"/>
<path fill-rule="evenodd" clip-rule="evenodd" d="M314.621 87.768C315.973 83.4485 320.677 82.4476 321.471 87.5288C319.417 86.783 320.298 86.8747 318.096 86.0079L314.621 87.768ZM308.152 111.61C309.751 113.577 310.69 115.732 314.575 115.972C319.063 116.249 319.676 114.47 320.166 110.848L319.812 108.491C322.436 107.473 325.305 106.191 326.078 103.563C332.451 99.1607 328.93 95.0848 331.795 90.7041C333.299 88.404 334.925 88.9649 334.998 84.9735C335.068 81.2054 333.43 80.7191 330.563 80.1739L329.384 83.8872C325.09 82.5669 325.295 76.6528 323.444 73.4731C320.346 68.1539 290.9 64.2815 291.057 81.9279H289.865C289.118 85.3129 288.711 83.3652 287.317 85.2728C285.815 87.3293 285.61 87.7227 286.639 90.7221L290.4 101.244C292.916 106.233 298.006 109.21 303.162 109.878C307.416 110.428 307.661 108.825 308.152 111.61V111.61ZM317.241 97.2078C314.286 99.9001 313.291 104.486 306.704 103.631C302.679 103.108 298.652 98.6703 298.184 94.8433C301.19 93.1032 312.685 92.4674 316.802 93.0083L317.241 97.2078ZM294.688 89.5873C291.441 89.1579 293.132 89.7981 292.697 88.1161C294.205 86.18 293.798 86.2947 296.825 85.6493C298.983 87.0846 298.928 86.261 299.497 89.2465C295.747 87.9822 299.468 88.2037 294.846 87.4518L294.688 89.5873Z" fill="#FBAE91"/>
<path fill-rule="evenodd" clip-rule="evenodd" d="M396.862 267.572C401.019 269.336 405.617 265.256 407.594 262.52L414.438 252.781C414.524 252.665 414.709 252.416 414.848 252.236L417 247.903L389.356 244.496L380.444 243C379.921 247.975 379.485 253.741 381.436 257.786C384.01 263.126 387.571 261.884 393.01 262.391C394.907 265.106 394.043 265.256 396.862 267.572Z" fill="#F6AB93"/>
<path fill-rule="evenodd" clip-rule="evenodd" d="M289.645 77L289.88 66.7299C298.358 70.3728 303.644 63.6815 310.885 65.8858C317.163 67.7965 315.437 68.1876 322.165 66.4683C325.842 65.5284 329.186 64.2461 331.941 62.5971C332.604 57.1913 327.548 56.4482 324.406 53.1106C322.301 56.0835 322.936 56.3525 322.8 56.6183C314.694 52.2112 301.24 51.3243 291.81 56.8117C290.446 57.6049 289.426 58.5895 288.125 59.3497L284.289 60.8819C284.11 60.9416 283.784 61.0458 283.641 61.0924C283.498 61.1383 283.2 61.1966 283 61.2999C285.012 65.2275 285.494 64.2163 288.524 66.7013C288.731 69.8878 288.084 74.6778 289.645 77V77Z" fill="#6A2915"/>
<path fill-rule="evenodd" clip-rule="evenodd" d="M420.745 173C423.473 170.358 426.897 161.484 429.001 157.295C431.927 151.471 434.452 147.282 437.545 142.375C440.723 137.331 454.788 116.643 455 112.568C452.676 111.47 453.141 111.728 451.125 111C449.517 116.764 444.907 121.979 441.966 127.679C438.951 133.522 435.579 138.64 431.911 144.821C427.633 152.033 426.809 155.533 418.594 158.668C410.132 161.897 402.466 157.568 395 156.634L397.661 166.669C400.738 167.959 404.718 169.087 408.442 169.776L417.504 170.868C419.961 170.444 418.596 171.159 419.818 169.859C420.692 171.387 420.813 170.084 420.745 173V173Z" fill="#F7F7F6" stroke="#F7F7F6" stroke-width="0.0762" stroke-miterlimit="22.9256"/>
<path fill-rule="evenodd" clip-rule="evenodd" d="M450 108.257L451.461 110.477C453.526 111.184 453.05 110.934 455.43 112C457.605 107.177 466.647 94.1567 469.193 92.4849C471.002 87.8938 471.87 87.1637 477.22 86.1384C481.789 85.2626 484.195 84.6538 489.761 84.657C490.308 80.8781 487.68 85.0075 483.152 81.855L490.814 80.4636L486.084 78.549L492 77.8189C491.952 77.4243 491.072 75.0932 490.419 73.9372L475.773 73.8819C473.481 68.7626 477.353 70.1813 473.022 68C471.264 70.9733 472.857 70.1468 471.8 73.9539C468.977 84.1086 455.523 97.1206 450 108.257V108.257Z" fill="#F6AB93" stroke="#F6AB93" stroke-width="0.0762" stroke-miterlimit="22.9256"/>
<path fill-rule="evenodd" clip-rule="evenodd" d="M281.449 273.699C283.776 270.703 282.141 272.545 282.92 268.7C283.49 265.883 283.851 267.224 284 264.148C281.848 259.704 276.85 259.747 273.86 258L269.769 258.046C265.322 271.807 270.122 265.334 265.581 272.298C263.232 275.902 259.906 282.197 261.352 288.04C261.866 290.112 260.501 290.212 264.422 290.867C269.233 291.669 269.175 288.589 269.234 288.434C269.632 287.383 269.438 287.095 269.614 286.165C270.772 280.043 273.219 280.04 281.449 273.699Z" fill="#241B1B"/>
<path fill-rule="evenodd" clip-rule="evenodd" d="M288.501 229.128C286.962 233.356 288.231 233.673 285.637 236.153C284.169 237.557 281.839 238.581 280.02 240.693C277.013 244.186 274.329 249.27 274 254.93C290.51 258.882 270.755 251.096 298.48 244.458C299.45 243.092 300.03 242.137 300.898 240.518C302.524 237.48 302.426 238.325 304 235.726C303.349 229.415 296.942 228.345 294.441 225.012C290.402 224.834 291.307 226.696 288.501 229.128Z" fill="#241B1B"/>
<path fill-rule="evenodd" clip-rule="evenodd" d="M242.674 20.3503L238.484 20.6573C241.15 23.7157 243.49 21.2709 248.053 25.5103C242.083 25.4402 242.087 23.3631 234.517 24.2679C236.095 25.9 233.991 24.7713 236.333 25.5931C238.451 26.3365 237.399 25.9786 239.301 25.8778C247.908 27.7701 245.79 27.4292 246.15 29.7167C238.259 27.8584 240.422 29.7211 239.121 27.1319C234.589 27.1299 235.177 26.2941 234 28.8745C236.635 31.83 240.319 29.1464 244.951 32.4714C241.929 34.4797 241.276 30.2807 234.356 32.636C236.659 34.8896 242.454 35.495 245.592 36.5951C252.431 38.9908 255.252 38.5628 256.471 41L265 40.4288C264.291 36.4837 263.117 29.2186 260.994 26.1985C260.05 24.8552 258.297 23.1316 257.022 21.0309C256.238 19.7408 256.068 19.1003 255.504 17.9543C255.129 17.1919 255.012 16.8426 254.607 16.2489C253.32 14.3703 255.125 16.0919 253.435 15C249.975 19.2447 253.845 17.8301 253.437 23.4301L242.674 20.3503V20.3503Z" fill="#F6AB93" stroke="#F6AB93" stroke-width="0.0762" stroke-miterlimit="22.9256"/>
<path fill-rule="evenodd" clip-rule="evenodd" d="M362.326 63.7393C362.738 64.2048 370.947 67.6293 372.664 68.5444C378.762 71.7957 378.32 69.5311 380.724 76.7845C383.183 84.205 386.702 94.1087 388.108 101.48C388.133 101.477 390.637 101.021 390.656 101.024C392.623 101.382 390.324 99.8286 392.327 102C392.632 101.529 392.981 101.325 393.448 100.048C394.039 98.4305 393.724 99.1095 394 97.7396C391.407 88.0782 382.755 65.8062 382.833 59.2475C382.877 55.3839 383.685 56.9756 383.936 53C379.819 53.805 381.462 54.4764 379.212 58.0249C373.513 57.9329 376.785 56.741 372.505 56.6912C371.679 55.5269 373.82 54.9492 365.753 53.6452C365.596 53.8175 365.363 53.8653 365.293 54.173L362.585 56.9704C362.48 57.0772 362.245 57.2994 362.089 57.4761L365.231 59.0023L362 59.7742L362.326 63.7393V63.7393Z" fill="#FBAE91" stroke="#F6AB93" stroke-width="0.0762" stroke-miterlimit="22.9256"/>
<path fill-rule="evenodd" clip-rule="evenodd" d="M307.933 238.159L305.842 241.188C303.28 244.639 303.394 245.637 301 247.333C301.96 252.499 306.493 253.437 311.466 254.83C316.066 256.118 322.031 257.685 327.169 256.68C329.357 254.209 326.66 250.16 325.532 247.236C325.098 246.108 324.046 243.449 323.621 242.641C321.475 238.548 324.085 241.359 319.974 238.869C316.812 238.091 313.375 236.62 310.433 236C309.073 236.914 309.383 236.32 307.933 238.159V238.159Z" fill="#282324"/>
<path fill-rule="evenodd" clip-rule="evenodd" d="M416 253.674C416.266 257.719 416.869 257.438 419.958 259C422.927 260.502 423.768 260.964 425.797 262.53C427.277 263.426 427.763 263.85 429.059 264.797C428.65 266.611 428.98 266.09 427.717 267.677C427.988 270.975 428.449 272.003 430.935 274.341C432.039 275.378 434.467 277.576 435.495 278.278C436.699 280.516 440.071 286.939 441.68 289C447.63 287.086 448.65 280.257 444.433 275.62C438.615 273.178 432.059 270.074 432.866 262.882C435.992 263.06 435.475 264.068 438.275 263.948L436.726 261.485C436.26 258.715 436.105 258.383 433.458 257.391C429.494 257.244 431.347 257.36 428.284 256.34C426.746 255.827 425.458 255.434 424.247 254.918C419.72 252.993 420.786 252.872 419.556 248C418.96 249.379 417.311 251.283 416 253.674V253.674Z" fill="#1C1B1B"/>
<path fill-rule="evenodd" clip-rule="evenodd" d="M396 266.784C397.997 268.773 412.432 272.491 415.852 273.169C419.52 273.896 422.727 274.443 426.165 275.518C430.156 276.768 432.825 278.664 436 279C434.939 278.272 432.434 275.995 431.294 274.92C428.729 272.497 428.253 271.432 427.974 268.015L420.265 262.388C424.227 261.958 422.796 262.372 425.992 262.681C423.898 261.058 423.03 260.58 419.966 259.024C416.779 257.405 416.157 257.696 415.882 253.505C412.255 253.489 414.666 253.904 414.004 252C413.865 252.178 413.68 252.423 413.594 252.538L406.743 262.151C404.763 264.851 400.161 268.526 396 266.784V266.784Z" fill="#F29B82" stroke="#F29B82" stroke-width="0.0762" stroke-miterlimit="22.9256"/>
<path fill-rule="evenodd" clip-rule="evenodd" d="M349.199 68L357.299 65.7109C360.077 59.6703 358.685 58.1722 358.393 51.274L358.415 40.2534C351.895 41.6861 357.281 46.3648 354.268 49.8947C352.295 47.7703 354.127 42.1819 353.729 38L350.508 39.1508C348.472 37.8662 347.506 37.1209 346.336 40.9909C345.752 42.9195 346.128 42.6546 345.852 44.3054C345.495 46.429 346.123 44.01 345.601 45.905C344.918 48.3869 345.878 46.2253 344.705 47.6644C345.428 44.7499 345.718 42.3715 344.086 39.9439C340.878 43.9044 343.578 51.1706 343.511 56.321C337.932 55.3828 339.376 51.3364 335 54.4035C336.493 58.5264 336.264 53.9359 341.955 61.1859C348.034 68.9295 346.163 64.205 349.199 68V68Z" fill="#FBAE91" stroke="#F6AB93" stroke-width="0.0762" stroke-miterlimit="22.9256"/>
<path fill-rule="evenodd" clip-rule="evenodd" d="M289 76.7397L289.546 81.1156H290.751C290.591 64.1431 320.344 67.8676 323.475 72.9837C325.345 76.0419 325.137 81.7301 329.476 83L330.667 79.4285L332 63C329.199 64.5731 325.8 65.7963 322.062 66.6929C315.221 68.333 316.976 67.96 310.593 66.1373C303.232 64.0345 297.859 70.4177 289.239 66.9425L289 76.7397V76.7397Z" fill="#571809"/>
<path fill-rule="evenodd" clip-rule="evenodd" d="M346.206 119.145C346.545 123.436 345.941 128.319 344.473 132.062C344.175 133.555 344.403 133.588 343.701 135.25C341.913 139.483 343.708 135.647 342.12 137.694C341.217 141.021 340.617 141.455 337.312 142.951C338.04 145.07 335.09 145.465 339.427 144.506L341.749 142.771C346.586 142.237 348.929 136.793 351.55 133.063L354.748 120.095C354.921 116.187 355.461 113.336 354.1 109.558C353.251 107.202 352.036 104.223 348.874 104L346.206 119.145V119.145Z" fill="#D72F26"/>
<path fill-rule="evenodd" clip-rule="evenodd" d="M397.256 130.359C397.102 131.954 399.182 135.095 401.709 136.458C404.689 138.065 407.471 135.685 409.699 134.669L413 131.957C409.712 126.15 407.371 132.2 400.089 116.368C398.856 114.765 399.76 118.374 397.858 113C397.141 117.706 396.689 127.484 397.256 130.359Z" fill="#250804"/>
<path fill-rule="evenodd" clip-rule="evenodd" d="M318.945 93.222C314.742 92.668 302.068 93.1227 299 94.9053C299.477 98.8259 303.588 103.372 307.697 103.908C314.25 104.761 319.605 99.5703 318.945 93.222V93.222Z" fill="#FCFCFC" stroke="white" stroke-width="0.0762" stroke-miterlimit="22.9256"/>
<path fill-rule="evenodd" clip-rule="evenodd" d="M328.26 145L340 144.096C335.828 145.049 338.666 144.657 337.966 142.551C327.363 143.927 319.701 128.719 319.769 124.667C319.834 120.792 320.227 119.219 315.845 118L314 122.671C316.1 127.087 315.901 123.326 317.374 129.766C319.866 140.664 322.487 141.263 328.26 145V145Z" fill="#F02818"/>
<path fill-rule="evenodd" clip-rule="evenodd" d="M424.467 136.614C426.95 138.93 425.363 139.494 429.485 140L439.962 122.555C439.372 119.496 440.947 121.348 438.945 120C435.829 121.907 435.118 124.632 431.187 127.352C428.612 129.133 423.667 130.669 422 132.94C422.355 135.453 423.944 136.248 423.946 136.244C424.009 136.088 424.303 136.477 424.467 136.614V136.614Z" fill="#180706"/>
<path fill-rule="evenodd" clip-rule="evenodd" d="M427 118.571C423.996 116.831 411.784 115.449 408 116.218C408.377 127.195 425.538 127.769 427 118.571Z" fill="#FCFCFC" stroke="white" stroke-width="0.0762" stroke-miterlimit="22.9256"/>
<path fill-rule="evenodd" clip-rule="evenodd" d="M444.653 276L443.01 271.249C444.214 270.663 444.544 270.754 445.356 270.374L448 268.58C446.878 266.027 446.557 266.492 442.716 265.308C438.45 263.993 440.492 264.183 437.596 262L439.015 264.44C436.451 264.559 436.924 263.56 434.062 263.383C433.323 270.507 439.326 273.582 444.653 276V276Z" fill="#333333"/>
<path fill-rule="evenodd" clip-rule="evenodd" d="M433.847 257C432.725 253.353 433.382 255.706 431.547 252.73C431.702 252.581 431.973 252.159 432.049 252.325L434.101 250.865C436.655 248.507 435.395 251.596 436 247L420 247.136C421.225 252.253 420.163 252.381 424.673 254.403C425.879 254.944 427.162 255.357 428.694 255.896C431.745 256.968 429.9 256.846 433.847 257V257Z" fill="#322C2B"/>
<path fill-rule="evenodd" clip-rule="evenodd" d="M444 97.2195C443.461 94.2444 444.314 96.8719 443.407 94.3892C442.337 91.4593 442.876 93.1062 442.041 92C439.479 95.0528 443.983 90.4877 435.97 94.5728L433 96.5571C433.132 96.7865 433.325 100.692 438.394 99.8923C441.507 99.4007 441.074 96.9249 444 97.2195Z" fill="#512315"/>
<path fill-rule="evenodd" clip-rule="evenodd" d="M282 273.683C288.826 272.731 286.333 274.916 288.253 278C287.456 274.084 289.661 269.889 291 266.334L284.546 264C284.397 267.119 284.037 265.759 283.468 268.615C282.691 272.513 284.322 270.645 282 273.683V273.683Z" fill="#4C4D50"/>
<path fill-rule="evenodd" clip-rule="evenodd" d="M298 243.753C301.463 243.48 301.786 243.9 301.308 247C303.619 245.332 303.509 244.35 305.982 240.954L308 237.975L303.316 235C301.801 237.605 301.895 236.758 300.328 239.803C299.493 241.426 298.935 242.384 298 243.753V243.753Z" fill="#4C4D50"/>
<path fill-rule="evenodd" clip-rule="evenodd" d="M387.501 100.689C385.679 104.301 389.329 110.539 390.418 114L392 101.231C389.864 98.9721 392.315 100.588 390.218 100.215C390.198 100.212 387.529 100.686 387.501 100.689V100.689Z" fill="#F7F7F6"/>
<path fill-rule="evenodd" clip-rule="evenodd" d="M410 99C414.85 97.4214 420.356 96.0236 421 91C419.163 92.1188 417.734 92.9045 415.53 94.3427L410 99Z" fill="#B07768"/>
<path fill-rule="evenodd" clip-rule="evenodd" d="M426 112.542C429.685 112.179 427.058 112.116 430.006 110.957C433.117 114.078 430.497 112.32 434 114C431.566 107.144 427.092 108.016 426 112.542Z" fill="#2C1313"/>
<path fill-rule="evenodd" clip-rule="evenodd" d="M404 110.334C407.558 109.791 404.849 110.021 408.162 108.288C411.117 110.041 408.816 109.188 412 111C409.534 101.76 404.866 107.649 404 110.334Z" fill="#2C1313"/>
<path fill-rule="evenodd" clip-rule="evenodd" d="M293.063 87.5056C293.507 89.2141 291.782 88.5639 295.094 89L295.256 86.8309C299.97 87.5946 296.175 87.3696 300 88.6538C299.419 85.6213 299.476 86.4579 297.274 85C294.187 85.6555 294.602 85.539 293.063 87.5056Z" fill="#43130A"/>
<path fill-rule="evenodd" clip-rule="evenodd" d="M318.551 85.5573C320.802 86.2678 319.901 86.1926 322 86.8039C321.189 82.6391 316.381 83.4596 315 87L318.551 85.5573Z" fill="#43130A"/>
</svg>
