<svg width="494" height="370" viewBox="0 0 494 370" fill="none" xmlns="http://www.w3.org/2000/svg">
<path d="M634 0H0V370H634V0Z" fill="#1FC0C3"/>
<path d="M40.0856 370H548.1V0H40.0856V370Z" fill="#1FC0C3"/>
<path d="M371.168 357.971C355.681 357.971 343.127 355.425 343.127 352.285C343.127 349.145 355.681 346.599 371.168 346.599C386.655 346.599 399.21 349.145 399.21 352.285C399.21 355.425 386.655 357.971 371.168 357.971Z" fill="#10A5A8"/>
<path d="M284.164 357.971C268.677 357.971 256.122 355.425 256.122 352.285C256.122 349.145 268.677 346.599 284.164 346.599C299.65 346.599 312.205 349.145 312.205 352.285C312.205 355.425 299.65 357.971 284.164 357.971V357.971Z" fill="#10A5A8"/>
<path d="M458.173 357.971C442.687 357.971 430.132 355.425 430.132 352.285C430.132 349.145 442.687 346.599 458.173 346.599C473.66 346.599 486.215 349.145 486.215 352.285C486.215 355.425 473.66 357.971 458.173 357.971Z" fill="#10A5A8"/>
<path d="M376.429 281.019L372.511 286.039L375.429 288.309L379.773 282.744L376.429 281.019Z" fill="#EAC5B0"/>
<path d="M375.592 287.925L373.546 285.228L372.248 284.664L369.947 285.639L372.062 294.12C373.325 294.458 374.568 293.518 374.584 292.213L374.589 291.782L375.592 287.925Z" fill="#1A3151"/>
<path d="M363.957 281.024L367.88 286.041L364.963 288.313L360.614 282.751L363.957 281.024Z" fill="#EAC5B0"/>
<path d="M364.771 288.282L366.502 285.374L367.729 284.669L370.125 285.381L368.971 294.045C367.755 294.522 366.414 293.726 366.253 292.431L366.2 292.003L364.771 288.282V288.282Z" fill="#1A3151"/>
<path d="M397.586 231.391C395.022 225.343 391.797 221.191 389.045 215.492C385.816 214.981 382.569 213.928 379.338 213.164C379.578 212.758 379.812 212.351 380.055 211.947C375.717 212.342 371.282 211.863 366.955 212.366C365.16 212.442 363.364 212.5 361.56 212.395C361.772 212.734 361.988 213.07 362.201 213.409C359.059 214.383 355.977 215.749 352.808 216.493C350.432 222.524 347.847 227.155 345.872 233.612C343.897 240.069 342.617 248.31 340.372 255.02C346.843 265.322 355.178 277.237 361.472 287.604C363.709 286.742 364.291 284.007 366.566 283.249C363.642 273.723 361.111 264.084 357.881 254.654C361.552 248.224 364.774 241.593 367.997 234.959C369.511 231.842 373.865 231.59 375.731 234.512C379.438 240.316 383.084 246.158 386.55 252.123C382.989 262.839 378.231 272.92 373.766 283.267C375.891 284.37 375.833 286.915 377.962 288.014C386.421 276.582 396.871 263.993 404.261 251.769C402.018 245.304 400.15 237.438 397.586 231.391V231.391Z" fill="#1A3151"/>
<path d="M379.226 152.411C378.523 151.901 377.736 151.472 376.852 151.141C375.322 150.569 373.644 150.554 372.01 150.606C368.258 150.725 364.229 151.285 361.486 153.845C356.313 158.674 356.882 169.488 355.91 176.172C355.152 181.387 354.393 186.6 353.635 191.815L351.542 216.877L380.744 217.324L390.357 215.789L387.883 189.475C387.342 183.719 386.479 177.976 385.778 172.238C385.019 166.023 384.906 156.541 379.226 152.411Z" fill="#145566"/>
<path d="M375.576 130.847C374.126 129.387 372.071 128.545 370.012 128.566C362.867 128.64 362.323 135.58 363.653 140.98C364.239 143.359 365.414 145.693 367.404 147.127C367.944 147.517 368.553 147.821 369.191 148.037C368.901 149.018 369.094 150.291 369.031 151.307C368.994 151.922 368.81 152.453 369.202 152.948C369.693 153.567 370.774 153.642 371.491 153.622C372.067 153.606 372.665 153.529 373.144 153.211C373.931 152.687 373.742 151.972 373.71 151.184C373.663 150.054 373.808 148.926 373.706 147.793C373.906 147.689 374.1 147.576 374.286 147.441C376.198 146.054 376.818 143.519 377.176 141.187C377.64 138.157 377.92 133.208 375.576 130.847Z" fill="#EAC5B0"/>
<path d="M376.068 137.494C376.297 137.764 376.687 137.832 376.966 138.05C377.897 138.78 376.994 140.386 377.558 141.426C378.28 142.758 378.15 145.096 376.764 146.202C376.294 146.578 375.66 146.841 375.463 147.41C375.234 148.072 375.697 148.93 375.224 149.446C375.976 150.221 377.268 150.056 378.266 149.641C379.264 149.227 380.24 148.609 381.32 148.648C381.663 148.66 382.074 148.714 382.287 148.445C382.414 148.284 382.416 148.061 382.437 147.856C382.687 145.38 385.611 146.014 386.001 144.006C386.106 143.466 385.446 142.133 385.457 141.427C385.476 140.301 386.12 139.297 385.737 138.143C385.578 137.666 385.26 137.255 385.097 136.78C384.764 135.815 385.112 134.767 385.311 133.765C385.51 132.763 385.478 131.549 384.656 130.941C384.014 130.464 383.084 130.524 382.451 130.035C381.051 128.951 382.079 126.122 380.501 125.315C379.692 124.901 378.708 125.354 377.809 125.223C376.859 125.085 376.142 124.329 375.347 123.79C374.553 123.252 373.363 122.963 372.715 123.67C372.169 124.266 372.316 125.258 371.815 125.892C371.386 126.434 370.627 126.551 369.999 126.846C367.06 128.232 372.596 129.137 373.392 130.109C374.061 130.927 374.775 132.467 375.262 133.41C375.827 134.508 375.467 136.785 376.068 137.494V137.494Z" fill="#1A3151"/>
<path d="M367.495 130.525C363.9 131.288 366.081 133.969 364.932 136.158C364.479 137.019 363.242 137.343 362.996 138.285C362.798 139.043 363.353 139.765 363.797 140.412C364.24 141.058 364.581 141.994 364.045 142.566C363.884 142.739 363.658 142.854 363.545 143.062C363.25 143.603 363.918 144.153 364.486 144.398C365.052 144.643 365.746 145.125 365.521 145.698C364.86 147.375 364.436 146.667 365.509 148.092C365.768 148.436 366.216 148.376 366.466 148.727C365.999 149.23 365.303 149.409 364.626 149.147C362.953 148.499 363.415 149.312 362.107 149.517C360.731 149.734 360.687 149.312 359.482 148.545C358.358 147.829 356.002 147.328 355.604 145.877C355.381 145.065 356.012 144.23 355.827 143.413C355.652 142.647 354.804 142.066 354.412 141.344C353.619 139.884 354.82 138.287 355.068 136.724C355.412 134.558 354.129 131.862 356.418 130.497C356.91 130.203 357.511 130.027 358.014 129.743C359.494 128.906 359.788 127.38 360.367 126.067C360.947 124.754 362.444 123.347 364.262 123.65C365.913 123.924 366.789 125.491 368.466 125.655C369.055 125.713 369.698 125.588 370.217 125.8C370.622 125.967 370.843 126.297 371.014 126.615C371.413 127.353 372.577 129.834 371.698 130.517C370.555 131.406 369.02 130.201 367.495 130.525V130.525Z" fill="#1A3151"/>
<path d="M381.14 138.987C381.314 138.725 381.489 138.436 381.526 138.116C381.584 137.618 381.329 137.237 380.911 136.989C380.665 136.844 380.393 136.764 380.13 136.655C379.577 136.422 379.129 136.162 379.383 135.358C379.423 135.23 379.534 135.103 379.589 134.979C379.792 134.517 379.838 133.956 379.68 133.473C379.557 133.098 379.299 132.771 378.916 132.646C378.602 132.544 378.299 132.653 377.983 132.632C376.802 132.551 377.245 131.462 377.324 130.799C377.463 129.618 376.651 128.611 375.476 128.459C375.293 128.436 375.293 128.723 375.475 128.747C376.067 128.823 376.573 129.168 376.861 129.692C377.15 130.218 377.034 130.736 376.938 131.3C376.857 131.774 376.833 132.354 377.233 132.703C377.86 133.25 378.778 132.501 379.295 133.308C379.792 134.085 379.241 134.739 379.015 135.455C378.441 137.268 382.144 136.692 381.016 138.651C380.725 139.157 380.169 139.653 380.263 140.297C380.332 140.762 380.688 141.126 381.167 141.076C381.349 141.057 381.352 140.77 381.168 140.789C380.382 140.871 380.554 139.898 380.754 139.546C380.867 139.349 381.015 139.176 381.14 138.987Z" fill="#C69C6D"/>
<path d="M364.899 129.759C363.894 129.634 362.332 129.663 362.191 130.982C362.119 131.664 362.526 132.278 362.634 132.931C362.85 134.24 361.53 134.516 360.61 134.909C359.625 135.33 358.767 136.464 359.814 137.321C359.94 137.409 360.065 137.5 360.186 137.595C360.111 137.887 360.037 138.178 359.962 138.47C359.873 138.584 359.615 138.674 359.502 138.774C359.347 138.912 359.201 139.067 359.172 139.281C359.122 139.649 359.353 139.938 359.71 139.954C359.895 139.962 359.895 139.675 359.711 139.666C359.738 139.416 359.766 139.164 359.793 138.914C359.871 138.864 359.949 138.815 360.028 138.767C360.103 138.704 360.197 138.663 360.272 138.599C360.389 138.502 360.503 138.389 360.571 138.252C360.733 137.926 360.636 137.636 360.39 137.392C360.148 137.151 359.895 137.069 359.732 136.73C359.456 136.156 359.85 135.645 360.368 135.341C360.908 135.023 361.552 134.93 362.09 134.602C362.949 134.077 363.069 133.289 362.784 132.379C362.569 131.69 362.173 130.775 362.929 130.27C363.488 129.896 364.263 129.968 364.898 130.047C365.082 130.07 365.08 129.782 364.899 129.759V129.759Z" fill="#C69C6D"/>
<path d="M358.188 134.927C358.366 134.875 358.291 134.597 358.113 134.65C357.327 134.881 356.313 135.275 356.338 136.258C356.345 136.537 356.457 136.787 356.67 136.968C356.993 137.243 357.386 137.223 357.663 137.58C358.2 138.269 357.514 139.107 356.699 138.862C356.521 138.808 356.445 139.085 356.621 139.138C357.416 139.378 358.3 138.828 358.173 137.935C358.104 137.45 357.814 137.218 357.416 136.994C356.85 136.676 356.353 136.194 356.886 135.569C357.204 135.196 357.74 135.06 358.188 134.927V134.927Z" fill="#C69C6D"/>
<path d="M332.812 70.6312H406.365C408.171 66.0887 409.196 61.1362 409.267 55.9477H329.91C329.981 61.1362 331.005 66.0887 332.812 70.6312V70.6312Z" fill="#FFD559"/>
<path d="M340.456 85.3146H398.72C400.019 82.6486 401.488 79.8698 403.151 77.0204H403.15C404.397 75.0039 405.475 72.8672 406.365 70.6311H332.812C333.701 72.8672 334.78 75.0039 336.027 77.0204H336.025C337.688 79.8698 339.158 82.6486 340.456 85.3146V85.3146Z" fill="#EBB044"/>
<path d="M346.474 99.998H392.702C394.092 95.8432 396.039 90.8206 398.72 85.3146H340.456C343.137 90.8206 345.084 95.8432 346.474 99.998Z" fill="#D1E7F5"/>
<path d="M392.702 99.998H346.474C348.879 107.187 349.62 111.778 349.62 111.778H369.588H389.557C389.557 111.778 390.297 107.187 392.702 99.998V99.998Z" fill="#3ABABA"/>
<path d="M341.629 26.5808H397.547C390.374 19.2997 380.495 14.8 369.588 14.8C358.681 14.8 348.803 19.2997 341.629 26.5808Z" fill="#FFD559"/>
<path d="M332.371 41.2642H406.806C404.783 35.6889 401.597 30.6917 397.547 26.5813H341.629C337.58 30.6917 334.393 35.6889 332.371 41.2642V41.2642Z" fill="#D1E7F5"/>
<path d="M329.91 55.9476H409.267C409.269 55.7545 409.271 55.5614 409.271 55.3677C409.271 50.408 408.399 45.6571 406.805 41.2642H332.371C330.777 45.6571 329.905 50.408 329.905 55.3677C329.905 55.5614 329.907 55.7545 329.91 55.9476Z" fill="#C8D6A1"/>
<path d="M338.489 70.6312H337.533C335.383 66.1841 334.119 61.2091 333.978 55.9477H336.663C336.585 56.9213 336.544 57.9079 336.544 58.9022C336.544 63.0129 337.23 66.9604 338.489 70.6312V70.6312Z" fill="#FFEEBB"/>
<path d="M341.148 76.5544C339.761 74.7146 338.548 72.7319 337.533 70.6311H338.49C339.199 72.6999 340.092 74.6808 341.148 76.5544Z" fill="#F7DEB2"/>
<path d="M389.334 26.5807H385.372C381.044 24.5914 376.243 23.4854 371.189 23.4854C366.134 23.4854 361.333 24.5919 357.003 26.5807H347.885C353.665 22.163 360.838 19.5472 368.61 19.5472C376.382 19.5472 383.555 22.163 389.334 26.5807V26.5807Z" fill="#FFEEBB"/>
<path d="M341.14 41.2641H336.653C339.061 35.3998 342.969 30.3389 347.885 26.5807H357.003C350.323 29.6493 344.768 34.8175 341.14 41.2641V41.2641ZM398.652 37.3122C395.179 32.7037 390.623 28.993 385.372 26.5807H389.334C393.109 29.4654 396.288 33.118 398.652 37.3122V37.3122Z" fill="#ECF5FB"/>
<path d="M336.663 55.9476H333.979C333.97 55.6208 333.966 55.2932 333.966 54.9645C333.966 50.1076 334.922 45.4782 336.653 41.2642H341.14C338.669 45.6529 337.092 50.6337 336.663 55.9476Z" fill="#E8EED8"/>
<path d="M362.026 111.976L357.219 60.0478L363.917 65.742L369.762 56.2766L375.685 65.44L382.271 59.9986L377.459 111.976H379.509L384.759 55.2604L376.149 62.374L369.723 52.4327L363.433 62.6184L354.721 55.2118L359.976 111.976H362.026Z" fill="#F5F6F5"/>
<path d="M357.741 141.077V147.445C357.741 149.514 359.382 151.191 361.406 151.191H377.771C379.794 151.191 381.435 149.514 381.435 147.445V141.077H357.741V141.077Z" fill="#737270"/>
<path d="M349.16 111.976V139.03C349.16 140.161 350.035 141.077 351.114 141.077H388.062C389.142 141.077 390.017 140.161 390.017 139.03V111.976H349.16Z" fill="#B0AFAD"/>
<path d="M349.16 123.69H390.017V118.694H349.16V123.69Z" fill="#888482"/>
<path d="M349.16 134.359H390.017V129.363H349.16V134.359Z" fill="#888482"/>
<path d="M371.559 129.363H390.017V123.69H378.631C376.249 125.844 373.881 127.722 371.559 129.363V129.363Z" fill="#94908B"/>
<path d="M390.017 118.694V111.976H389.374C387.496 114.417 385.598 116.651 383.693 118.694H390.017Z" fill="#94908B"/>
<path d="M351.114 141.077H388.063C389.142 141.077 390.017 140.161 390.017 139.03V134.359H363.339C357.929 137.137 353.059 138.683 349.229 139.541C349.446 140.423 350.204 141.077 351.114 141.077Z" fill="#94908B"/>
<path d="M378.631 123.69H390.017V118.694H383.693C382.006 120.502 380.315 122.167 378.631 123.69Z" fill="#737270"/>
<path d="M363.339 134.359H390.017V129.363H371.56C368.731 131.362 365.971 133.007 363.339 134.359V134.359Z" fill="#737270"/>
<path d="M381.435 144.945C376.827 149.481 368 150.853 365.083 151.191H377.771C379.794 151.191 381.435 149.514 381.435 147.445V144.945V144.945Z" fill="#5D5A5A"/>
<path d="M394.47 124.89C394.122 123.757 393.549 122.693 392.645 121.907C392.001 121.346 389.899 119.833 389.123 120.992C389.077 121.062 389.069 121.15 389.065 121.233C389.032 121.917 389.01 123.136 389.415 123.73C389.801 124.295 390.389 124.08 390.91 124.557C391.252 124.871 391.326 125.511 390.935 125.76C390.717 125.899 390.438 125.875 390.184 125.924C389.93 125.973 389.654 126.177 389.708 126.429C389.737 126.564 389.853 126.66 389.961 126.746C390.46 127.141 390.96 127.538 391.459 127.933C392.185 128.509 392.99 129.279 392.821 130.188C393.637 130.254 394.462 130.203 395.264 130.04C395.071 128.286 394.956 126.474 394.47 124.89V124.89Z" fill="#EAC5B0"/>
<path d="M378.233 163.805C377.906 162.833 377.608 161.839 377.324 160.804C377.159 160.201 375.254 151.063 376.773 151.383C380.122 152.089 383.551 152.229 386.953 151.908C387.453 151.86 392.583 151.504 392.579 151.024C392.545 145.908 392.364 140.793 392.035 135.687C391.872 133.146 391.418 130.529 391.415 127.989C391.414 126.902 391.397 127.099 392.305 126.659C393.044 126.301 394.253 126.059 394.913 126.658C395.516 127.205 395.698 128.062 395.864 128.857C397.201 135.266 399.517 141.407 401.41 147.66C402.658 151.785 404.941 157.414 402.275 161.48C401.412 162.798 400.007 163.648 398.637 164.428C394.078 167.024 389.363 169.348 384.527 171.383C383.949 171.626 383.325 171.869 382.711 171.741C381.817 171.554 381.278 170.667 380.845 169.863C379.749 167.827 378.926 165.866 378.233 163.805V163.805Z" fill="#145566"/>
<path d="M345.642 126.601C345.99 125.468 346.563 124.404 347.467 123.617C348.111 123.057 350.213 121.544 350.989 122.703C351.036 122.772 351.043 122.86 351.047 122.943C351.081 123.628 351.102 124.847 350.697 125.44C350.311 126.006 349.723 125.791 349.203 126.268C348.86 126.581 348.786 127.222 349.177 127.47C349.395 127.609 349.675 127.586 349.928 127.635C350.182 127.684 350.458 127.887 350.404 128.139C350.375 128.275 350.26 128.371 350.151 128.457C349.652 128.853 349.153 129.248 348.653 129.644C347.928 130.219 347.123 130.99 347.291 131.9C346.475 131.965 345.65 131.914 344.848 131.751C345.042 129.997 345.156 128.184 345.642 126.601Z" fill="#EAC5B0"/>
<path d="M363.211 165.768C363.692 162.997 364.03 160.472 364.025 159.991C364.011 158.649 364.198 153.924 362.906 153.211C361.892 152.651 357.688 154.194 356.2 154.036C354.442 153.848 352.879 152.747 351.793 151.355C350.705 149.964 350.036 148.297 349.459 146.629C348.537 143.958 347.394 140.97 347.643 138.13C347.888 135.322 348.694 132.592 348.697 129.7C348.698 128.612 348.715 128.81 347.807 128.37C347.069 128.012 345.86 127.77 345.199 128.369C343.488 129.92 343.257 133.428 342.736 135.512C341.901 138.853 341.066 142.193 340.232 145.534C339.711 147.617 339.187 149.761 339.476 151.889C339.771 154.049 340.882 156.009 342.1 157.819C346.748 164.728 353.299 170.347 360.843 173.891C361.536 174.217 362.521 169.741 363.211 165.768V165.768Z" fill="#145566"/>
<path d="M180.989 204.584C180.987 204.584 180.985 204.584 180.983 204.584C180.985 204.584 180.987 204.584 180.989 204.584ZM180.979 204.584C180.978 204.584 180.976 204.584 180.974 204.584C180.976 204.584 180.978 204.584 180.979 204.584ZM180.969 204.584C180.968 204.584 180.967 204.584 180.965 204.584C180.967 204.584 180.968 204.584 180.969 204.584ZM180.96 204.583C180.959 204.583 180.958 204.583 180.957 204.583C180.958 204.583 180.959 204.583 180.96 204.583Z" fill="#A1BFB4"/>
<path d="M274.358 351.002L273.816 353.79L267.963 355.662L265.851 352.417L269.049 350.087L274.901 348.215L274.358 351.002Z" fill="#1A3151"/>
<path d="M290.667 347.868L290.914 350.76L296.597 353.173L299.067 350.041L296.102 347.388L290.667 347.868Z" fill="#1A3151"/>
<path d="M265.851 265.861L263.372 274.85L264.657 278.959L264.535 278.945L266.074 302.642L269.329 350.35L274.811 350.152L284.658 294.39L285.375 296.97L290.692 348.507L295.719 348.064L303.506 280.808V267.17L265.851 265.861Z" fill="#145566"/>
<path d="M288.176 203.626L281.754 203.091C267.403 201.897 266.382 221.871 264.52 231.807C261.823 246.199 260.637 260.945 262.015 275.553C266.529 273.092 272.784 273.604 277.915 273.427C287.365 273.101 297.145 272.843 306.257 274.294C307.958 274.565 307.214 262.329 306.869 260.054C306.167 255.423 305.465 250.791 304.763 246.16C303.494 237.79 302.225 229.42 300.957 221.049C300.919 220.804 300.882 220.558 300.845 220.313C300.708 219.411 300.406 218.544 299.954 217.752L294.005 207.338C292.794 205.217 290.613 203.829 288.176 203.626V203.626Z" fill="white"/>
<path d="M294.093 185.266C292.094 185.902 289.963 185.662 287.845 185.423C285.432 185.151 283.033 184.878 280.861 185.899C278.656 186.934 276.633 189.413 276.818 191.889C277.014 194.525 277.802 197.519 279.395 199.66C280.805 201.555 281.281 202.295 280.594 204.561C281.501 205.253 282.408 205.946 283.315 206.64C283.521 206.797 283.735 206.958 283.988 207.019C284.347 207.104 284.718 206.972 285.062 206.842C285.729 206.591 286.396 206.34 287.063 206.089C287.766 205.824 287.644 203.413 287.746 202.761C287.792 202.471 287.843 202.173 287.999 201.924C288.183 201.63 288.491 201.439 288.786 201.256C292.293 199.074 295.117 194.849 295.073 190.636C295.054 188.806 294.578 187.022 294.093 185.266Z" fill="#EAC5B0"/>
<path d="M283.631 185.852C283.797 185.834 283.964 185.82 284.13 185.81C286.535 185.654 288.97 186.046 291.223 186.904C292.765 187.491 294.393 188.549 294.512 190.367C294.566 191.189 294.351 192.002 294.137 192.798C293.87 193.795 293.603 194.791 293.335 195.788C293.287 195.967 293.239 196.156 293.284 196.336C293.423 196.882 294.254 196.87 294.693 196.517C296.297 195.229 298.428 193.087 299.308 191.246C300.026 189.744 299.929 187.746 300.974 186.422C301.664 185.547 302.242 184.16 303.234 183.677C304.594 183.014 305.991 182.303 306.948 181.132C307.905 179.96 308.303 178.196 307.483 176.925C306.703 175.716 305.118 175.32 303.678 175.251C302.239 175.183 300.744 175.332 299.401 174.811C298.819 174.585 298.279 174.236 297.666 174.115C295.657 173.72 292.548 174.328 290.717 175.258C289.01 176.126 287.375 177.259 285.483 177.562C284.638 177.697 283.781 177.659 282.923 177.621C282.241 177.591 281.557 177.561 280.879 177.618C278.324 177.832 275.941 179.339 274.529 181.476C272.947 183.87 272.318 187.226 273.746 189.783C274.461 191.065 274.964 192.426 275.479 193.793C275.658 194.268 276.9 196.169 277.178 194.576C277.393 193.339 277.204 192.057 277.428 190.821C277.974 187.81 280.772 186.15 283.631 185.852V185.852Z" fill="#1A3151"/>
<path d="M268.375 180.815L265.215 179.442L266.879 173.966L270.425 173.361L272.472 175.681L270.332 177.374L270.925 177.631L271.777 177.287L272.109 178.146L268.375 180.815Z" fill="#EAC5B0"/>
<path d="M271.569 223.826C274.427 218.108 275.362 211.449 274.174 205.17C270.622 204.749 267.194 203.327 264.391 201.11C264.221 200.977 264.051 200.836 263.949 200.647C263.736 200.254 263.869 199.771 264.007 199.346C266.036 193.076 268.35 186.83 270.003 180.47L265.27 178.158C263.799 180.811 262.327 183.465 260.856 186.119C259.112 189.263 257.369 192.407 255.626 195.55C254.983 196.708 254.342 197.866 253.7 199.024C253.468 199.441 253.214 199.848 252.981 200.263C251.781 202.406 253.296 206.02 254.044 208.104C255.128 211.124 256.559 214.006 257.984 216.877C259.577 220.085 261.169 223.294 262.761 226.502C263.418 227.827 264.286 229.313 265.749 229.541C268.394 229.953 270.217 226.382 271.227 224.486C271.344 224.268 271.457 224.047 271.569 223.826V223.826Z" fill="white"/>
<path d="M302.325 183.377L305.641 182.439L304.726 176.79L301.293 175.716L298.954 177.742L300.847 179.705L300.225 179.881L299.426 179.426L298.982 180.233L302.325 183.377Z" fill="#EAC5B0"/>
<path d="M293.386 225.572C291.322 219.524 288.687 211.504 290.708 205.44C294.284 205.498 300.473 205.844 303.549 204.021C303.734 203.912 303.922 203.795 304.048 203.622C304.312 203.261 304.245 202.765 304.166 202.325C302.997 195.84 301.542 189.341 300.757 182.817L305.758 181.159C306.86 183.985 307.962 186.812 309.064 189.638C310.37 192.987 311.675 196.336 312.981 199.685C313.462 200.918 313.942 202.151 314.423 203.384C314.597 203.829 314.794 204.266 314.968 204.708C315.871 206.993 313.884 210.372 312.864 212.336C311.384 215.185 309.579 217.849 307.781 220.504C305.772 223.47 303.764 226.436 301.755 229.402C300.925 230.628 299.867 231.984 298.387 232.014C295.71 232.07 294.383 228.287 293.636 226.273C293.55 226.04 293.467 225.807 293.386 225.572V225.572Z" fill="white"/>
<path d="M275.567 204.584V209.809C275.567 211.505 276.911 212.881 278.57 212.881H291.98C293.638 212.881 294.982 211.505 294.982 209.809V204.584H275.567Z" fill="#1A3151"/>
<path d="M317.791 134.436C317.791 116.056 303.233 101.157 285.275 101.157C267.316 101.157 252.757 116.056 252.757 134.436C252.757 140.967 254.597 147.058 257.774 152.198H257.772C266.821 167.716 268.912 180.712 268.912 180.712H301.637C301.637 180.712 303.728 167.716 312.777 152.198H312.775C315.951 147.058 317.791 140.967 317.791 134.436V134.436Z" fill="#FFD559"/>
<path d="M268.535 180.712V202.905C268.535 203.833 269.252 204.584 270.136 204.584H300.413C301.297 204.584 302.014 203.833 302.014 202.905V180.712H268.535V180.712Z" fill="#9EA6AD"/>
<path d="M317.213 128.205C308.954 144.731 292.914 170.261 268.896 180.622C268.905 180.676 268.912 180.712 268.912 180.712H301.637C301.637 180.712 303.728 167.716 312.777 152.199H312.775C315.951 147.058 317.791 140.967 317.791 134.436C317.791 132.305 317.587 130.224 317.213 128.205V128.205Z" fill="#FDBE0F"/>
<path d="M258.071 137.173C258.071 121.127 270.781 108.119 286.46 108.119C295.624 108.119 303.772 112.565 308.963 119.462C304.061 110.753 294.873 104.889 284.346 104.889C268.668 104.889 255.958 117.897 255.958 133.943C255.958 140.61 258.154 146.751 261.843 151.654C259.444 147.391 258.071 142.446 258.071 137.173V137.173Z" fill="#FFDF4D"/>
<path d="M278.951 180.712L275.012 138.113L280.501 142.784L285.29 135.02L290.144 142.537L295.54 138.073L291.597 180.712H293.277L297.579 134.186L290.524 140.021L285.258 131.866L280.104 140.222L272.966 134.146L277.272 180.712H278.951Z" fill="#F6F7F7"/>
<path d="M276.879 176.464L277.272 180.712H278.951L278.466 175.464C277.941 175.804 277.413 176.138 276.879 176.464Z" fill="#EDECED"/>
<path d="M293.221 163.156L291.597 180.712H293.277L295.083 161.178C294.472 161.844 293.852 162.503 293.221 163.156V163.156Z" fill="#EDECED"/>
<path d="M268.535 190.321H302.014V186.222H268.535V190.321Z" fill="#1A3151"/>
<path d="M268.535 199.073H302.014V194.975H268.535V199.073Z" fill="#1A3151"/>
<path d="M270.124 204.584C270.122 204.584 270.119 204.584 270.117 204.584C270.119 204.584 270.122 204.584 270.124 204.584ZM270.114 204.584C270.111 204.584 270.11 204.584 270.107 204.584C270.11 204.584 270.111 204.584 270.114 204.584ZM270.104 204.584C270.102 204.584 270.099 204.584 270.097 204.584C270.099 204.584 270.102 204.584 270.104 204.584ZM270.094 204.583C270.091 204.583 270.089 204.583 270.087 204.583C270.089 204.583 270.091 204.583 270.094 204.583ZM270.084 204.583C270.081 204.583 270.078 204.583 270.075 204.583C270.078 204.583 270.081 204.583 270.084 204.583ZM270.07 204.583C270.069 204.583 270.068 204.582 270.066 204.582C270.068 204.582 270.069 204.583 270.07 204.583ZM270.06 204.582C270.059 204.582 270.058 204.582 270.057 204.582C270.058 204.582 270.059 204.582 270.06 204.582ZM270.05 204.582C270.049 204.582 270.049 204.581 270.049 204.581C270.049 204.581 270.049 204.582 270.05 204.582Z" fill="#E3E3E3"/>
<path d="M300.413 204.584H270.136C270.133 204.584 270.13 204.584 270.126 204.584C270.126 204.584 270.125 204.584 270.124 204.584C270.122 204.584 270.119 204.584 270.117 204.584C270.116 204.584 270.114 204.584 270.114 204.584C270.111 204.584 270.109 204.584 270.107 204.584C270.106 204.584 270.105 204.584 270.104 204.584C270.102 204.584 270.099 204.584 270.097 204.584C270.096 204.584 270.095 204.584 270.094 204.583C270.091 204.583 270.089 204.583 270.087 204.583C270.086 204.583 270.085 204.583 270.084 204.583C270.081 204.583 270.078 204.583 270.075 204.583C270.073 204.583 270.072 204.583 270.07 204.583C270.069 204.583 270.068 204.582 270.066 204.582C270.064 204.582 270.062 204.582 270.06 204.582C270.059 204.582 270.058 204.582 270.057 204.582C270.055 204.582 270.052 204.582 270.05 204.582C270.049 204.582 270.049 204.581 270.049 204.581C269.342 204.542 268.763 204.019 268.591 203.324C271.73 202.62 275.72 201.352 280.153 199.073H302.014V202.905C302.014 203.832 301.297 204.584 300.412 204.584H300.413V204.584ZM302.014 194.975H286.89C288.792 193.629 290.732 192.088 292.684 190.321H302.014V194.975ZM302.014 186.222H296.832C298.393 184.547 299.949 182.714 301.487 180.712H302.014V186.222Z" fill="#8D949A"/>
<path d="M302.014 190.321H292.684C294.064 189.071 295.45 187.706 296.832 186.222H302.014V190.321V190.321Z" fill="#172C48"/>
<path d="M302.014 199.073H280.153C280.153 199.073 280.153 199.073 280.153 199.073C282.311 197.964 284.572 196.615 286.89 194.975H302.014V199.073Z" fill="#172C48"/>
<path d="M465.808 348.288V350.858L472.411 354.154L475.712 350.858L472.411 347.562H471.985L471.879 348.288H465.808Z" fill="#1A3151"/>
<path d="M449.547 347.562H449.091L445.79 350.858L449.091 354.154L455.694 350.858V348.288H449.623L449.547 347.562Z" fill="#1A3151"/>
<path d="M456.75 195.19C453.236 195.07 448.709 197.049 446.492 199.805C444.853 201.845 443.878 204.338 442.928 206.787C440.253 213.685 439.04 220.076 437.706 227.328C436.855 231.953 436.069 236.557 435.45 241.147C434.765 246.232 434.282 251.302 434.142 256.342C434.127 256.899 434.016 258.457 433.954 260.319C433.824 264.217 433.907 269.433 435.524 269.628C435.827 269.664 436.119 269.529 436.385 269.396C438.466 268.371 440.104 267.031 441.939 265.861C442.584 265.45 443.252 265.058 443.974 264.71C445.419 264.012 446.962 263.479 448.545 263.057C445.883 263.198 445.552 262.698 445.552 262.698C445.552 262.698 447.954 252.904 449.64 244.385C450.509 239.995 451.189 235.944 451.251 233.746C451.438 227.137 452.271 205.309 452.271 205.309L456.312 196.959L457.058 196.967C457.004 196.96 456.951 196.954 456.897 196.947C457.073 196.969 456.813 195.334 456.75 195.19V195.19Z" fill="#D1E7F5"/>
<path d="M486.806 265.289C486.393 260.961 485.964 256.634 485.439 252.318C484.393 243.709 482.969 235.122 480.559 226.788C479.639 223.604 478.577 220.465 477.516 217.327C476.223 213.506 474.93 209.684 473.638 205.863C472.031 201.113 469.32 197.768 464.573 196.106C463.725 195.81 462.832 195.581 461.912 195.413C461.89 195.512 461.869 195.611 461.857 195.716C461.802 196.172 461.673 196.678 461.389 197.009L464.505 197.039C464.505 197.039 473.296 228.23 473.62 233.605C473.742 235.649 474.151 240.109 474.605 244.808C475.324 252.245 476.158 260.28 476.158 260.28C476.158 260.28 472.299 260.373 466.715 260.796C467.129 260.786 467.541 260.775 467.954 260.771C471.838 260.736 475.866 262.411 479.584 263.497C479.851 263.575 480.117 263.65 480.381 263.721C481.896 264.13 483.128 265.25 484.386 266.129C486.245 267.427 487.06 267.942 486.806 265.289V265.289Z" fill="#D1E7F5"/>
<path d="M479.584 263.497C475.866 262.411 471.837 260.736 467.954 260.771C467.541 260.775 467.129 260.786 466.715 260.796C466.37 260.822 466.018 260.849 465.659 260.878C463.057 261.087 460.133 261.366 457.081 261.736C456.931 261.754 456.781 261.772 456.631 261.79C452.726 262.638 450.191 262.97 448.545 263.057C446.962 263.479 445.419 264.011 443.974 264.71C443.252 265.058 442.584 265.45 441.939 265.861L441.919 270.096L449.363 348.385H455.466V349.117H455.501L462.212 294.513L462.239 294.241L465.916 349.117H465.951V348.385H472.084L479.863 287.998L479.584 263.497V263.497Z" fill="#145566"/>
<path d="M474.605 244.809C474.151 240.109 473.742 235.648 473.619 233.605C473.226 227.057 470.774 220.265 469.115 213.963C468.125 210.208 467.111 206.459 466.081 202.714C465.735 201.453 465.61 199.202 464.941 198.171C463.853 196.495 461.429 197.224 459.799 197.279C459.12 197.302 458.419 197.192 457.717 197.082C456.161 196.837 454.604 196.593 453.29 197.804C452.038 198.959 452.303 201.101 452.239 202.634C452.095 206.087 451.981 209.541 451.878 212.996C451.67 219.913 451.507 226.831 451.251 233.746C451.189 235.944 450.509 239.995 449.64 244.386C448.783 248.715 447.825 253.025 446.828 257.324C446.502 258.728 446.171 260.131 445.835 261.532C445.676 262.19 443.559 264.423 444.119 264.881C444.429 265.135 446.339 264.511 446.748 264.428C447.704 264.234 448.656 264.019 449.605 263.8C453.336 262.939 457.066 261.973 460.897 261.692C463.106 261.53 465.325 261.596 467.538 261.685C469.329 261.756 471.129 261.842 472.886 262.197C474.972 262.618 477.084 263.419 479.166 262.981C479.14 262.022 478.345 261.294 477.712 260.573C475.876 258.481 475.754 256.35 475.493 253.766C475.192 250.781 474.894 247.795 474.605 244.809V244.809Z" fill="white"/>
<path d="M467.037 177.077C467.82 178.651 468.144 180.434 468.131 182.197C468.128 182.666 468.132 183.208 468.491 183.504C468.874 183.82 468.491 184.45 468.814 184.071C469.138 183.691 470.237 182.372 470.309 181.875C470.477 180.712 470.535 179.532 470.482 178.357C470.437 177.336 470.286 176.263 469.67 175.454C469.305 174.973 468.803 174.623 468.308 174.284C467.591 173.791 466.852 173.293 466.009 173.088C464.557 172.734 463.631 173.221 464.872 174.326C465.761 175.118 466.501 175.998 467.037 177.077V177.077Z" fill="#1A3151"/>
<path d="M456.757 196.573C456.782 197.149 456.892 197.694 457.193 198.169C457.494 198.643 457.979 198.968 458.472 199.239C459.085 199.577 459.749 199.858 460.449 199.895C461.148 199.932 461.891 199.69 462.324 199.141C463.592 197.53 463.592 194.068 463.747 192.118C465.518 191.903 467.613 191.435 468.308 189.598C468.527 189.02 468.566 188.38 468.602 187.754C468.752 185.168 468.902 182.582 469.052 179.995C469.104 179.101 469.153 178.179 468.893 177.332C468.437 175.848 467.136 174.909 465.843 174.293C462.546 172.722 458.617 172.572 455.408 174.394C454.554 174.879 453.739 175.517 453.216 176.414C452.409 177.797 452.412 179.556 452.443 181.202C452.471 182.722 452.5 184.241 452.529 185.761C452.561 187.508 452.718 189.526 454.003 190.515C454.685 191.04 455.594 191.177 456.172 191.841C457.274 193.109 456.687 194.964 456.757 196.573V196.573Z" fill="#EAC5B0"/>
<path d="M462.731 190.067C461.784 190.643 460.774 190.624 459.77 190.26C459.343 190.104 459.565 189.375 459.993 189.53C460.825 189.833 461.622 189.868 462.411 189.388C462.807 189.146 463.126 189.827 462.731 190.067ZM469.273 186.755C469.269 186.274 469.133 184.858 468.378 185.704C468.18 185.925 468.118 186.25 468.091 186.556C468.064 186.863 468.061 187.181 467.951 187.465C467.698 188.119 466.958 188.384 466.313 188.338C466.057 188.32 465.797 188.264 465.577 188.12C465.363 187.982 465.198 187.77 465.037 187.562C464.648 187.058 464.258 186.554 463.867 186.049C463.197 185.182 461.767 185.467 460.801 185.544C459.687 185.633 458.563 185.914 457.621 186.605C457.527 186.675 457.433 186.749 457.34 186.822C457.113 187.002 456.884 187.179 456.625 187.291C455.749 187.669 454.713 187.173 454.154 186.352C453.899 185.975 453.666 185.496 453.243 185.413C452.912 185.348 452.575 185.574 452.388 185.881C452.201 186.19 452.136 186.565 452.094 186.931C451.942 188.263 452.054 189.651 452.564 190.866C453.671 193.501 456.047 193.942 458.455 194.01C459.406 194.037 460.357 194.064 461.309 194.09C463.049 194.14 464.889 194.163 466.405 193.214C467.741 192.377 468.587 190.879 468.983 189.285C469.188 188.462 469.28 187.606 469.273 186.755V186.755Z" fill="#1A3151"/>
<path d="M470.347 172.754C470.546 172.136 470.703 171.503 470.815 170.862C470.216 171.041 469.573 171.063 468.963 170.926C468.981 170.554 468.999 170.182 469.016 169.81C469.029 169.5 464.917 169.068 464.583 169.022C461.459 168.597 458.603 168.199 455.68 169.76C453.183 171.093 451.519 173.192 451.004 176.01C450.511 178.702 451.205 182.288 452.635 184.62C452.663 183.897 452.34 182.173 452.543 181.496C452.681 180.814 452.948 180.164 453.302 179.568C454.008 178.381 455.058 177.404 456.249 176.731C458.147 175.657 460.316 175.15 462.466 174.96C464.436 174.786 466.833 174.656 468.738 175.283C469.654 175.584 469.796 175.829 470.407 174.907C470.515 174.744 471.401 172.825 471.324 172.82C470.998 172.798 470.673 172.776 470.347 172.754V172.754Z" fill="#1A3151"/>
<path d="M482.592 181.209C482.733 181.137 482.876 181.066 483.017 180.994C483.195 180.066 482.981 179.114 482.759 178.196C482.244 176.067 481.514 173.995 479.688 172.651C478.801 171.998 476.44 171.638 476.098 173.241C475.963 173.876 476.818 174.17 477.253 174.639C477.395 174.792 478.384 176.333 478.36 176.337C477.939 176.404 477.517 176.144 477.142 175.877C476.876 176.207 476.611 176.536 476.346 176.866C476.289 176.937 476.228 177.026 476.26 177.112C476.284 177.175 476.35 177.21 476.411 177.24C478.722 178.353 479.136 180.31 480.326 182.351C481.081 181.971 481.837 181.589 482.592 181.209V181.209Z" fill="#EAC5B0"/>
<path d="M475.413 217.247L468.18 200.101L479.154 200.626C480.711 200.458 481.803 199.016 481.541 197.475L478.678 180.688L483.529 179.549L489.749 192.436C492.378 197.884 492.108 204.284 489.028 209.491L475.413 217.247V217.247Z" fill="#D1E7F5"/>
<path d="M438.572 181.564C438.436 181.482 438.3 181.4 438.163 181.319C438.054 180.381 438.338 179.446 438.627 178.547C439.298 176.461 440.179 174.449 442.098 173.243C443.032 172.656 445.412 172.471 445.635 174.094C445.723 174.738 444.849 174.968 444.38 175.404C444.228 175.546 443.128 177.011 443.151 177.016C443.567 177.114 444.007 176.885 444.4 176.646C444.641 176.995 444.881 177.343 445.121 177.692C445.173 177.766 445.227 177.861 445.188 177.944C445.16 178.005 445.092 178.034 445.029 178.059C442.642 179 442.085 180.921 440.747 182.87C440.022 182.434 439.297 181.999 438.572 181.564Z" fill="#EAC5B0"/>
<path d="M439.783 222.42L451.38 196.881C449.259 198.225 447.139 199.569 445.018 200.912C443.605 201.808 442.191 202.704 440.778 203.599C439.316 204.525 438.16 205.065 437.1 203.073C436.811 202.531 436.593 201.883 436.513 201.272C436.213 198.976 442.77 181.412 442.514 181.332L437.76 179.84L430.607 192.236C428.674 195.585 427.879 199.653 427.753 203.481C427.687 205.49 427.817 207.529 428.283 209.49C428.683 211.172 428.992 212.978 430.473 214.049C431.842 215.039 433.101 216.047 434.375 217.263C434.798 217.665 439.951 222.051 439.783 222.42V222.42Z" fill="#D1E7F5"/>
<path d="M451.525 204.584V209.809C451.525 211.505 452.869 212.881 454.527 212.881H467.937C469.595 212.881 470.94 211.505 470.94 209.809V204.584H451.525Z" fill="#1A3151"/>
<path d="M493.749 134.436C493.749 116.056 479.191 101.157 461.232 101.157C443.274 101.157 428.715 116.056 428.715 134.436C428.715 140.967 430.555 147.058 433.732 152.198H433.73C442.779 167.716 444.87 180.712 444.87 180.712H477.595C477.595 180.712 479.686 167.716 488.734 152.198H488.733C491.909 147.058 493.749 140.967 493.749 134.436V134.436Z" fill="#FFD559"/>
<path d="M444.493 180.712V202.905C444.493 203.833 445.21 204.584 446.094 204.584H476.37C477.255 204.584 477.971 203.833 477.971 202.905V180.712H444.493V180.712Z" fill="#9EA6AD"/>
<path d="M493.171 128.205C484.912 144.731 468.872 170.261 444.854 180.622C444.863 180.676 444.87 180.712 444.87 180.712H477.595C477.595 180.712 479.686 167.716 488.734 152.199H488.733C491.909 147.058 493.749 140.967 493.749 134.436C493.749 132.305 493.545 130.224 493.171 128.205V128.205Z" fill="#FDBE0F"/>
<path d="M434.029 137.173C434.029 121.127 446.739 108.119 462.418 108.119C471.582 108.119 479.73 112.565 484.921 119.462C480.018 110.753 470.831 104.889 460.304 104.889C444.626 104.889 431.916 117.897 431.916 133.943C431.916 140.61 434.112 146.751 437.801 151.654C435.402 147.391 434.029 142.446 434.029 137.173V137.173Z" fill="#FFDF4D"/>
<path d="M454.909 180.712L450.97 138.113L456.459 142.784L461.248 135.02L466.101 142.537L471.498 138.073L467.555 180.712H469.235L473.537 134.186L466.482 140.021L461.216 131.866L456.062 140.222L448.923 134.146L453.23 180.712H454.909Z" fill="#F6F7F7"/>
<path d="M452.837 176.464L453.23 180.712H454.909L454.424 175.464C453.899 175.804 453.371 176.138 452.837 176.464Z" fill="#EDECED"/>
<path d="M469.179 163.156L467.555 180.712H469.235L471.041 161.178C470.43 161.844 469.81 162.503 469.179 163.156V163.156Z" fill="#EDECED"/>
<path d="M444.493 190.321H477.971V186.222H444.493V190.321Z" fill="#1A3151"/>
<path d="M444.493 199.073H477.971V194.975H444.493V199.073Z" fill="#1A3151"/>
<path d="M446.082 204.584C446.079 204.584 446.077 204.584 446.075 204.584C446.077 204.584 446.079 204.584 446.082 204.584ZM446.072 204.584C446.069 204.584 446.067 204.584 446.065 204.584C446.067 204.584 446.069 204.584 446.072 204.584ZM446.062 204.584C446.06 204.584 446.057 204.584 446.055 204.584C446.057 204.584 446.06 204.584 446.062 204.584ZM446.052 204.583C446.049 204.583 446.047 204.583 446.045 204.583C446.047 204.583 446.049 204.583 446.052 204.583ZM446.042 204.583C446.039 204.583 446.036 204.583 446.033 204.583C446.036 204.583 446.039 204.583 446.042 204.583ZM446.028 204.583C446.027 204.583 446.025 204.582 446.023 204.582C446.025 204.582 446.027 204.583 446.028 204.583ZM446.018 204.582C446.017 204.582 446.016 204.582 446.015 204.582C446.016 204.582 446.017 204.582 446.018 204.582ZM446.008 204.582C446.007 204.582 446.007 204.581 446.006 204.581C446.007 204.581 446.007 204.582 446.008 204.582Z" fill="#BACEDA"/>
<path d="M476.37 204.584H446.094C446.091 204.584 446.087 204.584 446.084 204.584C446.083 204.584 446.082 204.584 446.082 204.584C446.079 204.584 446.077 204.584 446.075 204.584C446.074 204.584 446.072 204.584 446.071 204.584C446.069 204.584 446.067 204.584 446.065 204.584C446.063 204.584 446.063 204.584 446.061 204.584C446.059 204.584 446.057 204.584 446.055 204.584C446.054 204.584 446.053 204.584 446.051 204.583C446.049 204.583 446.047 204.583 446.044 204.583C446.044 204.583 446.043 204.583 446.042 204.583C446.039 204.583 446.036 204.583 446.033 204.583C446.031 204.583 446.03 204.583 446.028 204.583C446.027 204.583 446.025 204.582 446.023 204.582C446.021 204.582 446.02 204.582 446.018 204.582C446.017 204.582 446.016 204.582 446.014 204.582C446.013 204.582 446.01 204.582 446.008 204.582C446.007 204.582 446.007 204.581 446.006 204.581C445.3 204.542 444.72 204.019 444.549 203.324C447.688 202.62 451.678 201.352 456.11 199.073H477.971V202.905C477.971 203.832 477.255 204.584 476.37 204.584V204.584ZM477.971 194.975H462.847C464.75 193.629 466.69 192.088 468.642 190.321H477.971V194.975ZM477.971 186.222H472.789C474.351 184.547 475.906 182.714 477.445 180.712H477.971V186.222Z" fill="#8D949A"/>
<path d="M477.972 190.321H468.642C470.022 189.071 471.407 187.706 472.79 186.222H477.972V190.321Z" fill="#172C48"/>
<path d="M477.971 199.073H456.111C456.111 199.073 456.111 199.073 456.112 199.073C458.269 197.964 460.529 196.615 462.847 194.975H477.971V199.073Z" fill="#172C48"/>
<path d="M95.0902 204.584C95.0873 204.584 95.0852 204.584 95.0828 204.584C95.0852 204.584 95.0873 204.584 95.0902 204.584ZM95.0797 204.584C95.0773 204.584 95.0749 204.584 95.0731 204.584C95.0749 204.584 95.0773 204.584 95.0797 204.584ZM95.0699 204.584C95.0675 204.584 95.0651 204.584 95.063 204.584C95.0651 204.584 95.0675 204.584 95.0699 204.584ZM95.0596 204.583C95.0572 204.583 95.0551 204.583 95.0527 204.583C95.0551 204.583 95.0572 204.583 95.0596 204.583ZM95.0503 204.583C95.0472 204.583 95.044 204.583 95.0411 204.583C95.044 204.583 95.0472 204.583 95.0503 204.583ZM95.0366 204.583C95.0347 204.583 95.0334 204.582 95.0316 204.582C95.0334 204.582 95.0347 204.583 95.0366 204.583ZM95.0258 204.582C95.025 204.582 95.0239 204.582 95.0226 204.582C95.0239 204.582 95.025 204.582 95.0258 204.582ZM95.0157 204.582C95.0152 204.582 95.0149 204.581 95.0144 204.581C95.0149 204.581 95.0152 204.582 95.0157 204.582Z" fill="#A1BFB4"/>
</svg>
