<svg width="494" height="370" viewBox="0 0 494 370" fill="none" xmlns="http://www.w3.org/2000/svg">
<path d="M666 0H0V370H666V0Z" fill="#1FC0C3"/>
<path d="M558.001 370L525.404 197.765L471.546 114.496H450.759L407.154 148.56L317.505 208.174L295.106 232.776L249.5 359.573L214.643 370H558.001Z" fill="#1E2327"/>
<path d="M303.648 370L329.848 242.376L438.682 172.354L471.753 114.633H450.965L416.005 165.731L317.71 207.365L295.312 231.967L225.139 367.281L215.247 370H303.648Z" fill="#1F343B"/>
<path d="M525.404 197.765L448.058 234.49L383.494 297.786L397.554 358.551L385.2 370H557.91L525.404 197.765Z" fill="#1D262A"/>
<path d="M327.077 370C337.969 349.059 347.077 331.713 347.077 331.713L390.811 274.493L461.711 207.653L471.736 114.789L473.372 117.319L473.644 117.738L473.694 117.817L474.275 118.715L475.255 120.231L475.823 121.109L476.701 122.466L478.917 125.892L482.686 131.719L490.552 143.882L506.595 168.685L517.754 185.937L525.404 197.765L448.058 234.49L383.494 297.786L397.554 358.551L385.2 370H327.077V370Z" fill="#1F2021"/>
<path d="M385.2 370L397.554 358.551L383.494 297.786L448.058 234.49L525.404 197.765L557.91 370H385.2Z" fill="#1F2224"/>
<path d="M536.633 257.26L472.328 299.305L460.699 346.903L467.714 370H557.91L536.633 257.26Z" fill="#1E2327"/>
<path d="M320.491 206.188L332.196 198.404C332.197 199.328 332.184 200.145 332.169 200.77C332.169 200.77 332.169 200.77 332.17 200.77C332.165 200.944 332.161 201.104 332.157 201.247L320.491 206.188V206.188ZM341.468 197.303C341.362 196.143 341.217 194.444 341.087 192.493L358.237 181.089L358.296 181.245L362.457 188.413L341.468 197.303V197.303ZM370.059 185.193C368.769 181.532 367.605 178.44 367.351 178.44C367.318 178.44 367.3 178.493 367.3 178.606C367.301 178.786 367.346 179.113 367.441 179.612C367.346 179.117 367.046 177.558 366.66 175.488L407.154 148.56L450.966 114.633L416.005 165.731L370.059 185.193V185.193ZM367.473 179.78C367.473 179.78 367.467 179.747 367.454 179.683C367.467 179.749 367.473 179.78 367.473 179.78Z" fill="#1F282D"/>
<path d="M215.247 370L225.139 367.281L295.312 231.967L317.71 207.365L320.491 206.188L332.157 201.247C332.141 201.762 332.127 202.062 332.127 202.062L338.474 201.009C332.662 203.579 327.57 205.809 327.57 205.809C327.57 205.809 317.649 209.948 327.57 213.733C329.412 214.436 331.469 214.718 333.633 214.718C336.876 214.718 340.362 214.086 343.736 213.295L298.069 275L277.977 370H215.247V370ZM293.684 250.761C292.057 250.761 289.601 252.276 288.397 252.647C286.35 253.278 283.043 269.68 280.837 272.677C278.634 275.672 271.704 286.554 271.704 286.554C271.704 286.554 267.138 291.443 265.542 294.692C263.946 297.939 270.444 302.326 274.066 302.326C277.688 302.326 278.161 288.92 284.303 286.554C290.444 284.189 291.979 276.248 289.815 272.36C287.649 268.473 294.224 259.744 295.168 253.909C295.559 251.504 294.824 250.761 293.684 250.761V250.761ZM341.625 199.612V198.909C341.625 198.909 341.561 198.311 341.468 197.303L362.457 188.413L364.878 192.584C364.792 192.584 364.707 192.584 364.622 192.584C359.946 192.584 355.982 193.005 354.853 193.595C353.409 194.351 347.546 196.984 341.625 199.612V199.612ZM379.711 194.418C377.736 193.767 375.303 193.313 372.738 193.021C371.974 190.74 370.983 187.819 370.058 185.193L416.005 165.731L450.965 114.633H455.378V119.074C455.378 119.884 456.035 120.538 456.839 120.538C456.856 120.538 456.873 120.537 456.89 120.537L458.482 120.481C459.269 120.453 459.892 119.806 459.892 119.018V114.633H471.753L425.32 170.494L379.711 194.418V194.418Z" fill="#22404A"/>
<path d="M299.972 183.219C299.972 183.219 306.586 176.123 306.114 174.861C305.641 173.599 304.445 171.234 301.894 172.496C299.342 173.757 298.555 176.754 298.397 176.123C298.239 175.492 299.184 173.599 298.397 173.126C297.61 172.653 294.775 178.33 295.09 180.539C295.405 182.747 299.972 183.219 299.972 183.219Z" fill="#F39B72"/>
<path d="M274.066 302.326C270.444 302.326 263.946 297.939 265.542 294.692C267.138 291.444 271.704 286.554 271.704 286.554C271.704 286.554 278.634 275.673 280.837 272.677C283.043 269.68 286.35 253.278 288.397 252.648C289.601 252.277 292.057 250.761 293.684 250.761C294.824 250.761 295.559 251.505 295.168 253.909C294.224 259.744 287.649 268.473 289.815 272.36C291.979 276.248 290.444 284.189 284.303 286.554C278.161 288.92 277.688 302.326 274.066 302.326V302.326Z" fill="#1A353D"/>
<path d="M306.888 174.257C306.888 174.257 304.265 179.224 301.352 179.698C298.439 180.171 297.752 175.536 297.516 175.142C297.279 174.748 300.842 171.612 300.842 171.612L306.888 174.257Z" fill="#DD9171"/>
<path d="M281.337 199.802C281.801 198.891 278.611 195.06 278.611 195.06C278.611 195.06 278.967 194.605 279.324 193.786C279.804 192.686 276.457 192.521 275.365 190.916C272.506 186.711 264.054 187.595 264.927 193.699C265.799 199.803 268.474 205.525 272.122 204.96C274.273 204.628 275.914 204.775 277.379 204.007C278.399 203.471 280.525 201.402 281.337 199.802V199.802Z" fill="#F39B72"/>
<path d="M275.35 190.893C275.348 190.891 275.347 190.888 275.345 190.885C275.347 190.888 275.348 190.891 275.35 190.893ZM275.334 190.872C275.333 190.869 275.331 190.866 275.329 190.864C275.331 190.866 275.333 190.869 275.334 190.872ZM275.319 190.849C275.318 190.847 275.315 190.845 275.314 190.841C275.315 190.845 275.318 190.846 275.319 190.849ZM275.303 190.827C275.302 190.824 275.3 190.823 275.299 190.82C275.3 190.823 275.302 190.824 275.303 190.827ZM275.285 190.802C275.284 190.801 275.284 190.8 275.284 190.799C275.284 190.8 275.284 190.801 275.285 190.802Z" fill="#76C9DE"/>
<path d="M281.232 199.981L280.188 198.178L279.261 198.027L278.992 196.95L277.916 195.093L276.362 194.075L275.404 193.776C275.404 193.776 275.226 192.727 275.226 192.548C275.226 192.37 273.758 191.049 273.734 191.027C273.755 190.912 273.774 190.799 273.794 190.687C273.867 190.271 273.931 189.878 273.986 189.527C274.482 189.876 274.923 190.299 275.284 190.799C275.284 190.8 275.284 190.801 275.285 190.802C275.29 190.807 275.294 190.814 275.299 190.82C275.3 190.823 275.301 190.824 275.303 190.827C275.307 190.831 275.31 190.837 275.314 190.841C275.315 190.845 275.318 190.847 275.319 190.849C275.322 190.854 275.326 190.859 275.329 190.864C275.331 190.866 275.333 190.869 275.334 190.872C275.338 190.877 275.341 190.882 275.345 190.885C275.347 190.888 275.348 190.891 275.35 190.893C275.355 190.9 275.36 190.908 275.365 190.916C276.384 192.415 279.369 192.657 279.371 193.579C279.371 193.644 279.356 193.713 279.324 193.786C278.967 194.605 278.611 195.06 278.611 195.06C278.611 195.06 281.38 198.385 281.383 199.576C281.383 199.664 281.369 199.74 281.337 199.802L281.232 199.981V199.981Z" fill="#F5A67C"/>
<path d="M269.826 204.458C269.413 204.203 269.02 203.863 268.648 203.452C269.066 203.821 269.465 204.16 269.826 204.458ZM274.331 204.226C274.053 203.041 272.109 200.065 272.088 199.392C272.079 199.104 271.86 199.045 271.538 199.045C271.426 199.045 271.301 199.052 271.169 199.059C271.036 199.066 270.895 199.073 270.752 199.073C269.951 199.073 269.045 198.852 268.805 197.187C268.654 196.146 269.009 195.889 269.558 195.889C269.827 195.889 270.142 195.95 270.467 196.013C270.793 196.074 271.13 196.136 271.44 196.136C271.785 196.136 272.097 196.059 272.327 195.822L272.54 195.901L276.32 203.189C275.745 203.479 275.025 203.856 274.331 204.226V204.226Z" fill="#EF7B4F"/>
<path d="M274.202 188.064C274.202 188.064 273.397 194.209 272.449 195.667C272.038 196.3 271.225 196.156 270.467 196.013C269.476 195.825 268.58 195.637 268.805 197.187C269.088 199.152 270.299 199.106 271.169 199.059C271.682 199.031 272.076 199.004 272.088 199.392C272.11 200.097 274.239 203.323 274.359 204.379C274.56 206.153 271.551 205.815 271.551 205.815C271.551 205.815 262.539 199.237 263.178 195.328C263.816 191.419 265.784 185.874 274.202 188.064V188.064Z" fill="#312B2A"/>
<path d="M343.736 213.295L343.742 213.287L364.663 202.312C363.512 203.577 360.198 207.338 360.823 208.09C360.882 208.16 360.953 208.237 361.037 208.319C360.975 208.547 360.98 208.726 361.074 208.837C361.471 209.313 362.491 210.165 363.961 210.165C364.037 210.165 364.113 210.163 364.191 210.158C363.031 210.344 361.972 210.444 361.067 210.444C360.456 210.444 359.913 210.399 359.46 210.303C359.059 210.219 358.61 210.18 358.117 210.18C355.446 210.18 351.498 211.314 347.132 212.448C346.023 212.737 344.886 213.026 343.736 213.295V213.295ZM365.111 209.996C366.219 209.675 367.506 208.852 368.918 207.176C371.306 204.342 373.23 202.632 374.413 201.702C375.195 201.087 376.041 199.852 374.978 198.423L374.241 197.288L379.711 194.418C382.293 195.271 384.093 196.463 384.391 198.08C385.317 203.107 373.264 208.444 365.111 209.996V209.996Z" fill="#1D2F35"/>
<path d="M333.634 214.717C331.469 214.717 329.412 214.436 327.57 213.733C317.649 209.948 327.57 205.808 327.57 205.808C327.57 205.808 332.662 203.579 338.474 201.009L341.625 200.486V199.612C347.546 196.984 353.409 194.351 354.853 193.595C355.982 193.005 359.945 192.584 364.621 192.584C364.706 192.584 364.792 192.584 364.878 192.584L367.307 196.767L365.047 201.897C365.047 201.897 364.901 202.051 364.663 202.312L343.742 213.287L343.736 213.295C340.362 214.086 336.876 214.717 333.634 214.717V214.717ZM374.241 197.288L374.066 197.017C374.066 197.017 373.519 195.352 372.738 193.021C375.303 193.313 377.736 193.767 379.711 194.418L374.241 197.288V197.288ZM374.01 197.021L374.006 197.017H374.066L374.01 197.021Z" fill="#20373E"/>
<path d="M291.07 258.404C291.07 258.404 277.373 264.83 275.956 264.594L274.521 263.648L290.9 255.585C290.9 255.585 291.419 257.536 291.07 258.404V258.404Z" fill="#25383B"/>
<path d="M282.298 256.012C282.298 256.012 284.432 255.029 286.253 254.348C287.262 253.972 288.174 253.687 288.576 253.712C289.856 253.792 290.594 254.685 290.9 255.585C291.047 256.013 291.095 256.444 291.056 256.787C290.938 257.852 276.411 264.239 274.521 263.648C272.631 263.056 272.002 261.4 272.08 260.217C272.159 259.035 272.867 257.497 272.867 257.497L277.474 253.12L282.298 256.012V256.012Z" fill="#1D2529"/>
<path d="M294.696 179.945L299.736 183.413C299.736 183.413 294.224 194.492 293.909 195.242C293.593 195.991 286.586 207.583 284.001 208.713C281.912 209.628 278.83 202.812 278.83 202.812C278.83 202.812 286.508 195.19 287.453 193.64L294.696 179.945V179.945Z" fill="#1D313A"/>
<path d="M287.453 193.64L294.16 180.958L287.453 193.64Z" fill="#93D2E3"/>
<path d="M279.762 202.652C279.519 202.636 279.271 202.623 279.029 202.614C280.241 201.406 286.597 195.042 287.453 193.64L294.16 180.958C294.361 181.265 294.548 181.588 294.502 181.679C294.41 181.866 289.58 191.134 289.58 191.134L288.404 194.14L288.25 195.133L286.516 195.566C286.516 195.566 283.142 198.573 281.904 200.402C281.175 201.479 280.354 202.221 279.762 202.652V202.652Z" fill="#193A48"/>
<path d="M283.657 208.786C283.133 207.441 282.431 206.301 281.735 205.386L288.93 203.111C287.081 205.754 285.164 208.166 284.041 208.695H284.041C284.039 208.696 284.037 208.697 284.036 208.698C284.035 208.698 284.034 208.699 284.033 208.699C284.032 208.7 284.03 208.7 284.029 208.701C284.027 208.702 284.027 208.702 284.026 208.703C284.025 208.703 284.024 208.704 284.022 208.704C284.021 208.705 284.02 208.706 284.019 208.706C284.018 208.707 284.016 208.707 284.015 208.708C284.014 208.708 284.012 208.709 284.011 208.709C284.01 208.709 284.01 208.711 284.008 208.711C284.006 208.711 284.004 208.712 284.001 208.713C283.999 208.714 283.997 208.715 283.995 208.716C283.886 208.764 283.772 208.779 283.657 208.786V208.786Z" fill="#1D272D"/>
<path d="M260.567 226.554C260.567 226.554 272.216 208.98 272.531 206.772C272.846 204.564 278.151 202.174 279.186 202.816C279.815 203.206 285.089 207.503 284.46 214.443C283.831 221.383 283.515 229.701 283.515 229.701L260.567 226.554V226.554Z" fill="#0071A0"/>
<path d="M281.625 202.815C281.625 202.815 278.161 202.424 277.373 202.697C276.586 202.97 271.783 205.602 271.783 205.602L272.531 206.772C272.531 206.772 283.515 205.063 283.279 204.686C283.043 204.309 281.625 202.815 281.625 202.815Z" fill="#1F2227"/>
<path d="M259.008 296.589L259.835 297.358C259.835 297.358 274.867 292.651 274.809 292.173L275.047 290.443L257.459 294.922L259.008 296.589V296.589Z" fill="#25383B"/>
<path d="M262.57 287.935C262.57 287.935 266.897 288.393 269.926 287.935C272.918 287.482 275.575 288.25 274.965 291.01C274.965 291.01 262.761 296.451 258.824 296.135C258.824 296.135 256.724 295.347 256.593 291.956C256.461 288.565 256.323 288.368 256.323 288.368L262.57 287.935Z" fill="#1D2529"/>
<path d="M270.169 238.523C270.169 238.523 269.224 265.018 268.988 266.201C268.751 267.383 264.027 288.437 264.027 288.437L256.323 289.147L258.594 255.91L256.335 235.085L270.169 238.523V238.523Z" fill="#1A3D4F"/>
<path d="M268.523 268.139C267.394 266.161 267.269 264.113 267.334 258.423C267.393 253.337 262.959 242.691 261.69 239.75C264.048 239.697 267.202 239.368 270.143 238.991L269.284 261.104L268.97 266.176L268.523 268.139Z" fill="#202E39"/>
<path d="M260.567 226.554C260.567 226.554 252.955 234.452 258.122 239.282C259.893 240.938 278.555 237.744 278.555 237.744L272.867 257.497L282.198 256.721C282.198 256.721 290.247 234.551 290.366 232.658C290.484 230.765 283.918 225.654 260.567 226.554V226.554Z" fill="#1A3D4F"/>
<path d="M283.943 221.35L273.793 214.166C276.168 215.738 280.995 217.156 284.17 218.005C284.087 219.131 284.012 220.25 283.945 221.325L283.943 221.35V221.35Z" fill="#10527D"/>
<path d="M306.555 215.705C306.555 215.705 310.199 215.561 313.203 213.776C313.308 213.713 313.413 210.957 312.65 210.674C312.431 210.593 309.837 210.382 309.15 210.741C306.861 211.934 307.101 211.258 307.101 211.258C307.101 211.258 308.922 210.01 308.458 209.758C307.994 209.505 306.455 210.51 305.882 211.072C305.097 211.841 303.184 213.35 303.184 213.35L306.173 215.434L306.555 215.705V215.705Z" fill="#F39B72"/>
<path d="M294.119 181.037C295.115 182.168 299.202 184.487 299.736 184.439C300.269 184.391 300.719 183.059 300.22 182.952C299.719 182.843 295.065 178.919 295.065 178.919C295.065 178.919 294.381 179.51 294.119 179.732C293.856 179.953 294.119 181.037 294.119 181.037Z" fill="#1F282C"/>
<path d="M305.64 209.947V216.689C305.64 216.689 287.688 219.055 287.215 218.818C286.742 218.581 273.596 215.742 272.452 212.786C270.328 207.303 273.663 203.788 276.869 205.28C280.076 206.772 286.742 211.821 287.215 212.057C287.688 212.294 305.64 209.947 305.64 209.947Z" fill="#1A3D4F"/>
<path d="M304.262 209.986C304.262 209.986 306.191 209.885 306.191 210.066C306.191 210.244 305.403 211.885 305.995 213.022C306.675 214.333 305.639 216.916 305.245 216.939C304.721 216.969 303.523 216.992 303.795 216.93C303.795 216.93 302.766 210.438 304.262 209.986Z" fill="#1F2227"/>
<path d="M274.514 251.777L278.555 237.744L274.514 251.776V251.777Z" fill="#02B5D2"/>
<path d="M274.514 251.776L278.555 237.744L280.549 237.016L274.514 251.776Z" fill="#202E39"/>
<path d="M271.551 205.815C271.551 205.815 270.839 205.297 269.831 204.464H269.832C270.839 205.297 271.551 205.815 271.551 205.815ZM268.631 203.438C266.061 201.166 262.784 197.739 263.178 195.328C263.204 195.162 263.234 194.994 263.266 194.823C263.234 194.994 263.205 195.162 263.178 195.328C262.784 197.739 266.061 201.165 268.631 203.438Z" fill="#02B5D2"/>
<path d="M269.832 204.464H269.831C269.83 204.462 269.828 204.46 269.826 204.458C269.828 204.46 269.83 204.462 269.832 204.464ZM268.648 203.452C268.642 203.447 268.637 203.443 268.631 203.438C268.636 203.443 268.642 203.447 268.648 203.452Z" fill="#EF7B4F"/>
<path d="M269.826 204.458C269.465 204.16 269.066 203.821 268.648 203.452C269.065 203.821 269.465 204.16 269.826 204.458Z" fill="#E85839"/>
<path d="M271.934 205.838C271.702 205.832 271.551 205.815 271.551 205.815C271.551 205.815 270.839 205.297 269.832 204.464C269.83 204.462 269.828 204.46 269.826 204.458C269.465 204.16 269.065 203.821 268.648 203.452C268.642 203.447 268.636 203.443 268.631 203.438C266.061 201.165 262.784 197.739 263.178 195.328C263.205 195.162 263.234 194.994 263.266 194.823C263.435 193.937 263.68 192.992 264.052 192.086C264.07 192.174 265.187 197.534 267.974 199.981C270.292 202.018 272.418 204.193 273.091 204.892C272.333 205.301 271.783 205.602 271.783 205.602L271.934 205.838V205.838Z" fill="#282425"/>
<path d="M272.101 205.841C272.042 205.841 271.986 205.84 271.934 205.838L271.783 205.602C271.783 205.602 272.333 205.301 273.091 204.892C273.232 205.04 273.31 205.121 273.31 205.121L273.26 205.709C272.863 205.814 272.431 205.841 272.101 205.841V205.841Z" fill="#1E2022"/>
<path d="M273.987 189.525C274.115 188.715 274.191 188.141 274.201 188.071C274.191 188.141 274.115 188.715 273.987 189.525ZM274.201 188.07V188.069V188.07ZM274.201 188.068C274.201 188.067 274.201 188.067 274.201 188.067C274.201 188.067 274.201 188.067 274.201 188.068ZM274.201 188.066C274.201 188.066 274.201 188.066 274.201 188.065C274.201 188.066 274.201 188.066 274.201 188.066ZM274.201 188.065C274.202 188.064 274.202 188.064 274.202 188.064C274.202 188.064 274.202 188.064 274.201 188.065ZM274.147 188.05C274.144 188.049 274.142 188.048 274.139 188.048C274.142 188.048 274.144 188.049 274.147 188.05Z" fill="#93D2E3"/>
<path d="M273.986 189.527C273.986 189.527 273.986 189.526 273.986 189.525C273.986 189.526 273.986 189.527 273.986 189.527Z" fill="#F7B993"/>
<path d="M273.794 190.687C273.867 190.271 273.931 189.878 273.986 189.527C273.931 189.878 273.867 190.271 273.794 190.687Z" fill="#F8BFA0"/>
<path d="M273.794 190.687C273.782 190.66 273.09 189.061 271.108 189.033C271.085 189.033 271.064 189.033 271.041 189.033C269.293 189.033 265.963 189.964 265.085 190.219C266.213 188.689 267.958 187.569 270.713 187.569C271.715 187.569 272.851 187.717 274.139 188.048C274.142 188.048 274.144 188.049 274.147 188.05C274.165 188.055 274.183 188.06 274.202 188.064C274.202 188.064 274.202 188.064 274.201 188.065C274.201 188.066 274.201 188.066 274.201 188.066C274.201 188.066 274.201 188.066 274.201 188.067C274.201 188.067 274.201 188.067 274.201 188.068C274.201 188.068 274.201 188.068 274.201 188.069V188.07V188.071C274.191 188.141 274.115 188.715 273.987 189.525C273.987 189.526 273.987 189.527 273.986 189.527C273.931 189.877 273.867 190.271 273.794 190.687V190.687Z" fill="#3B3432"/>
<path d="M278.189 205.976C278.189 205.976 278.188 205.975 278.187 205.975V205.974L278.189 205.976V205.976Z" fill="#0091BD"/>
<path d="M286.017 213.941L278.187 205.975C278.188 205.975 278.189 205.976 278.189 205.976L286.615 211.653C286.933 211.877 287.144 212.021 287.215 212.057C287.238 212.069 287.3 212.074 287.4 212.074C288.946 212.074 299.317 210.762 303.695 210.199L303.698 210.198L297.219 212.348L286.017 213.941V213.941Z" fill="#074C66"/>
<path d="M288.771 238.029C288.773 238.023 288.774 238.016 288.777 238.01C288.774 238.016 288.773 238.023 288.771 238.029ZM288.779 238.005C289.69 235.266 290.332 233.183 290.366 232.658C290.366 232.656 290.366 232.654 290.366 232.653C290.366 232.654 290.366 232.656 290.366 232.658C290.332 233.183 289.69 235.266 288.779 238.005ZM290.366 232.651C290.366 232.651 290.366 232.65 290.366 232.648C290.366 232.65 290.366 232.651 290.366 232.651ZM290.366 232.646C290.366 232.645 290.366 232.644 290.366 232.643C290.366 232.644 290.366 232.645 290.366 232.646ZM290.366 232.64C290.366 232.64 290.366 232.639 290.366 232.638C290.366 232.639 290.366 232.64 290.366 232.64ZM290.366 232.635C290.366 232.635 290.366 232.635 290.366 232.634C290.366 232.634 290.366 232.635 290.366 232.635ZM290.366 232.63V232.629V232.63ZM290.366 232.625C290.366 232.624 290.366 232.624 290.366 232.624C290.366 232.624 290.366 232.624 290.366 232.625ZM290.366 232.62C290.367 232.619 290.367 232.619 290.367 232.619C290.367 232.619 290.367 232.619 290.366 232.62Z" fill="#93D2E3"/>
<path d="M286.55 244.506C286.84 241.927 287.839 237.801 287.905 237.508C288 237.092 286.677 232.624 285.921 231.962C285.171 231.304 269.437 226.57 269.207 226.501C285.431 226.988 290.38 230.953 290.367 232.615C290.367 232.617 290.367 232.617 290.367 232.619C290.367 232.619 290.367 232.619 290.366 232.62C290.366 232.621 290.366 232.622 290.366 232.624C290.366 232.624 290.366 232.624 290.366 232.625C290.366 232.626 290.366 232.628 290.366 232.629V232.63C290.366 232.632 290.366 232.633 290.366 232.634C290.366 232.635 290.366 232.635 290.366 232.635C290.366 232.636 290.366 232.637 290.366 232.638C290.366 232.639 290.366 232.64 290.366 232.64C290.366 232.641 290.366 232.642 290.366 232.643C290.366 232.644 290.366 232.645 290.366 232.646C290.366 232.647 290.366 232.648 290.366 232.648C290.366 232.65 290.366 232.651 290.366 232.651C290.366 232.653 290.366 232.653 290.366 232.653C290.366 232.654 290.366 232.656 290.366 232.658C290.332 233.183 289.69 235.266 288.779 238.005C288.778 238.006 288.777 238.008 288.777 238.01C288.774 238.016 288.773 238.023 288.771 238.029C288.124 239.969 287.344 242.234 286.55 244.506V244.506Z" fill="#074C66"/>
<path d="M367.56 197.507L365.298 202.643C365.298 202.643 360.32 207.931 361.074 208.837C361.829 209.744 364.844 212.01 368.918 207.176C371.306 204.342 373.23 202.632 374.413 201.702C375.195 201.087 376.041 199.852 374.978 198.423L374.066 197.017L367.56 197.507V197.507Z" fill="#25383B"/>
<path d="M367.31 196.76L365.047 201.897C365.047 201.897 360.069 207.184 360.823 208.09C361.577 208.996 364.595 211.262 368.668 206.428C370.897 203.783 372.672 202.224 373.825 201.353C374.728 200.671 375.165 199.54 374.978 198.423L373.829 196.76H367.31Z" fill="#1D2529"/>
<path d="M334.54 200.491L330.982 204.83C330.982 204.83 324.768 208.583 325.251 209.659C325.735 210.735 328.033 213.729 333.254 210.169C336.314 208.082 338.626 206.952 340.015 206.375C340.934 205.994 342.08 205.031 341.439 203.37L340.938 201.769L334.54 200.491V200.491Z" fill="#25383B"/>
<path d="M333.312 200.9L331.137 204.327C331.137 204.327 324.727 207.795 325.211 208.871C325.694 209.948 327.992 212.942 333.212 209.382C336.068 207.434 338.199 206.41 339.542 205.882C340.595 205.469 341.318 204.497 341.439 203.37L340.159 199.119L333.312 200.9Z" fill="#1D2529"/>
<path d="M319.657 138.743C319.657 138.743 316.69 139.274 313.099 138.63C312.817 138.579 312.528 138.852 312.238 139.125C311.933 139.412 311.625 139.7 311.318 139.612C310.077 139.257 308.819 137.351 307.61 136.614C302.177 133.302 299.814 124.549 306.901 124.076C313.987 123.603 321.074 125.259 321.311 129.517C321.547 133.775 319.657 138.743 319.657 138.743V138.743Z" fill="#F39B72"/>
<path d="M311.432 139.628C311.426 139.628 311.419 139.628 311.413 139.627C311.419 139.628 311.426 139.628 311.432 139.628C311.448 139.628 311.462 139.627 311.476 139.626C311.462 139.627 311.448 139.628 311.432 139.628ZM311.478 139.625C311.485 139.625 311.494 139.624 311.502 139.622C311.494 139.624 311.485 139.625 311.478 139.625ZM311.503 139.622C311.507 139.621 311.511 139.621 311.515 139.62C311.511 139.621 311.507 139.621 311.503 139.622ZM311.527 139.618C311.527 139.618 311.527 139.618 311.528 139.618C311.527 139.618 311.527 139.618 311.527 139.618ZM311.529 139.618C311.532 139.617 311.536 139.617 311.538 139.616C311.536 139.617 311.532 139.617 311.529 139.618ZM311.96 139.376C312.052 139.3 312.146 139.213 312.238 139.125C312.505 138.875 312.77 138.623 313.029 138.623C313.036 138.623 313.043 138.624 313.049 138.624C313.043 138.624 313.036 138.623 313.029 138.623C312.77 138.623 312.505 138.875 312.238 139.125C312.146 139.213 312.052 139.3 311.96 139.376Z" fill="#76C9DE"/>
<path d="M311.432 139.628C311.426 139.628 311.419 139.628 311.413 139.627C311.381 139.626 311.349 139.62 311.318 139.612C310.077 139.257 308.819 137.351 307.61 136.614C307.6 136.608 307.592 136.603 307.582 136.597C306.808 136.122 306.098 135.536 305.467 134.881C305.913 134.703 306.385 134.51 306.858 134.307L308.684 135.559L310.372 135.317L310.131 136.732L311.641 137.872L312.682 137.284L314.877 137.872L315.68 137.112L317.299 138.833L317.104 138.945C316.994 138.947 316.881 138.948 316.765 138.948C315.715 138.948 314.453 138.872 313.099 138.63C313.082 138.627 313.065 138.625 313.049 138.624C313.043 138.624 313.036 138.623 313.029 138.623C312.77 138.623 312.505 138.875 312.238 139.125C312.146 139.213 312.052 139.3 311.96 139.376C311.819 139.491 311.679 139.584 311.538 139.616C311.536 139.617 311.532 139.617 311.529 139.618H311.528C311.527 139.618 311.527 139.618 311.527 139.618C311.523 139.618 311.519 139.62 311.515 139.62C311.511 139.621 311.507 139.621 311.503 139.622C311.502 139.622 311.502 139.622 311.502 139.622C311.494 139.624 311.485 139.625 311.478 139.625C311.478 139.625 311.477 139.626 311.476 139.626C311.462 139.627 311.448 139.628 311.432 139.628V139.628Z" fill="#F5A67C"/>
<path d="M318.878 137.105C318.878 137.104 318.878 137.103 318.878 137.103C318.94 133.681 316.939 130.716 315.744 129.256C316.504 129.155 317.415 129.059 318.308 128.975C318.308 128.975 318.308 128.976 318.309 128.976C319.291 128.883 320.252 128.807 320.965 128.753C320.738 130.179 319.961 134.679 318.878 137.105V137.105ZM320.14 126.998C319.756 126.693 319.329 126.362 318.87 126.018L318.875 126.019C319.36 126.312 319.785 126.638 320.14 126.998V126.998Z" fill="#F0855C"/>
<path d="M302.767 135.905C302.767 135.905 309.499 133.526 310.917 132.106C312.334 130.687 308.584 127.862 311.759 127.625C312.308 127.584 312.764 128.052 313.224 128.518C313.713 129.014 314.204 129.51 314.814 129.399C316.955 129.012 322.137 128.667 322.137 128.667C322.137 128.667 312.57 120.055 308.318 121.711C304.066 123.367 298.288 126.915 302.767 135.905V135.905Z" fill="#312B2A"/>
<path d="M363.41 120.655C363.41 120.655 372.048 119.737 372.696 120.756C373.343 121.774 374.39 123.907 372.113 125.057C369.835 126.205 367.269 125.156 367.635 125.608C368.002 126.062 369.864 126.403 369.778 127.224C369.691 128.043 364.105 127.015 362.696 125.6C361.287 124.184 363.41 120.655 363.41 120.655Z" fill="#F39B72"/>
<path d="M321.034 128.307L323.251 127.086C325.504 126.679 328.07 126.399 331.075 126.521C343.711 127.034 342.91 129.746 350.838 133.539C355.101 135.578 361.27 145.581 361.27 145.581C361.27 145.581 347.609 151.281 337.846 150.335C328.081 149.388 327.216 146.234 325.326 148.442C323.436 150.65 312.019 168.944 312.019 168.944L304.146 166.736L314.224 144.341C314.224 144.341 315.892 139.56 317.781 138.614C319.671 137.667 321.034 128.307 321.034 128.307V128.307Z" fill="#233329"/>
<path d="M304.144 167.84C304.144 167.84 297.531 174.937 298.003 176.198C298.475 177.461 299.672 179.826 302.223 178.564C304.775 177.303 305.562 174.306 305.72 174.937C305.878 175.568 304.933 177.461 305.72 177.934C306.507 178.407 309.341 172.729 309.027 170.521C308.712 168.313 304.144 167.84 304.144 167.84V167.84Z" fill="#F39B72"/>
<path d="M313.412 166.721L305.184 164.429C305.184 164.429 301.782 165.128 302.491 166.721C303.2 168.313 301.625 168.786 302.491 168.944C303.358 169.102 308.711 172.706 309.027 172.48C309.343 172.256 313.702 172.256 313.412 170.994C313.121 169.733 313.412 166.721 313.412 166.721Z" fill="#1F2227"/>
<path d="M367.452 197.017H374.066C374.066 197.017 366.119 172.793 367.452 179.668C367.773 181.325 364.4 164.01 363.953 159.166C363.575 155.084 362.918 143.4 358.099 142.925C353.278 142.45 339.393 149.072 339.393 149.072C339.393 149.072 334.066 162.006 331.547 165.79C329.027 169.576 330.601 185.346 331.547 189.762C332.491 194.177 332.127 202.062 332.127 202.062L341.625 200.486V198.909C341.625 198.909 339.707 180.93 341.625 176.198C343.543 171.467 350.129 159.64 350.129 159.64L358.296 181.245L367.452 197.017V197.017Z" fill="#1F2227"/>
<path d="M329.599 123.591C332.039 123.046 348.496 118.746 349.834 119.2C351.173 119.655 362.213 120.04 362.213 120.04L361.527 126.962C361.527 126.962 347.472 127.264 347.237 127.343C347 127.422 333.811 130.891 333.811 130.891L321.035 128.307L329.599 123.591V123.591Z" fill="#233329"/>
<path d="M361.891 119.962L361.007 126.373C361.007 126.373 361.876 128.857 362.996 128.163C363.56 127.814 363.972 127.929 364.244 128.043C364.512 128.156 364.646 128.269 364.661 127.938C364.691 127.272 366.848 122.886 366.647 122.672C366.447 122.458 366.007 119.184 365.091 119.53C364.176 119.876 361.891 119.962 361.891 119.962V119.962Z" fill="#1F2227"/>
<path d="M302.767 135.905C302.763 135.896 302.759 135.887 302.755 135.879C302.759 135.887 302.763 135.896 302.767 135.905ZM302.752 135.874C302.748 135.868 302.745 135.86 302.742 135.853C302.745 135.86 302.748 135.868 302.752 135.874ZM302.74 135.849C302.736 135.842 302.733 135.835 302.729 135.828C302.733 135.835 302.736 135.842 302.74 135.849ZM302.726 135.822C302.723 135.816 302.719 135.808 302.716 135.801C302.72 135.808 302.723 135.816 302.726 135.822ZM302.714 135.799C302.71 135.79 302.707 135.783 302.703 135.775C302.707 135.783 302.71 135.791 302.714 135.799ZM302.702 135.773C302.685 135.738 302.668 135.704 302.652 135.669C302.669 135.704 302.685 135.738 302.702 135.773ZM302.651 135.668C302.647 135.659 302.643 135.651 302.639 135.642C302.643 135.652 302.647 135.659 302.651 135.668ZM302.639 135.642C302.588 135.538 302.54 135.436 302.493 135.333C302.54 135.436 302.588 135.538 302.639 135.642ZM302.492 135.332C302.488 135.324 302.484 135.316 302.482 135.308C302.484 135.316 302.488 135.324 302.492 135.332ZM302.48 135.306C302.476 135.298 302.472 135.29 302.47 135.282C302.472 135.29 302.476 135.298 302.48 135.306ZM302.469 135.281C302.457 135.256 302.446 135.231 302.435 135.206C302.446 135.231 302.457 135.256 302.469 135.281ZM302.432 135.199C302.429 135.194 302.427 135.188 302.424 135.183C302.427 135.189 302.429 135.194 302.432 135.199ZM302.42 135.173C302.418 135.168 302.416 135.163 302.414 135.159C302.416 135.163 302.418 135.168 302.42 135.173ZM302.409 135.149C302.407 135.145 302.405 135.14 302.402 135.135C302.404 135.14 302.407 135.145 302.409 135.149ZM302.398 135.124C302.396 135.121 302.395 135.117 302.393 135.113C302.395 135.117 302.397 135.121 302.398 135.124ZM302.387 135.1C302.386 135.099 302.386 135.098 302.385 135.097C302.386 135.098 302.386 135.099 302.387 135.1ZM302.358 135.035C302.358 135.034 302.358 135.034 302.358 135.034C302.358 135.034 302.358 135.034 302.358 135.035Z" fill="#83CDE0"/>
<path d="M302.767 135.905C302.763 135.896 302.759 135.887 302.755 135.879C302.754 135.877 302.753 135.876 302.752 135.874C302.748 135.868 302.745 135.86 302.742 135.853C302.741 135.851 302.741 135.851 302.74 135.849C302.736 135.842 302.733 135.835 302.729 135.828C302.728 135.827 302.727 135.824 302.726 135.822C302.723 135.816 302.72 135.808 302.716 135.801C302.715 135.8 302.715 135.799 302.714 135.799C302.71 135.791 302.707 135.782 302.703 135.775C302.703 135.774 302.702 135.773 302.702 135.773C302.685 135.738 302.669 135.704 302.652 135.669C302.652 135.669 302.651 135.669 302.651 135.668C302.647 135.659 302.643 135.652 302.638 135.642C302.588 135.538 302.54 135.436 302.493 135.333C302.492 135.333 302.492 135.332 302.492 135.332C302.488 135.324 302.484 135.316 302.482 135.308C302.481 135.307 302.481 135.306 302.48 135.306C302.476 135.298 302.472 135.289 302.47 135.282L302.469 135.281C302.457 135.256 302.446 135.231 302.435 135.206C302.434 135.204 302.432 135.202 302.432 135.199C302.429 135.194 302.427 135.189 302.424 135.182C302.422 135.18 302.421 135.177 302.419 135.173C302.418 135.168 302.416 135.163 302.414 135.159C302.412 135.156 302.41 135.152 302.409 135.149C302.407 135.145 302.404 135.14 302.402 135.135C302.402 135.131 302.4 135.128 302.398 135.124C302.397 135.121 302.395 135.117 302.393 135.113C302.391 135.109 302.389 135.105 302.387 135.1C302.386 135.099 302.386 135.098 302.385 135.097C302.376 135.077 302.368 135.055 302.358 135.035C302.358 135.034 302.358 135.034 302.358 135.034C300.834 131.586 300.886 128.988 301.759 127.012C301.814 127.88 301.94 129.263 302.22 130.695C302.573 132.498 304.277 134.297 305.057 135.042C303.779 135.546 302.798 135.893 302.768 135.905H302.767V135.905Z" fill="#39312F"/>
<path d="M318.309 128.976C318.307 128.976 318.307 128.975 318.307 128.975C319.291 128.883 320.252 128.806 320.965 128.752V128.753C320.252 128.807 319.291 128.883 318.309 128.976V128.976Z" fill="#ED6E4C"/>
<path d="M318.308 128.975C315.908 127.478 311.758 125 309.527 124.304C309.085 124.165 308.626 124.106 308.16 124.106C305.208 124.106 302.016 126.489 302.012 126.492C303.365 124.007 306.057 122.592 308.318 121.711C308.692 121.565 309.105 121.499 309.55 121.499C313.357 121.499 319.428 126.359 321.454 128.076L321.035 128.307C321.035 128.307 321.011 128.469 320.965 128.752C320.252 128.806 319.291 128.884 318.308 128.975V128.975Z" fill="#2B2726"/>
<path d="M320.965 128.753V128.752C321.011 128.469 321.035 128.307 321.035 128.307L321.935 128.488C322.066 128.604 322.137 128.667 322.137 128.667C322.137 128.667 321.673 128.699 320.965 128.753V128.753Z" fill="#222C26"/>
<path d="M321.935 128.488L321.035 128.307L321.454 128.076C321.657 128.248 321.819 128.389 321.935 128.488V128.488Z" fill="#222C26"/>
<path d="M335.589 150.05C330.036 149.209 328.044 147.673 326.709 147.673C326.692 147.673 326.676 147.674 326.66 147.674C326.658 147.674 326.657 147.674 326.655 147.674C326.654 147.674 326.653 147.674 326.651 147.674C326.423 147.681 326.213 147.736 326.007 147.85L329.295 144.994L335.589 150.05V150.05Z" fill="#212825"/>
<path d="M342.467 128.611C342.478 128.608 342.492 128.604 342.504 128.601C342.492 128.604 342.479 128.608 342.467 128.611ZM347.19 127.357C347.192 127.356 347.195 127.355 347.198 127.354C347.195 127.355 347.192 127.356 347.19 127.357ZM347.199 127.354C347.213 127.35 347.222 127.348 347.228 127.346C347.222 127.348 347.211 127.35 347.199 127.354ZM347.228 127.346C347.23 127.345 347.231 127.345 347.232 127.345C347.231 127.345 347.23 127.345 347.228 127.346ZM347.232 127.345C347.232 127.345 347.232 127.345 347.233 127.344C347.232 127.345 347.232 127.345 347.232 127.345ZM347.233 127.344C347.234 127.344 347.234 127.344 347.235 127.344C347.234 127.344 347.234 127.344 347.233 127.344ZM347.235 127.344C347.235 127.344 347.235 127.344 347.236 127.343C347.235 127.344 347.235 127.344 347.235 127.344ZM347.236 127.343C347.236 127.343 347.236 127.343 347.237 127.343C347.236 127.343 347.236 127.343 347.236 127.343ZM347.242 127.342C347.286 127.333 347.48 127.322 347.79 127.308L347.791 127.31C347.485 127.322 347.287 127.333 347.242 127.342V127.342Z" fill="#02B5D2"/>
<path d="M342.467 128.611C341.167 128.415 336.166 127.468 331.75 127.468C330.922 127.468 330.114 127.501 329.355 127.579C330.635 127.437 335.073 126.97 338.073 126.97C338.522 126.97 338.94 126.98 339.308 127.004L347.789 127.308C347.48 127.322 347.286 127.333 347.242 127.342C347.24 127.342 347.238 127.343 347.237 127.343C347.236 127.343 347.236 127.343 347.236 127.343C347.235 127.344 347.235 127.344 347.235 127.344C347.234 127.344 347.234 127.344 347.233 127.344C347.232 127.345 347.232 127.345 347.232 127.345C347.231 127.345 347.23 127.345 347.228 127.346C347.222 127.348 347.212 127.35 347.199 127.354H347.198C347.195 127.355 347.192 127.356 347.19 127.357C346.851 127.452 344.855 127.98 342.504 128.601C342.492 128.604 342.478 128.608 342.467 128.611V128.611ZM328.998 127.62C329.115 127.605 329.234 127.591 329.355 127.579C329.129 127.604 329.002 127.619 328.998 127.62Z" fill="#212825"/>
<path d="M340.776 184.935L338.652 177.777L339.746 172.516L350.129 159.64C350.129 159.64 343.543 171.467 341.625 176.198C341.623 176.203 341.622 176.208 341.62 176.213C341.62 176.213 341.62 176.213 341.62 176.213C341.52 176.46 341.432 176.74 341.353 177.053V177.054C341.351 177.059 341.35 177.064 341.349 177.069C341.348 177.07 341.348 177.071 341.348 177.072C341.347 177.077 341.346 177.082 341.345 177.087C341.344 177.09 341.344 177.092 341.343 177.095C341.342 177.096 341.342 177.098 341.341 177.1C340.884 178.945 340.75 181.846 340.776 184.935V184.935Z" fill="#1E2022"/>
<path d="M363.904 158.612C363.87 158.224 363.833 157.789 363.79 157.317C363.833 157.788 363.87 158.224 363.904 158.612Z" fill="#02B5D2"/>
<path d="M374.066 197.017L365.942 182.431L360.903 167.855L360.137 143.971C362.677 146.554 363.428 153.266 363.79 157.317C363.833 157.789 363.87 158.223 363.904 158.612C363.921 158.809 363.937 158.995 363.953 159.166C364.354 163.513 367.112 177.901 367.441 179.612C367.346 179.113 367.301 178.786 367.3 178.606C367.3 178.493 367.318 178.44 367.351 178.44C367.972 178.44 374.066 197.017 374.066 197.017V197.017ZM367.454 179.683C367.467 179.747 367.473 179.78 367.473 179.78C367.473 179.78 367.467 179.749 367.454 179.683Z" fill="#1E2022"/>
<path d="M325.04 126.101L325.42 125.892L325.04 126.101Z" fill="#B3DEE9"/>
<path d="M325.04 126.101L325.42 125.892L325.683 125.747L329.599 123.591C331.917 123.072 346.885 119.166 349.524 119.166C349.524 119.166 349.524 119.166 349.526 119.166C349.659 119.166 349.761 119.177 349.828 119.197C349.83 119.199 349.832 119.199 349.834 119.2C351.035 119.607 360.035 119.96 361.882 120.028L361.88 120.046C359.871 120.079 349.453 120.254 348.912 120.254C348.312 120.254 334.39 123.74 334.03 123.74C333.67 123.74 325.316 125.949 325.04 126.101Z" fill="#1F472C"/>
<path d="M361.879 120.046L361.882 120.029C362.095 120.036 362.213 120.04 362.213 120.04C362.213 120.04 362.095 120.043 361.879 120.046Z" fill="#212732"/>
<path d="M305.185 164.427L314.224 144.341C314.224 144.341 314.224 144.341 314.224 144.34C314.243 144.287 315.011 142.106 316.087 140.414C315.564 141.766 310.731 154.29 310.731 154.547C310.731 154.818 305.265 164.287 305.185 164.427V164.427Z" fill="#1F472C"/>
<path d="M331.547 165.79C331.551 165.784 331.555 165.778 331.559 165.773C331.555 165.778 331.551 165.784 331.547 165.79ZM331.559 165.772C331.943 165.193 332.392 164.403 332.876 163.48C332.392 164.403 331.943 165.193 331.559 165.772V165.772ZM332.877 163.479C332.881 163.469 332.886 163.46 332.891 163.451C332.887 163.46 332.881 163.469 332.877 163.479ZM332.892 163.451C332.896 163.442 332.9 163.433 332.905 163.424C332.901 163.433 332.896 163.442 332.892 163.451ZM332.908 163.419C332.912 163.412 332.916 163.404 332.92 163.397C332.916 163.404 332.912 163.412 332.908 163.419ZM332.926 163.385C332.928 163.381 332.93 163.378 332.932 163.374C332.93 163.378 332.928 163.381 332.926 163.385ZM332.939 163.36C332.94 163.357 332.941 163.356 332.943 163.353C332.942 163.355 332.94 163.358 332.939 163.36Z" fill="#B3DEE9"/>
<path d="M332.169 200.77C332.184 200.145 332.197 199.328 332.196 198.404C332.197 199.328 332.185 200.144 332.17 200.77C332.169 200.77 332.169 200.77 332.169 200.77V200.77Z" fill="#1E333C"/>
<path d="M332.17 200.77C332.185 200.144 332.197 199.328 332.196 198.404C332.196 198.222 332.195 198.034 332.194 197.844C332.175 195.279 332.037 192.071 331.551 189.783C331.551 189.781 331.551 189.78 331.551 189.779C331.549 189.773 331.548 189.768 331.547 189.762C331.091 187.63 330.488 182.855 330.27 178.059C330.217 176.896 330.187 175.731 330.185 174.603C330.185 170.742 330.538 167.306 331.547 165.79C331.551 165.784 331.555 165.778 331.558 165.773C331.558 165.773 331.558 165.773 331.558 165.772C331.943 165.193 332.392 164.403 332.876 163.48C332.877 163.48 332.877 163.479 332.877 163.479C332.881 163.469 332.887 163.46 332.891 163.451H332.892C332.896 163.442 332.901 163.433 332.905 163.424C332.906 163.422 332.907 163.421 332.908 163.419C332.912 163.412 332.916 163.404 332.92 163.397C332.922 163.393 332.924 163.389 332.926 163.385C332.928 163.381 332.93 163.378 332.931 163.374C332.934 163.369 332.937 163.365 332.939 163.36C332.94 163.358 332.942 163.355 332.943 163.353C334.632 160.115 336.738 155.324 338.074 152.201C338.367 151.518 338.622 150.915 338.829 150.425L339.502 150.221C339.502 150.221 332.923 165.223 332.852 165.435C332.782 165.647 331.44 168.901 331.44 168.901V174.63L332.358 188.279C332.358 188.279 332.994 193.23 333.064 193.654C333.135 194.079 332.923 199.241 332.852 199.736C332.819 199.972 332.498 200.392 332.17 200.77V200.77Z" fill="#212732"/>
<path d="M367.452 197.017L358.295 181.245L350.129 159.64C350.129 159.64 355.872 168.224 355.872 169.856C355.872 171.486 358.746 179.546 358.842 179.834C358.937 180.121 363.058 186.838 363.344 187.126C363.632 187.414 367.452 197.017 367.452 197.017V197.017Z" fill="#212732"/>
<path d="M455.378 37.9945V119.074C455.378 119.902 456.063 120.565 456.89 120.537L458.482 120.481C459.269 120.453 459.893 119.806 459.893 119.018V37.9945C459.893 37.1865 459.239 36.5307 458.431 36.5307H456.839C456.032 36.5307 455.378 37.1865 455.378 37.9945V37.9945Z" fill="#606F74"/>
<path d="M456.598 118.848C456.446 118.848 456.323 118.724 456.323 118.572V65.4083C456.485 65.1916 456.668 64.9538 456.874 64.6994V118.572C456.874 118.724 456.75 118.848 456.598 118.848V118.848Z" fill="#7D9095"/>
<path d="M455.378 35.4981C455.378 35.4981 461.948 26.1532 493.895 30.7054C510.517 33.0728 522.132 25.9117 522.132 25.9117C522.132 25.9117 529.42 52.6179 484.774 52.7746C463.156 52.8515 455.378 66.8105 455.378 66.8105V35.4981V35.4981Z" fill="#E73551"/>
<path d="M459.053 39.8435L458.875 36.1428C463.5 32.5661 468.954 31.3781 474.159 31.3781C484.454 31.3781 493.773 36.0252 493.773 36.0252C489.835 35.0688 486.001 34.6922 482.405 34.6922C469.102 34.6922 459.053 39.8435 459.053 39.8435Z" fill="#E73767"/>
<path d="M241.123 231.83C242.644 229.02 243.509 225.801 243.509 222.381C243.509 211.41 234.628 202.517 223.674 202.517C220.767 202.517 218.014 203.159 215.526 204.285C208.96 196.151 198.921 190.947 187.663 190.947C183.338 190.947 179.191 191.714 175.352 193.122C169.112 182.586 157.647 175.519 144.528 175.519C129.749 175.519 117.068 184.487 111.596 197.282C98.0814 193.293 84.2125 199.605 76.8441 212.045C74.7616 211.081 72.4781 210.543 70.0806 210.543C60.3534 210.543 52.4673 219.309 52.4673 230.119C52.4673 230.697 52.5016 231.265 52.5447 231.83H105.009H164.068H241.123V231.83Z" fill="#B7F5F7"/>
<path d="M383.909 356.901C385.26 354.405 386.028 351.547 386.028 348.51C386.028 338.768 378.141 330.87 368.414 330.87C365.832 330.87 363.388 331.441 361.178 332.44C355.347 325.217 346.433 320.595 336.436 320.595C332.595 320.595 328.912 321.277 325.504 322.527C319.963 313.17 309.781 306.895 298.132 306.895C284.802 306.895 273.396 315.109 268.664 326.755C265.17 325.434 261.387 324.705 257.432 324.705C246.315 324.705 236.537 330.42 230.849 339.073C228.767 338.204 226.483 337.72 224.086 337.72C214.359 337.72 206.473 345.618 206.473 355.36C206.473 355.88 206.507 356.392 206.55 356.901H383.909Z" fill="#B7F5F7"/>
<path d="M324.188 69.9293C316.383 69.9293 309.175 72.4767 303.339 76.7811C300.46 73.7711 296.416 71.8888 291.925 71.8888C287.66 71.8888 283.797 73.5885 280.952 76.3374C277.071 72.9771 272.072 70.8972 266.583 70.7185C261.7 57.7483 249.228 48.5054 234.569 48.5054C221.167 48.5054 209.595 56.2343 203.971 67.4681C201.986 66.9637 199.917 66.6667 197.775 66.6667C183.873 66.6667 172.603 77.9534 172.603 91.8756H356.785C351.542 79.0039 338.926 69.9293 324.188 69.9293Z" fill="#B7F5F7"/>
<path d="M473.545 256.998C481.35 256.998 488.558 259.545 494.395 263.85C497.274 260.841 501.317 258.959 505.807 258.959C510.072 258.959 513.936 260.658 516.781 263.406C520.661 260.046 525.661 257.967 531.15 257.787C535.773 245.508 547.993 236.072 561.092 235.593C572.248 235.185 583.077 239.721 589.511 249.143C592.919 248.059 596.602 247.468 600.443 247.468C610.44 247.468 619.354 251.475 625.186 257.737C627.395 256.871 629.839 256.376 632.421 256.376C642.148 256.376 650.035 263.224 650.035 271.67C650.035 274.303 649.268 276.781 647.917 278.945H577.372H558.598H440.948C446.192 266.073 458.808 256.998 473.545 256.998V256.998Z" fill="#B7F5F7"/>
</svg>
