<svg width="381" height="587" viewBox="0 0 381 587" fill="none" xmlns="http://www.w3.org/2000/svg">
<path fill-rule="evenodd" clip-rule="evenodd" d="M365.863 500.255L365.74 571.004L392.956 570.869L392.917 487.927L463.033 487.141L462.691 570.85L487.83 571.509L488.085 521.007C481.335 523.552 482.287 529.896 471.188 528.977C473.273 524.659 476.446 523.203 478.842 518.978C481.566 514.175 481.591 509.881 482.773 504.665C475.412 497.34 470.837 467.778 464.297 458.709L458.483 459.109C460.74 453.107 460.198 456.719 462.913 452.702C461.177 445.458 457.739 438.214 458.248 430.885C454.119 425.227 459.107 425.937 450.564 418.841L429.516 400.662C425.618 397.422 422.763 394.831 418.395 391.475C414.097 404.839 371.158 495.922 365.863 500.255V500.255Z" fill="#DCFBFC"/>
<path fill-rule="evenodd" clip-rule="evenodd" d="M179.774 71.5598C180.558 69.001 180.976 68.651 183.559 67.9827L187.503 69.0674C188.038 72.3946 188.058 71.7125 187.518 74.9039C183.881 76.2225 180.533 76.5557 179.774 71.5598ZM195.72 67.3998C197.034 65.7163 196.825 65.3683 199.07 64.9737L201 64.9926L203.882 67.1569C203.88 72.1547 203.307 72.0853 198.906 73.4049L195.685 70.9947L195.72 67.3998V67.3998ZM217.082 70.3463L214.064 70.499C211.675 69.4996 212.685 70.2412 211.618 68.3525C211.886 63.1594 212.567 62.399 218.084 62.9641L219.171 64.258C220.021 65.636 220.743 66.0881 219.589 68.4031C218.995 69.5948 218.46 69.7277 217.082 70.3463V70.3463ZM188.214 54.5964L184.049 55.9725C178.304 57.0581 160.076 60.2307 157.168 61.7476C147.957 66.5531 157.335 79.065 157.573 90.9414C157.216 93.6043 167.594 138.052 169.658 147.589C170.916 153.405 170.219 153.301 171.971 154.081C173.118 146.273 178.034 143.165 178.602 141.661C179.315 139.772 176.885 131.926 184.544 129.534C189.906 123.26 210.02 124.508 218.655 126.006C216.109 119.456 202.975 106.647 191.402 106.507C185.516 106.435 186.499 107.149 185.451 105.123C185.782 104.565 184.256 103.118 192.135 103.591C199.741 104.049 203.586 106.77 209.283 110.759C214.14 114.16 220.71 122.541 224.917 127.664C228.589 130.615 235.632 132.469 240.052 130.466C240.072 137.474 239.428 138.555 237.803 144.437C238.239 147.982 250.755 163.592 265.728 162.718C265.599 159.868 264.377 155.962 265.571 153.858L267.707 153.738L269.083 161.722C296.239 158.598 294.143 86.7357 331.894 86.8903C368.803 87.042 369.657 154.764 399.795 157.028C399.754 155.602 399.788 154.2 399.865 152.778C399.884 152.398 399.943 151.049 400.004 150.749C400.278 149.389 400.17 150.049 400.614 149.338C399.421 143.991 401.158 120.22 401.425 113.014C401.755 104.13 403.519 84.4782 402.431 76.7529L402.687 72.3024L406.543 72.6048C407.098 74.8544 406.774 77.8633 406.04 79.4467L403.015 156.858C419.491 159.532 433.433 128.876 441.112 117.318C444.398 112.373 447.977 106.874 452.06 102.661C459.779 94.7038 474.864 87.2334 488.737 96.6331C496.809 102.103 500.848 110.108 504.572 119.179C505.259 120.854 505.694 122.12 506.292 123.946C507.256 126.879 506.718 126.879 508.838 127.666L510.061 131.108L522.233 126.409C525.159 127.978 521.351 129.242 530.17 128.107C533.518 127.676 536.706 127.411 540.13 127.377C555.089 127.228 551.263 131.346 554.331 134.89C559.962 137.66 561.692 144.372 564.211 151.294C566.638 150.28 566.218 146.778 567.507 141.099L572.787 117.873C573.668 114.184 574.846 109.899 575.036 105.75L574.289 104.826C572.766 102.875 573.088 102.343 572.191 101.312L572.222 101.081L572.211 100.311C570.428 99.075 569.102 97.7247 567.666 95.9699L567.754 95.7032C563.607 94.9715 566.489 96.8542 556.75 101.119C545.72 105.951 531.799 105.479 521.379 100.379C519.261 99.3427 518.274 98.2125 515.817 97.6206C513.115 96.2584 514.293 96.9008 512.375 95.0974C511.103 93.9018 510.558 93.7719 509.297 92.481C507.666 90.8115 505.582 88.555 504.149 85.9703C503.627 83.1209 501.691 81.3721 500.413 77.7573C499.211 74.3607 498.38 71.9693 497.796 68.2009C496.211 57.9862 498.697 55.451 499.543 46.7582C496.285 45.7162 485.183 44.93 480.587 44.3689C459.685 41.8169 442.05 41.5334 422.531 39.5832C397.678 37.0977 325.308 37.8224 299.759 40.3496C286.413 41.6702 273.911 41.8833 260.936 43.6253C250.328 45.049 191.857 52.1654 188.214 54.5964V54.5964Z" fill="#FDFDFD"/>
<path fill-rule="evenodd" clip-rule="evenodd" d="M173.709 281.049C167.77 284.344 164.287 281.794 159.798 279.515C160.489 283.193 162.035 286.966 162.817 291.024C165.375 304.301 164.984 316.627 161.665 329.579C156.361 350.279 142.183 368.531 125.369 378.795C101.922 393.107 82.7055 394.22 56.1447 388.46C57.8081 395.119 51.5357 424.025 59.4309 452.551C69.2786 488.129 91.425 512.742 125.175 526.447C140.188 532.543 164.464 539.003 183.73 538.37C183.909 504.836 187.664 471.55 187.659 438.317C187.656 424.084 187.471 389.032 186.2 375.017C184.865 360.317 182.603 365.914 183.561 340.086C183.392 337.89 183.59 338.711 182.869 337.219C183.682 335.862 182.696 336.877 184.016 336.32L184.826 330.593L184.931 330.059C186.158 319.79 186.638 308.433 185.823 298.017C185.093 288.673 181.352 275.419 181.542 267.266L179.861 267.274C179.501 273.807 178.113 278.212 173.709 281.049V281.049Z" fill="#DDF9FA"/>
<path fill-rule="evenodd" clip-rule="evenodd" d="M466.509 192.271C462.871 191.856 463.088 192.489 463.653 188.402L472.646 109.816C474.01 98.407 472.845 100.031 476.117 100.481C477.057 102.008 476.856 102.665 476.869 103.689L471.814 146.449C469.891 161.653 468.104 177.179 466.509 192.271ZM235.316 149.322C239.788 159.682 239.983 170.103 236.264 181.226C232.887 191.323 227.466 196.805 214.746 196.284L214.883 199.876L215.683 203.55L217.14 203.287C222.84 203.3 232.172 202.757 237.436 203.741C239.675 204.159 243.159 205.194 245.373 205.599C248.507 206.174 251.648 206.191 254.163 206.757C257.18 205.046 257.15 205.477 260.905 205.02C263.056 204.759 266.145 204.382 267.856 204.145C271.874 203.588 278.286 202.531 281.936 202.69C282.762 201.796 283.257 201.153 283.958 200.366L285.479 198.012L287.01 196.099L289.118 192.439L289.553 191.376L291.923 187.363L294.555 183.375C295.049 181.732 294.066 180.76 296.872 180.981L297.499 179.228C302.701 168.641 303.237 165.185 311.197 157.808C315.529 153.792 316.946 154.452 322.229 151.709C326.227 149.632 328.801 146.956 332.491 145.164L331.031 115.089C330.617 104.257 329.968 107.422 332.607 106.347C335 107.451 334.362 111.189 334.518 116.194L336.709 177.736C337.129 187.213 337.95 186.019 335.46 187.156C333.583 186.396 334.798 187.552 334.018 185.507L331.806 149.178L326.309 154.247C326.691 164.934 330.054 167.576 317.21 170.156C306.354 172.338 311.196 179.078 306.131 185.541L305.707 187.035C306.927 189.373 307.81 188.179 308.767 191.645L307.095 193.401L303.993 200.23C312.099 200.631 320.486 199.12 328.306 198.97C337.199 198.802 344.382 198.264 353.289 198.197C370.651 198.066 388.141 198.783 404.634 198.925C419.323 199.052 459.609 202.9 476.123 205.237C483.639 206.299 492.027 207.974 499.744 208.379C500.565 207.997 500.44 209.152 500.41 207.703L503.111 204.994C506.843 204.116 506.666 203.329 512.312 203.286C516.336 203.255 520.366 203.334 524.391 203.271L528.012 203.028C529.563 201.033 529.449 198.313 529.416 195.649L524 194.139C518.433 192.086 514.486 188.378 511.482 184.272C509.593 181.69 508.541 180.087 507.271 177.096C504.718 171.078 505.159 176.101 501.591 172.094C499.912 170.207 498.747 166.498 499.522 162.919C500.362 159.039 501.979 158.476 504.207 156.783C506.665 154.916 508.41 146.319 512.025 143.309C508.574 141.093 507.946 140.198 506.543 135.732L505.397 132.999C505.341 132.767 505.347 132.596 505.305 132.369C505.242 132.027 505.338 131.152 504.95 129.572C502.944 121.398 495.6 105.262 489.151 100.493C474.989 90.0195 462.018 96.5312 453.332 106.042C435.653 125.403 428.345 158.296 402.89 160.235C402.901 161.052 402.988 161.892 402.85 162.703C402.595 164.205 402.738 163.289 402.224 164.064C403.026 167.689 402.233 177.881 402.047 182.89C401.82 189.059 399.332 188.215 398.746 184.924L399.621 160.452L399.65 159.966C367.851 158.345 365.651 89.6616 331.894 89.8004C306.603 89.9045 301.385 125.453 287.873 149.509C280.252 163.077 273.439 162.541 269.494 165.638L272.229 189.851C271.867 192.192 272.688 191.294 270.562 192.261C268.894 191.264 269.395 193.408 268.633 186.065L266.194 165.62C250.439 166.325 244.699 157.393 238.241 150.854C237.896 150.506 237.401 149.964 236.747 149.6C234.905 148.572 236.589 148.845 235.316 149.322V149.322Z" fill="#FDFDFD"/>
<path fill-rule="evenodd" clip-rule="evenodd" d="M309.086 345.783L325.684 345.846L325.519 357.851L309.072 358.073L309.086 345.783V345.783ZM251.525 330.179L252.032 335.123C251.903 370.845 253.875 405.494 255.083 441.094C255.98 467.463 251.303 486.544 243.756 511.239C241.697 517.976 238.509 526.348 237.091 532.896C250.69 527.12 251.862 528.431 268.283 520.086C279.844 514.212 292.774 503.184 294.679 502.208C295.02 511.125 295.441 573.152 294.274 577.769L295.332 577.709L294.927 440.79C300.038 440.123 331.981 440.109 336.198 441.049C336.435 436.091 339.337 427.525 340.374 421.056C343.3 402.787 342.149 379.648 335.945 362.27C335.929 362.221 335.245 360.237 335.241 360.208C334.931 357.439 334.512 359.074 335.89 357.607L335.814 356.886L333.657 356.342C332.016 349.955 328.904 344.686 326.212 339.458C323.746 334.671 318.376 327.354 317.317 323.583L309.058 323.869L309.099 312.984C306.637 312.115 306.902 311.324 305.412 309.581L305.416 363.447L301.009 363.569L301.073 304.165C297.784 302.352 292.784 296.715 289.56 294.063C285.476 290.703 281.314 287.388 277.022 284.415C268.716 278.658 257.349 272.218 248.329 269.315L251.525 330.179V330.179Z" fill="#DCFBFC"/>
<path fill-rule="evenodd" clip-rule="evenodd" d="M184.016 336.32L200.706 336.365C203.372 336.364 203.653 336.276 205.032 337.219C203.324 338.092 202.551 337.841 199.975 337.818L184.771 337.744L183.561 340.086C182.602 365.914 184.865 360.317 186.199 375.017C187.471 389.032 187.655 424.084 187.658 438.317C187.663 471.55 183.908 504.836 183.73 538.371L183.51 550.571L183.363 558.617L197.938 558.445L202.009 538.1C205.357 513.605 211.468 490.017 213.603 464.696C215.87 437.798 215.197 409.983 217.396 383.006C228.203 425.075 231.975 457.43 224.691 500.027C222.971 510.076 220.288 528.11 217.274 537.142L212.679 558.618L214.94 559.434L225.402 560.032C227.969 560.279 226.881 561.468 229.338 554.514C230.209 552.049 231.011 549.7 231.943 547.146C233.075 544.044 235.836 534.798 237.092 532.896C238.51 526.348 241.697 517.977 243.756 511.239C251.303 486.544 255.979 467.463 255.084 441.094C253.875 405.494 251.904 370.845 252.033 335.123L250.999 332.203C250.179 330.601 249.132 328.485 248.014 332.179L247.312 355.018C245.926 381.256 251.433 420.576 251.931 450.417C252.27 470.753 239.612 511.287 232.431 532.56C231.465 535.419 226.071 556.688 223.494 557.774C222.301 555.305 235.633 514.839 237.616 508.758C243.174 491.705 248.307 473.992 249.869 455.419C250.658 446.034 248.872 434.278 248.474 424.641C247.917 411.155 244.275 371.772 244.929 362.821C245.597 353.668 246.478 339.759 245.976 330.793L184.826 330.593L184.016 336.32V336.32Z" fill="#492F29"/>
<path fill-rule="evenodd" clip-rule="evenodd" d="M295.332 577.71L365.924 577.663L366.009 441.648L336.199 441.049C331.981 440.11 300.039 440.124 294.927 440.79L295.332 577.71V577.71Z" fill="#4ED5FD"/>
<path fill-rule="evenodd" clip-rule="evenodd" d="M371.632 577.64L392.445 577.752L392.459 493.231L463.169 493.039L462.998 577.635C467.685 577.685 488.339 578.475 489.965 577.728L490.016 523.664C486.388 527.909 479.719 537.13 470.953 535.388C471.914 529.372 480.681 531.952 482.524 511.472C480.236 508.837 474.947 492.658 473.18 488.024C470.371 480.648 467.72 470.6 464.663 463.969C461.985 464.396 460.773 465.307 458.294 464.63C459.119 460.12 460.39 462.332 463.008 458.874C461.865 451.919 456.142 437.681 456.951 431.129L455.843 429.25C455.123 428.201 455.993 429.165 454.883 428.021L446.967 421.704C443.403 418.828 440.359 416.172 436.797 413.34L417.159 395.514C416.4 398.489 414.274 401.692 412.735 405.183C394.77 445.949 381.948 478.051 374.931 523.953C371.996 543.157 372.101 557.848 371.632 577.64V577.64Z" fill="#DCFBFC"/>
<path fill-rule="evenodd" clip-rule="evenodd" d="M98.6775 269.685C100.542 271.272 102.804 272.175 104.703 273.554C107.079 275.282 108.353 276.211 110.185 278.047C119.708 287.596 123.974 301.464 121.762 314.734C117.689 339.173 92.6305 355.182 68.5147 348.116C59.7406 345.384 54.3768 341.239 49.3437 336.574L46.0535 339.355L49.1689 344.339C44.0216 349.931 38.4314 354.195 36.2346 356.732C31.9622 361.669 26.661 364.3 23.2447 369.676C24.3331 370.539 25.2885 371.69 26.6858 372.771C40.7781 383.673 41.3402 381.799 56.1445 388.46C103.248 398.676 149.213 378.165 161.665 329.579C164.984 316.627 165.375 304.301 162.817 291.024C162.035 286.966 160.489 283.193 159.798 279.514C158.658 277.882 157.307 277.255 155.834 275.911C154.279 274.49 153.814 273.749 152.458 272.153C149.961 269.212 148.087 267.38 145.719 264.175L143.583 260.972L147.31 257.887L147.35 255.797C144.54 254.715 140.748 248.114 137.282 246.167C133.253 246.574 124.947 253.634 115.876 247.434C116.147 240.404 121.893 238.836 124.334 235.98L117.237 232.567C116.824 235.229 110.216 248.091 108.433 251.515C106.336 255.537 101.02 267.778 98.6775 269.685V269.685Z" fill="#47F2C6"/>
<path fill-rule="evenodd" clip-rule="evenodd" d="M172.442 212.737L163.236 255.731L160.855 253.307C158.229 253.789 155.427 256.738 153.21 258.492L145.72 264.175C148.088 267.38 149.962 269.213 152.459 272.153C153.815 273.749 154.28 274.49 155.835 275.911C157.308 277.255 158.658 277.882 159.799 279.515C164.287 281.794 167.771 284.344 173.71 281.049C173.602 276.164 175.955 239.022 177.139 236.621L178.252 240.151C178.41 240.938 178.643 242.466 178.757 243.292C179.54 248.932 181.733 261.367 180.458 264.533C181.215 265.377 181.411 264.088 181.543 267.266C181.353 275.419 185.094 288.673 185.824 298.017C186.638 308.433 186.159 319.79 184.932 330.059L228.718 330.339C230.644 294.355 231.833 300.244 228.658 262.393C227.803 252.196 225.902 240.912 223.873 231.493L217.142 203.286L215.684 203.55L196.259 203.493L179.276 203.273C173.343 204.702 173.732 206.978 172.442 212.737V212.737Z" fill="#4646E3" stroke="#4646E3" stroke-width="0.0762" stroke-miterlimit="22.9256"/>
<path fill-rule="evenodd" clip-rule="evenodd" d="M283.093 29.4537L275.061 30.6038L230.099 35.549L222.967 36.8627L198.401 40.2494L195.569 41.0743C183.279 42.4613 166.212 46.2169 153.766 49.1505C133.142 54.0115 135.124 60.0691 139.659 79.1859C145.245 102.728 154.934 139.286 159.236 161.046C161.693 167.956 163.543 178.538 165.481 186.54C166.589 191.11 167.601 195.284 168.633 199.741C169.103 201.768 169.72 204.104 170.178 206.036L171.545 211.207C172.062 212.35 171.906 212.051 172.442 212.737C173.732 206.977 173.343 204.702 179.276 203.273L182.592 203.073C181.573 196.307 176.134 178.688 177.897 176.306C173.874 168.944 172.294 164.255 171.972 154.081C170.22 153.301 170.918 153.405 169.659 147.589C167.596 138.052 157.218 93.6043 157.574 90.9413C157.336 79.065 147.958 66.5531 157.169 61.7476C160.077 60.2307 178.305 57.0581 184.05 55.9725L188.216 54.5964C191.858 52.1654 250.329 45.049 260.937 43.6253C273.912 41.8833 286.414 41.6702 299.76 40.3496C325.309 37.8224 397.679 37.0977 422.532 39.5832C442.051 41.5334 459.686 41.8169 480.588 44.3689C485.184 44.93 496.286 45.7162 499.544 46.7582C500.529 44.4491 501.79 42.1312 502.892 40.1939C504.428 37.4932 505.234 36.9589 506.438 35.7077L503.821 35.3032C501.644 35.4023 499.282 34.7599 495.679 34.2672L455.244 29.9019L453.487 29.7581L453.461 29.7561C450.367 29.5777 447.783 29.3685 445.617 29.1335C429.994 27.9309 414.185 26.9414 398.361 26.5786C368.174 25.8846 341.291 26.0393 311.289 27.6949C302.761 28.1659 290.989 29.7987 283.093 29.4537V29.4537Z" fill="#2FB7D6"/>
<path fill-rule="evenodd" clip-rule="evenodd" d="M489.964 577.728C488.338 578.475 467.685 577.685 462.997 577.635L392.445 577.752L371.631 577.64L365.923 577.663L295.332 577.709L294.274 577.769C282.489 577.241 267.206 577.935 254.813 577.768L250.716 577.091C246.03 578.268 238.4 577.795 233.419 577.449C226.79 576.989 222.669 577.586 216.391 577.671C204.839 577.824 192.339 577.997 180.858 577.649C174.086 578.055 164.915 577.726 157.17 577.723C153.767 577.721 148.091 576.882 145.703 578.549C141.907 581.2 144.338 585.125 147.46 586.585C158.609 587.384 198.547 586.71 212.796 586.71L641.405 586.692C649.267 586.692 668.438 587.625 674.972 586.245C676.119 585.518 681.131 577.536 669.247 577.709C665.757 577.761 662.256 577.853 658.77 577.702L587.888 577.729L562.24 577.737C560.83 565.144 561.797 416.913 561.796 385.631L561.92 375.619C561.715 373.572 562.295 376.412 561.704 374.295C561.076 372.051 562.193 373.84 560.82 372.575L560.769 577.669L489.964 577.728V577.728Z" fill="#DDDEDD"/>
<path fill-rule="evenodd" clip-rule="evenodd" d="M70.2934 262.561L62.2293 225.461L67.3985 224.71L65.885 220.226C54.1573 221.911 41.2608 229.306 33.8035 234.717C9.13955 252.609 -3.79275 284.022 0.980144 315.133C2.03284 321.997 4.46696 327.385 5.67359 333.444L44.9144 318.214C42.1476 304.097 39.5715 295.511 47.1221 282.182C51.6835 274.128 60.0554 265.35 70.2934 262.561V262.561Z" fill="#4ED5FD"/>
<path fill-rule="evenodd" clip-rule="evenodd" d="M270.477 207.395C264.834 207.677 259.676 207.189 254.164 206.756C251.649 206.191 248.508 206.173 245.374 205.598C243.16 205.194 239.676 204.159 237.437 203.74C232.173 202.757 222.841 203.3 217.141 203.286L223.873 231.492C225.902 240.912 227.802 252.195 228.657 262.392C231.832 300.244 230.644 294.355 228.717 330.339L244.184 330.172C248.788 329.384 245.441 329 248.181 329.672C249.806 330.07 248.486 330.311 251.526 330.178L248.33 269.314L244.644 226.834C257.045 227.802 277.875 228.759 288.934 221.736C292.949 219.186 293.866 216.469 296.936 212.809C298.928 208.676 301.844 204.635 303.994 200.23L307.096 193.401C305.191 190.412 303.581 189.965 300.869 188.059C298.952 186.71 296.642 185.085 294.555 183.374C287.108 194.66 285.447 206.645 270.477 207.395V207.395Z" fill="#5C5CED" stroke="#5C5CED" stroke-width="0.0762" stroke-miterlimit="22.9256"/>
<path fill-rule="evenodd" clip-rule="evenodd" d="M237.091 532.896C235.836 534.798 233.075 544.043 231.943 547.146C231.01 549.7 230.209 552.049 229.338 554.514C226.881 561.468 227.968 560.279 225.401 560.032L225.342 563.507C227.932 565.866 233.293 568.587 237.358 570.442C241.262 572.224 248.638 573.325 251.898 575.394L250.716 577.091L254.813 577.768C267.206 577.936 282.489 577.242 294.275 577.769C295.442 573.152 295.02 511.125 294.679 502.209C292.774 503.184 279.844 514.212 268.283 520.086C251.862 528.431 250.69 527.12 237.091 532.896V532.896Z" fill="#FEFEFE"/>
<path fill-rule="evenodd" clip-rule="evenodd" d="M303.993 200.23C301.843 204.635 298.927 208.676 296.935 212.809C305.645 212.897 315.867 211.565 324.782 211.109C334.001 210.637 343.286 210.274 352.562 210.128C371.712 209.83 390.632 209.974 409.602 211.024C424.87 211.998 439.135 213.069 453.966 214.546C461.266 215.273 467.958 216.062 475.155 217.026C481.801 217.916 490.435 219.769 496.961 219.922L499.744 208.378C492.027 207.974 483.639 206.299 476.123 205.236C459.608 202.9 419.323 199.052 404.634 198.925C388.141 198.783 370.65 198.065 353.289 198.196C344.382 198.264 337.198 198.802 328.306 198.97C320.485 199.119 312.099 200.631 303.993 200.23V200.23Z" fill="#2FB7D6"/>
<path fill-rule="evenodd" clip-rule="evenodd" d="M202.009 538.1C207.438 538.798 212.04 537.424 217.274 537.142C220.288 528.11 222.972 510.076 224.691 500.027C231.975 457.43 228.204 425.075 217.396 383.006C215.198 409.983 215.87 437.798 213.604 464.696C211.469 490.018 205.357 513.605 202.009 538.1V538.1Z" fill="#DEF8F9"/>
<path fill-rule="evenodd" clip-rule="evenodd" d="M67.399 224.71L62.2298 225.461L70.2939 262.561L71.5919 266.521C76.3519 265.899 81.3472 265.401 86.4578 266.141C91.5524 266.881 94.6907 268.802 98.678 269.686C101.021 267.778 106.337 255.537 108.433 251.516C110.217 248.091 116.824 235.229 117.237 232.567C115.079 229.898 100.378 225.925 95.4861 225.04C86.2005 223.362 76.7273 223.193 67.399 224.71V224.71Z" fill="#00E3E6"/>
<path fill-rule="evenodd" clip-rule="evenodd" d="M68.5142 348.117C92.6299 355.183 117.688 339.173 121.762 314.734C122.907 307.861 122.283 293.519 117.651 289.65L117.944 291.519C114.798 292.919 105.809 299.909 102.545 302.623C91.045 312.188 72.3317 334.355 68.5142 348.117V348.117Z" fill="#DEF8F9"/>
<path fill-rule="evenodd" clip-rule="evenodd" d="M171.971 154.081C172.293 164.255 173.873 168.944 177.896 176.305C181.08 182.06 184.83 185.277 190.339 188.338C200.349 188.908 204.533 186.055 210.081 182.035L209.82 181.323C205.886 172.103 202.527 162.8 198.255 153.848C196.135 149.402 193.961 145.066 191.767 141.035C190.483 138.675 186.48 130.252 184.544 129.534C176.885 131.926 179.316 139.772 178.603 141.661C178.034 143.165 173.119 146.273 171.971 154.081V154.081Z" fill="#D9772E" stroke="#D9772E" stroke-width="0.0762" stroke-miterlimit="22.9256"/>
<path fill-rule="evenodd" clip-rule="evenodd" d="M209.818 181.323L210.08 182.035C210.751 185.102 211.862 187.537 212.91 190.468C214.004 193.529 213.819 197.739 214.882 199.876L214.745 196.284C227.465 196.804 232.886 191.323 236.263 181.226C239.982 170.103 239.788 159.682 235.316 149.322L234.815 147.33C234.643 147.45 234.438 147.62 234.316 147.708C232.173 149.263 231.047 149.99 228.25 150.341C225.275 150.713 222.701 150.132 219.814 149.845L219.806 158.696C210.681 151.917 204.628 166.896 214.789 174.182C214.35 177.04 211.78 179.94 209.818 181.323V181.323Z" fill="#FEAF84"/>
<path fill-rule="evenodd" clip-rule="evenodd" d="M31.0807 130.942C38.1328 132.873 100.616 131.96 112.176 131.563L112.077 119.606L33.5873 119.481L31.2088 119.582L31.0807 130.942V130.942Z" fill="#00E3E6"/>
<path fill-rule="evenodd" clip-rule="evenodd" d="M23.2439 369.676C26.6602 364.3 31.9615 361.67 36.2339 356.732C38.4306 354.195 44.0208 349.931 49.1682 344.339L46.0528 339.355L40.9243 331.443C34.6578 332.691 12.2492 343.217 2.24557 346.314C3.70446 353.42 14.1749 369.286 18.8921 372.673L23.2439 369.676V369.676Z" fill="#F9DACD"/>
<path fill-rule="evenodd" clip-rule="evenodd" d="M31.0592 114.342L101.725 114.553L101.824 102.384L31.1466 102.431L31.0592 114.342Z" fill="#00E3E6"/>
<path fill-rule="evenodd" clip-rule="evenodd" d="M237.804 144.437C235.63 146.118 236.941 146.076 234.816 147.33L235.317 149.322C236.589 148.845 234.906 148.572 236.748 149.599C237.402 149.964 237.897 150.506 238.242 150.854C244.7 157.393 250.439 166.325 266.195 165.62L268.634 186.065C269.396 193.408 268.894 191.264 270.563 192.261C272.689 191.294 271.867 192.192 272.23 189.851L269.495 165.638C273.44 162.541 280.252 163.077 287.873 149.509C301.386 125.453 306.604 89.9043 331.894 89.8002C365.652 89.6614 367.852 158.345 399.65 159.966L399.795 157.028C369.657 154.764 368.803 87.042 331.894 86.8904C294.143 86.7357 296.239 158.598 269.083 161.722L267.707 153.738L265.571 153.858C264.377 155.962 265.599 159.868 265.728 162.718C250.755 163.592 238.24 147.982 237.804 144.437V144.437Z" fill="#E6EAFD"/>
<path fill-rule="evenodd" clip-rule="evenodd" d="M31.0807 148.029C34.2309 148.891 79.2536 149.088 84.3821 148.573L84.4337 136.486L51.8328 136.704L31.2049 136.631L31.0807 148.029Z" fill="#00E3E6"/>
<path fill-rule="evenodd" clip-rule="evenodd" d="M228.717 330.339L184.932 330.059L184.826 330.593L245.976 330.793C246.479 339.759 245.598 353.668 244.929 362.821C244.275 371.772 247.918 411.155 248.474 424.641C248.872 434.278 250.659 446.034 249.869 455.42C248.307 473.992 243.175 491.705 237.616 508.758C235.633 514.839 222.301 555.305 223.494 557.774C226.071 556.688 231.465 535.419 232.431 532.56C239.612 511.287 252.271 470.753 251.931 450.417C251.433 420.576 245.927 381.256 247.312 355.018L248.014 332.179C249.132 328.486 250.179 330.601 250.999 332.203L252.033 335.123L251.526 330.179C248.486 330.312 249.806 330.071 248.181 329.672C245.441 329 248.788 329.385 244.184 330.173L228.717 330.339V330.339Z" fill="#89635A"/>
<path fill-rule="evenodd" clip-rule="evenodd" d="M335.816 356.886L335.891 357.609L375.079 357.891L375.233 345.888L335.59 345.794L335.816 356.886Z" fill="#A6F3F9"/>
<path fill-rule="evenodd" clip-rule="evenodd" d="M205.944 570.829C206.669 573.185 206.424 574.885 207.118 577.26C201.998 577.697 198.045 576.85 193.541 576.893C189.605 576.93 185.016 578.277 180.858 576.75V577.649C192.339 577.997 204.838 577.825 216.39 577.671C222.669 577.587 226.789 576.989 233.418 577.449C238.399 577.795 246.03 578.268 250.715 577.091L251.898 575.394C248.637 573.325 241.262 572.224 237.358 570.442C233.292 568.588 227.931 565.866 225.341 563.507L212.374 562.023C210.635 563.388 210.149 563.961 209.003 566.228C207.955 568.304 207.655 569.703 205.944 570.829V570.829Z" fill="#4847E0"/>
<path fill-rule="evenodd" clip-rule="evenodd" d="M309.093 289.579L332.606 289.514L339.025 289.52L347.695 289.526L347.715 277.545L343.304 277.408L316.962 277.433L309.024 277.41L309.093 289.579Z" fill="#A6F3F9"/>
<path fill-rule="evenodd" clip-rule="evenodd" d="M297.5 179.228C300.669 179.879 303.482 181.786 306.563 183.408L306.132 185.541C311.197 179.078 306.354 172.338 317.211 170.156C330.055 167.576 326.691 164.934 326.31 154.247L331.807 149.178C332.997 147.498 334.13 146.726 332.492 145.164C328.802 146.956 326.227 149.632 322.229 151.709C316.947 154.451 315.53 153.792 311.198 157.807C303.238 165.185 302.702 168.641 297.5 179.228V179.228Z" fill="#FEAF84"/>
<path fill-rule="evenodd" clip-rule="evenodd" d="M301.073 304.165L301.008 363.569L305.416 363.447L305.412 309.581C305.156 301.451 306.571 264.141 304.793 260.081L301.942 259.927C300.264 262.827 301.065 300.998 301.073 304.165V304.165Z" fill="#EEDEE3"/>
<path fill-rule="evenodd" clip-rule="evenodd" d="M22.784 106.509L22.9468 205.995L27.1367 206.141L27.3781 113.403L27.3701 102.293L23.0074 102.344L22.784 106.509Z" fill="#EEDEE3"/>
<path fill-rule="evenodd" clip-rule="evenodd" d="M124.333 235.98C121.893 238.836 116.147 240.404 115.876 247.434C124.947 253.634 133.252 246.574 137.282 246.167L136.846 244.887L139.648 243.746C140.799 246 145.44 253.108 147.045 254.748L147.28 252.711C148.915 252.412 150.057 251.769 151.391 250.943C151.899 250.629 153.025 249.811 153.071 249.781C154.584 248.823 153.416 249.386 155.307 248.61C153.249 245.71 146.24 236.151 143.996 234.325C137.279 228.859 130.198 238.766 124.333 235.98V235.98Z" fill="#E19A74"/>
<path fill-rule="evenodd" clip-rule="evenodd" d="M202.01 538.1L197.939 558.445C196.819 559.536 199.654 559.14 195.749 559.367C195.332 562.5 195.107 560.828 196.105 563.522C198.987 566.055 202.438 568.278 205.946 570.829C207.657 569.703 207.957 568.304 209.006 566.228C210.152 563.96 210.637 563.388 212.376 562.023L215.276 560.932L214.941 559.433L212.68 558.617L217.275 537.142C212.041 537.423 207.438 538.798 202.01 538.1V538.1Z" fill="#F9F9F9"/>
<path fill-rule="evenodd" clip-rule="evenodd" d="M338.15 306.732L370.515 306.61L370.536 294.631L338.109 294.492L338.15 306.732Z" fill="#A6F3F9"/>
<path fill-rule="evenodd" clip-rule="evenodd" d="M195.568 41.0743L198.4 40.2494C191.954 34.8371 186.705 8.66629 174.17 2.01774C149.509 -11.0642 146.297 43.5945 128.041 47.5711C109.431 51.6241 104.494 15.3198 93.0389 4.68473C91.4737 3.23129 85.1565 -1.30155 81.8227 1.17802C84.7553 4.60541 89.8202 -0.423162 98.1226 15.2345C101.891 22.3421 104.718 29.7908 108.238 36.473C118.377 55.7247 133.562 53.4543 142.775 35.1861C148.212 24.4053 155.664 -2.13932 171.782 3.00423C180.733 5.85956 186.444 21.9108 190.477 30.6057C191.82 33.5027 194.916 38.2834 195.568 41.0743V41.0743Z" fill="#C4F6ED"/>
<path fill-rule="evenodd" clip-rule="evenodd" d="M190.34 188.339C194.777 196.085 195.368 185.29 196.259 203.493L215.684 203.55L214.885 199.876C213.821 197.739 214.007 193.529 212.912 190.468C211.865 187.538 210.753 185.103 210.082 182.035C204.533 186.055 200.349 188.908 190.34 188.339V188.339Z" fill="#DD9B74" stroke="#DD9B74" stroke-width="0.0762" stroke-miterlimit="22.9256"/>
<path fill-rule="evenodd" clip-rule="evenodd" d="M180.858 576.75C185.016 578.276 189.606 576.93 193.541 576.892C198.046 576.85 201.999 577.696 207.119 577.259C206.425 574.885 206.669 573.184 205.944 570.829C202.437 568.278 198.985 566.055 196.103 563.522L183.6 562.049C182.945 563.542 176.233 575.362 180.858 576.75V576.75Z" fill="#3333D4"/>
<path fill-rule="evenodd" clip-rule="evenodd" d="M47.5196 182.539L72.109 182.893L71.8479 170.783L47.5921 170.812L47.5196 182.539Z" fill="#00E3E6"/>
<path fill-rule="evenodd" clip-rule="evenodd" d="M309.086 306.698L314.065 306.596L316.204 306.609L320.482 306.615L332.8 306.653L332.732 294.568L309.024 294.509L309.086 306.698Z" fill="#A6F3F9"/>
<path fill-rule="evenodd" clip-rule="evenodd" d="M332.492 145.164C334.129 146.726 332.997 147.499 331.807 149.178L334.018 185.507C334.799 187.551 333.583 186.395 335.46 187.156C337.95 186.019 337.13 187.213 336.71 177.736L334.519 116.194C334.363 111.188 335 107.451 332.607 106.347C329.968 107.422 330.618 104.257 331.031 115.089L332.492 145.164V145.164Z" fill="#E4EBF5"/>
<path fill-rule="evenodd" clip-rule="evenodd" d="M179.275 203.273L196.258 203.493C195.367 185.29 194.776 196.085 190.339 188.339C184.83 185.277 181.08 182.06 177.897 176.306C176.134 178.688 181.572 196.307 182.591 203.073L179.275 203.273V203.273Z" fill="#F6F8FA"/>
<path fill-rule="evenodd" clip-rule="evenodd" d="M309.072 358.074L325.519 357.852L325.684 345.846L309.086 345.783L309.072 358.074Z" fill="#A5F2FA"/>
<path fill-rule="evenodd" clip-rule="evenodd" d="M173.709 281.049C178.112 278.212 179.5 273.807 179.86 267.274L180.457 264.533C181.732 261.367 179.538 248.932 178.756 243.292C178.641 242.466 178.409 240.938 178.25 240.151L177.138 236.621C175.953 239.022 173.601 276.164 173.709 281.049Z" fill="#2020B6"/>
<path fill-rule="evenodd" clip-rule="evenodd" d="M309.098 312.984L309.058 323.869L317.316 323.583L324.521 323.611L324.603 311.86L311.835 311.49C308.078 311.854 309.579 310.832 309.098 312.984V312.984Z" fill="#A6F3F9"/>
<path fill-rule="evenodd" clip-rule="evenodd" d="M222.965 36.8627L230.098 35.549C227.233 35.2417 228.898 35.6839 227.862 34.7321C233.603 27.0882 237.552 5.85862 249.385 2.81195C258.12 0.563381 263.517 7.15839 266.68 12.1562C268.76 15.4398 274.259 26.6678 275.06 30.6038L283.092 29.4537L277.301 30.0773C272.728 19.0268 264.391 -4.42053 247.91 1.29111C241.264 3.59321 236.853 11.6823 234.024 17.4039L226.826 33.009C225.168 36.2936 225.451 34.8719 222.965 36.8627V36.8627Z" fill="#C4F6ED"/>
<path fill-rule="evenodd" clip-rule="evenodd" d="M218.654 126.006L224.916 127.664C220.709 122.541 214.139 114.16 209.282 110.759C203.585 106.769 199.74 104.049 192.134 103.591C184.255 103.118 185.781 104.565 185.45 105.123C186.498 107.149 185.515 106.435 191.401 106.507C202.974 106.647 216.108 119.456 218.654 126.006Z" fill="#E6EAFD"/>
<path fill-rule="evenodd" clip-rule="evenodd" d="M31.1074 182.608L41.5272 182.846L41.4497 170.881L31.2008 170.804L31.1074 182.608Z" fill="#00E3E6"/>
<path fill-rule="evenodd" clip-rule="evenodd" d="M156.535 250.345L155.174 251.718L152.267 253.477C151.609 254.359 151.579 254.453 150.994 255.182C148.323 256.389 149.437 256.236 147.351 255.798L147.311 257.888L143.584 260.972L145.72 264.175L153.21 258.492C155.427 256.738 158.229 253.789 160.855 253.307L156.535 250.345V250.345Z" fill="#D7A59A"/>
<path fill-rule="evenodd" clip-rule="evenodd" d="M254.163 206.756C259.675 207.19 264.833 207.677 270.476 207.395C276.375 207.099 279.746 206.423 281.936 202.689C278.286 202.531 271.874 203.588 267.856 204.145C266.144 204.382 263.056 204.759 260.905 205.019C257.15 205.476 257.18 205.046 254.163 206.756V206.756Z" fill="#2FB7D6"/>
<path fill-rule="evenodd" clip-rule="evenodd" d="M294.556 183.374C296.642 185.085 298.952 186.711 300.869 188.059C303.581 189.965 305.191 190.413 307.096 193.401L308.768 191.645C307.811 188.179 306.928 189.373 305.709 187.035C304.176 185.8 302.989 185.141 301.45 183.944C299.789 182.654 300.919 183.396 299.391 182.438C298.534 181.902 297.956 181.664 296.874 180.981C294.067 180.76 295.051 181.732 294.556 183.374V183.374Z" fill="#F4CEB5"/>
<path fill-rule="evenodd" clip-rule="evenodd" d="M195.72 67.3998L195.684 70.9947C197.399 72.0019 197.725 72.0694 198.905 73.4048C203.306 72.0852 203.879 72.1546 203.881 67.1568C202.481 66.3766 202.139 66.215 200.999 64.9926L199.069 64.9737C196.824 65.3683 197.033 65.7163 195.72 67.3998V67.3998Z" fill="#52D4FB"/>
<path fill-rule="evenodd" clip-rule="evenodd" d="M214.064 70.4988L217.082 70.3462C218.46 69.7275 218.995 69.5947 219.589 68.403C220.743 66.088 220.021 65.6359 219.171 64.2578L218.084 62.9639C212.567 62.3988 211.886 63.1592 211.618 68.3524C212.685 70.241 211.675 69.4994 214.064 70.4988V70.4988Z" fill="#4DD3FB"/>
<path fill-rule="evenodd" clip-rule="evenodd" d="M179.774 71.5598C180.532 76.5556 183.881 76.2225 187.518 74.9039C188.058 71.7125 188.037 72.3946 187.503 69.0673L183.558 67.9827C180.975 68.6509 180.558 69.0009 179.774 71.5598Z" fill="#52D4FB"/>
<path fill-rule="evenodd" clip-rule="evenodd" d="M183.6 562.048L196.103 563.522C195.105 560.828 195.33 562.5 195.746 559.367L185.783 559.295L185.644 561.385C181.676 560.946 184.956 561.119 183.6 562.048V562.048Z" fill="#E3DAD8"/>
<path fill-rule="evenodd" clip-rule="evenodd" d="M212.375 562.023L225.342 563.507L225.401 560.032L214.94 559.433L215.275 560.932L212.375 562.023Z" fill="#E3DAD8"/>
<path fill-rule="evenodd" clip-rule="evenodd" d="M183.56 340.086L184.771 337.744L199.974 337.818C202.55 337.84 203.323 338.092 205.031 337.219C203.653 336.276 203.371 336.364 200.705 336.365L184.015 336.32C182.695 336.877 183.681 335.862 182.868 337.219C183.589 338.711 183.391 337.89 183.56 340.086V340.086Z" fill="#89635A"/>
<path fill-rule="evenodd" clip-rule="evenodd" d="M296.874 180.981C297.956 181.664 298.534 181.902 299.391 182.439C300.919 183.396 299.789 182.654 301.45 183.945C302.988 185.141 304.176 185.801 305.709 187.035L306.133 185.541L306.564 183.408C303.483 181.786 300.669 179.879 297.5 179.228L296.874 180.981V180.981Z" fill="#EE926D"/>
<path fill-rule="evenodd" clip-rule="evenodd" d="M137.282 246.167C140.748 248.114 144.541 254.715 147.35 255.797L147.045 254.748C145.441 253.108 140.8 246 139.649 243.746L136.846 244.887L137.282 246.167V246.167Z" fill="#F3F3F3"/>
<path fill-rule="evenodd" clip-rule="evenodd" d="M147.044 254.748L147.349 255.797C149.436 256.236 148.321 256.389 150.992 255.182C151.577 254.453 151.608 254.359 152.265 253.476L155.172 251.718L156.533 250.345L155.867 249.491L155.307 248.609C153.415 249.386 154.583 248.823 153.07 249.781C153.025 249.811 151.899 250.629 151.39 250.943C150.056 251.769 148.914 252.412 147.28 252.711L147.044 254.748V254.748Z" fill="#D88F5A"/>
<path fill-rule="evenodd" clip-rule="evenodd" d="M185.784 559.295L195.747 559.367C199.653 559.14 196.818 559.536 197.938 558.445L183.363 558.616L183.51 550.571L182.844 555.073C182.791 557.272 182.613 557.005 183.03 559.193L185.784 559.295V559.295Z" fill="#909292"/>
<path fill-rule="evenodd" clip-rule="evenodd" d="M179.861 267.274L181.542 267.266C181.41 264.088 181.214 265.377 180.458 264.533L179.861 267.274Z" fill="#D7A59A"/>
<path fill-rule="evenodd" clip-rule="evenodd" d="M198.905 73.4049C197.725 72.0695 197.399 72.002 195.684 70.9948L198.905 73.4049Z" fill="#D8D5AF"/>
<path fill-rule="evenodd" clip-rule="evenodd" d="M203.883 67.1569L201.001 64.9926C202.141 66.215 202.482 66.3766 203.883 67.1569Z" fill="#D8D5AF"/>
<path fill-rule="evenodd" clip-rule="evenodd" d="M184.543 129.534C186.479 130.252 190.482 138.675 191.766 141.035C193.96 145.066 196.134 149.402 198.254 153.848C202.525 162.8 205.885 172.103 209.819 181.323C211.78 179.94 214.35 177.04 214.789 174.182C204.629 166.896 210.682 151.917 219.807 158.696L219.815 149.845C222.702 150.132 225.276 150.713 228.25 150.341C238.259 149.086 240.075 139.031 240.051 130.466C235.631 132.469 228.589 130.616 224.916 127.664L218.655 126.006C210.019 124.508 189.905 123.26 184.543 129.534V129.534Z" fill="#F78933" stroke="#F78933" stroke-width="0.0762" stroke-miterlimit="22.9256"/>
</svg>
