<svg width="354" height="421" viewBox="0 0 354 421" fill="none" xmlns="http://www.w3.org/2000/svg">
<g opacity="0.7">
<path d="M271.385 149.259C273.562 148.976 275.694 149.12 277.688 149.623C279.759 150.146 281.684 151.059 283.359 152.286C285.046 153.521 286.479 155.075 287.554 156.872C288.59 158.604 289.292 160.557 289.566 162.662C289.841 164.767 289.662 166.835 289.104 168.774C288.525 170.787 287.539 172.656 286.225 174.282C284.92 175.897 283.293 177.272 281.425 178.309C279.626 179.307 277.602 179.992 275.426 180.275C273.25 180.559 271.118 180.415 269.123 179.912C267.051 179.388 265.127 178.476 263.452 177.249C261.765 176.014 260.332 174.46 259.257 172.662C258.221 170.931 257.519 168.978 257.245 166.873C256.971 164.768 257.149 162.7 257.706 160.761C258.285 158.748 259.272 156.878 260.586 155.252C261.891 153.638 263.518 152.262 265.386 151.226C267.185 150.228 269.209 149.543 271.385 149.259ZM280.884 155.675C279.64 154.764 278.207 154.086 276.657 153.698C275.166 153.324 273.567 153.218 271.929 153.431C270.291 153.645 268.772 154.157 267.426 154.901C266.029 155.673 264.815 156.695 263.847 157.894C262.888 159.08 262.169 160.44 261.749 161.901C261.345 163.302 261.216 164.8 261.416 166.329C261.615 167.859 262.123 169.274 262.872 170.525C263.653 171.829 264.697 172.959 265.926 173.86C267.17 174.771 268.605 175.449 270.153 175.837C271.645 176.211 273.244 176.317 274.882 176.103C276.52 175.89 278.039 175.378 279.385 174.634C280.783 173.862 281.996 172.839 282.964 171.641C283.922 170.455 284.641 169.095 285.062 167.634C285.466 166.233 285.594 164.735 285.395 163.206C285.196 161.676 284.688 160.261 283.938 159.009C283.158 157.706 282.114 156.575 280.884 155.675Z" fill="#00E3E6" fill-opacity="0.501961"/>
<path d="M230.096 249.177L214.24 242.858C213.096 242.403 212.924 241.466 213.905 240.691L227.315 230.093C228.056 229.507 228.302 229.539 228.572 229.632C228.839 229.724 229.134 229.866 229.274 230.823L231.77 247.915C231.964 249.241 231.371 249.685 230.096 249.177Z" fill="#00E3E6" fill-opacity="0.74902"/>
<path d="M280.441 111.166L264.495 91.2892C263.345 89.856 263.812 88.5128 265.656 88.228L290.865 84.3362C292.259 84.1211 292.555 84.3437 292.838 84.6633C293.117 84.9787 293.395 85.3808 292.872 86.7261L283.543 110.758C282.819 112.622 281.722 112.763 280.441 111.166Z" fill="#00E3E6" fill-opacity="0.4"/>
<path d="M211.78 150.693C212.496 150.6 213.197 150.647 213.853 150.813C214.535 150.985 215.168 151.285 215.719 151.689C216.274 152.095 216.746 152.607 217.099 153.197C217.44 153.767 217.671 154.41 217.761 155.102C217.851 155.795 217.793 156.475 217.609 157.113C217.224 158.452 216.297 159.575 215.083 160.249C214.491 160.578 213.825 160.803 213.11 160.896C212.393 160.989 211.692 160.942 211.036 160.776C210.355 160.604 209.721 160.304 209.17 159.901C208.615 159.494 208.144 158.983 207.791 158.392C207.449 157.822 207.219 157.18 207.129 156.487C207.038 155.795 207.097 155.115 207.281 154.476C207.471 153.815 207.795 153.2 208.227 152.665C208.657 152.133 209.192 151.681 209.807 151.34C210.398 151.012 211.064 150.786 211.78 150.693Z" fill="#00E3E6" fill-opacity="0.701961"/>
<path d="M141.516 246.614C143.06 246.412 144.573 246.515 145.989 246.872C147.459 247.243 148.825 247.891 150.015 248.762C151.212 249.638 152.229 250.742 152.992 252.017C153.727 253.247 154.226 254.633 154.421 256.127C154.615 257.621 154.488 259.089 154.092 260.465C153.682 261.894 152.981 263.221 152.049 264.375C151.122 265.521 149.967 266.497 148.642 267.233C147.365 267.942 145.928 268.428 144.384 268.629C142.839 268.83 141.326 268.728 139.91 268.371C138.439 267.999 137.073 267.351 135.884 266.481C134.687 265.604 133.67 264.501 132.906 263.225C132.171 261.996 131.673 260.61 131.478 259.116C131.284 257.622 131.41 256.154 131.806 254.778C132.217 253.349 132.917 252.021 133.85 250.868C134.776 249.721 135.931 248.745 137.257 248.009C138.534 247.301 139.971 246.815 141.516 246.614Z" fill="#00E3E6" fill-opacity="0.4"/>
<path d="M41.2374 269.747L26.9232 255.707C25.8912 254.695 26.13 253.602 27.5443 253.207L46.8764 247.811C47.945 247.513 48.1976 247.659 48.4484 247.882C48.6962 248.102 48.9504 248.391 48.6678 249.491L43.6235 269.139C43.2317 270.663 42.3881 270.875 41.2374 269.747Z" fill="#00E3E6" fill-opacity="0.301961"/>
<path d="M140.571 204.733L125.022 175.559C123.9 173.455 124.818 171.855 127.237 171.936L160.309 173.039C162.137 173.1 162.462 173.456 162.746 173.931C163.026 174.399 163.283 174.98 162.294 176.569L144.623 204.959C143.252 207.161 141.82 207.078 140.571 204.733Z" fill="#00E3E6" fill-opacity="0.4"/>
<path d="M378.41 228.542L309.012 263.336C304.008 265.846 300.306 263.595 300.638 257.918L305.175 180.297C305.427 176.007 306.279 175.264 307.411 174.626C308.529 173.996 309.906 173.427 313.578 175.845L379.18 219.036C384.269 222.387 383.988 225.746 378.41 228.542ZM340.472 206.448L315.443 189.969L311.945 249.806L365.497 222.923L340.472 206.448Z" fill="#00E3E6" fill-opacity="0.301961"/>
<path d="M353.041 162.718L311.593 140.091C308.604 138.459 308.445 135.828 311.396 134.025L351.744 109.382C353.974 108.021 354.641 108.189 355.352 108.534C356.055 108.875 356.816 109.365 356.882 112.039L358.056 159.807C358.148 163.513 356.372 164.537 353.041 162.718ZM350.921 136.094L350.473 117.869L319.369 136.865L351.369 154.315L350.921 136.094Z" fill="#00E3E6" fill-opacity="0.501961"/>
</g>
</svg>
